G04 #@! TF.GenerationSoftware,KiCad,Pcbnew,5.1.4+dfsg1-1*
G04 #@! TF.CreationDate,2019-11-18T19:04:25+01:00*
G04 #@! TF.ProjectId,USB-LED-Otter,5553422d-4c45-4442-9d4f-747465722e6b,rev?*
G04 #@! TF.SameCoordinates,Original*
G04 #@! TF.FileFunction,Copper,L2,Bot*
G04 #@! TF.FilePolarity,Positive*
%FSLAX46Y46*%
G04 Gerber Fmt 4.6, Leading zero omitted, Abs format (unit mm)*
G04 Created by KiCad (PCBNEW 5.1.4+dfsg1-1) date 2019-11-18 19:04:25*
%MOMM*%
%LPD*%
G04 APERTURE LIST*
%ADD10C,0.100000*%
%ADD11C,0.250000*%
%ADD12C,2.600000*%
%ADD13C,1.200000*%
%ADD14R,1.050000X1.400000*%
%ADD15C,0.590000*%
%ADD16R,0.900000X0.800000*%
%ADD17C,0.600000*%
%ADD18C,0.800000*%
%ADD19C,0.200000*%
%ADD20C,0.157000*%
%ADD21C,0.250000*%
G04 APERTURE END LIST*
D10*
G36*
X53408626Y-58600301D02*
G01*
X53414693Y-58601201D01*
X53420643Y-58602691D01*
X53426418Y-58604758D01*
X53431962Y-58607380D01*
X53437223Y-58610533D01*
X53442150Y-58614187D01*
X53446694Y-58618306D01*
X53450813Y-58622850D01*
X53454467Y-58627777D01*
X53457620Y-58633038D01*
X53460242Y-58638582D01*
X53462309Y-58644357D01*
X53463799Y-58650307D01*
X53464699Y-58656374D01*
X53465000Y-58662500D01*
X53465000Y-59412500D01*
X53464699Y-59418626D01*
X53463799Y-59424693D01*
X53462309Y-59430643D01*
X53460242Y-59436418D01*
X53457620Y-59441962D01*
X53454467Y-59447223D01*
X53450813Y-59452150D01*
X53446694Y-59456694D01*
X53442150Y-59460813D01*
X53437223Y-59464467D01*
X53431962Y-59467620D01*
X53426418Y-59470242D01*
X53420643Y-59472309D01*
X53414693Y-59473799D01*
X53408626Y-59474699D01*
X53402500Y-59475000D01*
X53277500Y-59475000D01*
X53271374Y-59474699D01*
X53265307Y-59473799D01*
X53259357Y-59472309D01*
X53253582Y-59470242D01*
X53248038Y-59467620D01*
X53242777Y-59464467D01*
X53237850Y-59460813D01*
X53233306Y-59456694D01*
X53229187Y-59452150D01*
X53225533Y-59447223D01*
X53222380Y-59441962D01*
X53219758Y-59436418D01*
X53217691Y-59430643D01*
X53216201Y-59424693D01*
X53215301Y-59418626D01*
X53215000Y-59412500D01*
X53215000Y-58662500D01*
X53215301Y-58656374D01*
X53216201Y-58650307D01*
X53217691Y-58644357D01*
X53219758Y-58638582D01*
X53222380Y-58633038D01*
X53225533Y-58627777D01*
X53229187Y-58622850D01*
X53233306Y-58618306D01*
X53237850Y-58614187D01*
X53242777Y-58610533D01*
X53248038Y-58607380D01*
X53253582Y-58604758D01*
X53259357Y-58602691D01*
X53265307Y-58601201D01*
X53271374Y-58600301D01*
X53277500Y-58600000D01*
X53402500Y-58600000D01*
X53408626Y-58600301D01*
X53408626Y-58600301D01*
G37*
D11*
X53340000Y-59037500D03*
D10*
G36*
X53908626Y-58600301D02*
G01*
X53914693Y-58601201D01*
X53920643Y-58602691D01*
X53926418Y-58604758D01*
X53931962Y-58607380D01*
X53937223Y-58610533D01*
X53942150Y-58614187D01*
X53946694Y-58618306D01*
X53950813Y-58622850D01*
X53954467Y-58627777D01*
X53957620Y-58633038D01*
X53960242Y-58638582D01*
X53962309Y-58644357D01*
X53963799Y-58650307D01*
X53964699Y-58656374D01*
X53965000Y-58662500D01*
X53965000Y-59412500D01*
X53964699Y-59418626D01*
X53963799Y-59424693D01*
X53962309Y-59430643D01*
X53960242Y-59436418D01*
X53957620Y-59441962D01*
X53954467Y-59447223D01*
X53950813Y-59452150D01*
X53946694Y-59456694D01*
X53942150Y-59460813D01*
X53937223Y-59464467D01*
X53931962Y-59467620D01*
X53926418Y-59470242D01*
X53920643Y-59472309D01*
X53914693Y-59473799D01*
X53908626Y-59474699D01*
X53902500Y-59475000D01*
X53777500Y-59475000D01*
X53771374Y-59474699D01*
X53765307Y-59473799D01*
X53759357Y-59472309D01*
X53753582Y-59470242D01*
X53748038Y-59467620D01*
X53742777Y-59464467D01*
X53737850Y-59460813D01*
X53733306Y-59456694D01*
X53729187Y-59452150D01*
X53725533Y-59447223D01*
X53722380Y-59441962D01*
X53719758Y-59436418D01*
X53717691Y-59430643D01*
X53716201Y-59424693D01*
X53715301Y-59418626D01*
X53715000Y-59412500D01*
X53715000Y-58662500D01*
X53715301Y-58656374D01*
X53716201Y-58650307D01*
X53717691Y-58644357D01*
X53719758Y-58638582D01*
X53722380Y-58633038D01*
X53725533Y-58627777D01*
X53729187Y-58622850D01*
X53733306Y-58618306D01*
X53737850Y-58614187D01*
X53742777Y-58610533D01*
X53748038Y-58607380D01*
X53753582Y-58604758D01*
X53759357Y-58602691D01*
X53765307Y-58601201D01*
X53771374Y-58600301D01*
X53777500Y-58600000D01*
X53902500Y-58600000D01*
X53908626Y-58600301D01*
X53908626Y-58600301D01*
G37*
D11*
X53840000Y-59037500D03*
D10*
G36*
X54408626Y-58600301D02*
G01*
X54414693Y-58601201D01*
X54420643Y-58602691D01*
X54426418Y-58604758D01*
X54431962Y-58607380D01*
X54437223Y-58610533D01*
X54442150Y-58614187D01*
X54446694Y-58618306D01*
X54450813Y-58622850D01*
X54454467Y-58627777D01*
X54457620Y-58633038D01*
X54460242Y-58638582D01*
X54462309Y-58644357D01*
X54463799Y-58650307D01*
X54464699Y-58656374D01*
X54465000Y-58662500D01*
X54465000Y-59412500D01*
X54464699Y-59418626D01*
X54463799Y-59424693D01*
X54462309Y-59430643D01*
X54460242Y-59436418D01*
X54457620Y-59441962D01*
X54454467Y-59447223D01*
X54450813Y-59452150D01*
X54446694Y-59456694D01*
X54442150Y-59460813D01*
X54437223Y-59464467D01*
X54431962Y-59467620D01*
X54426418Y-59470242D01*
X54420643Y-59472309D01*
X54414693Y-59473799D01*
X54408626Y-59474699D01*
X54402500Y-59475000D01*
X54277500Y-59475000D01*
X54271374Y-59474699D01*
X54265307Y-59473799D01*
X54259357Y-59472309D01*
X54253582Y-59470242D01*
X54248038Y-59467620D01*
X54242777Y-59464467D01*
X54237850Y-59460813D01*
X54233306Y-59456694D01*
X54229187Y-59452150D01*
X54225533Y-59447223D01*
X54222380Y-59441962D01*
X54219758Y-59436418D01*
X54217691Y-59430643D01*
X54216201Y-59424693D01*
X54215301Y-59418626D01*
X54215000Y-59412500D01*
X54215000Y-58662500D01*
X54215301Y-58656374D01*
X54216201Y-58650307D01*
X54217691Y-58644357D01*
X54219758Y-58638582D01*
X54222380Y-58633038D01*
X54225533Y-58627777D01*
X54229187Y-58622850D01*
X54233306Y-58618306D01*
X54237850Y-58614187D01*
X54242777Y-58610533D01*
X54248038Y-58607380D01*
X54253582Y-58604758D01*
X54259357Y-58602691D01*
X54265307Y-58601201D01*
X54271374Y-58600301D01*
X54277500Y-58600000D01*
X54402500Y-58600000D01*
X54408626Y-58600301D01*
X54408626Y-58600301D01*
G37*
D11*
X54340000Y-59037500D03*
D10*
G36*
X54908626Y-58600301D02*
G01*
X54914693Y-58601201D01*
X54920643Y-58602691D01*
X54926418Y-58604758D01*
X54931962Y-58607380D01*
X54937223Y-58610533D01*
X54942150Y-58614187D01*
X54946694Y-58618306D01*
X54950813Y-58622850D01*
X54954467Y-58627777D01*
X54957620Y-58633038D01*
X54960242Y-58638582D01*
X54962309Y-58644357D01*
X54963799Y-58650307D01*
X54964699Y-58656374D01*
X54965000Y-58662500D01*
X54965000Y-59412500D01*
X54964699Y-59418626D01*
X54963799Y-59424693D01*
X54962309Y-59430643D01*
X54960242Y-59436418D01*
X54957620Y-59441962D01*
X54954467Y-59447223D01*
X54950813Y-59452150D01*
X54946694Y-59456694D01*
X54942150Y-59460813D01*
X54937223Y-59464467D01*
X54931962Y-59467620D01*
X54926418Y-59470242D01*
X54920643Y-59472309D01*
X54914693Y-59473799D01*
X54908626Y-59474699D01*
X54902500Y-59475000D01*
X54777500Y-59475000D01*
X54771374Y-59474699D01*
X54765307Y-59473799D01*
X54759357Y-59472309D01*
X54753582Y-59470242D01*
X54748038Y-59467620D01*
X54742777Y-59464467D01*
X54737850Y-59460813D01*
X54733306Y-59456694D01*
X54729187Y-59452150D01*
X54725533Y-59447223D01*
X54722380Y-59441962D01*
X54719758Y-59436418D01*
X54717691Y-59430643D01*
X54716201Y-59424693D01*
X54715301Y-59418626D01*
X54715000Y-59412500D01*
X54715000Y-58662500D01*
X54715301Y-58656374D01*
X54716201Y-58650307D01*
X54717691Y-58644357D01*
X54719758Y-58638582D01*
X54722380Y-58633038D01*
X54725533Y-58627777D01*
X54729187Y-58622850D01*
X54733306Y-58618306D01*
X54737850Y-58614187D01*
X54742777Y-58610533D01*
X54748038Y-58607380D01*
X54753582Y-58604758D01*
X54759357Y-58602691D01*
X54765307Y-58601201D01*
X54771374Y-58600301D01*
X54777500Y-58600000D01*
X54902500Y-58600000D01*
X54908626Y-58600301D01*
X54908626Y-58600301D01*
G37*
D11*
X54840000Y-59037500D03*
D10*
G36*
X55408626Y-58600301D02*
G01*
X55414693Y-58601201D01*
X55420643Y-58602691D01*
X55426418Y-58604758D01*
X55431962Y-58607380D01*
X55437223Y-58610533D01*
X55442150Y-58614187D01*
X55446694Y-58618306D01*
X55450813Y-58622850D01*
X55454467Y-58627777D01*
X55457620Y-58633038D01*
X55460242Y-58638582D01*
X55462309Y-58644357D01*
X55463799Y-58650307D01*
X55464699Y-58656374D01*
X55465000Y-58662500D01*
X55465000Y-59412500D01*
X55464699Y-59418626D01*
X55463799Y-59424693D01*
X55462309Y-59430643D01*
X55460242Y-59436418D01*
X55457620Y-59441962D01*
X55454467Y-59447223D01*
X55450813Y-59452150D01*
X55446694Y-59456694D01*
X55442150Y-59460813D01*
X55437223Y-59464467D01*
X55431962Y-59467620D01*
X55426418Y-59470242D01*
X55420643Y-59472309D01*
X55414693Y-59473799D01*
X55408626Y-59474699D01*
X55402500Y-59475000D01*
X55277500Y-59475000D01*
X55271374Y-59474699D01*
X55265307Y-59473799D01*
X55259357Y-59472309D01*
X55253582Y-59470242D01*
X55248038Y-59467620D01*
X55242777Y-59464467D01*
X55237850Y-59460813D01*
X55233306Y-59456694D01*
X55229187Y-59452150D01*
X55225533Y-59447223D01*
X55222380Y-59441962D01*
X55219758Y-59436418D01*
X55217691Y-59430643D01*
X55216201Y-59424693D01*
X55215301Y-59418626D01*
X55215000Y-59412500D01*
X55215000Y-58662500D01*
X55215301Y-58656374D01*
X55216201Y-58650307D01*
X55217691Y-58644357D01*
X55219758Y-58638582D01*
X55222380Y-58633038D01*
X55225533Y-58627777D01*
X55229187Y-58622850D01*
X55233306Y-58618306D01*
X55237850Y-58614187D01*
X55242777Y-58610533D01*
X55248038Y-58607380D01*
X55253582Y-58604758D01*
X55259357Y-58602691D01*
X55265307Y-58601201D01*
X55271374Y-58600301D01*
X55277500Y-58600000D01*
X55402500Y-58600000D01*
X55408626Y-58600301D01*
X55408626Y-58600301D01*
G37*
D11*
X55340000Y-59037500D03*
D10*
G36*
X55908626Y-58600301D02*
G01*
X55914693Y-58601201D01*
X55920643Y-58602691D01*
X55926418Y-58604758D01*
X55931962Y-58607380D01*
X55937223Y-58610533D01*
X55942150Y-58614187D01*
X55946694Y-58618306D01*
X55950813Y-58622850D01*
X55954467Y-58627777D01*
X55957620Y-58633038D01*
X55960242Y-58638582D01*
X55962309Y-58644357D01*
X55963799Y-58650307D01*
X55964699Y-58656374D01*
X55965000Y-58662500D01*
X55965000Y-59412500D01*
X55964699Y-59418626D01*
X55963799Y-59424693D01*
X55962309Y-59430643D01*
X55960242Y-59436418D01*
X55957620Y-59441962D01*
X55954467Y-59447223D01*
X55950813Y-59452150D01*
X55946694Y-59456694D01*
X55942150Y-59460813D01*
X55937223Y-59464467D01*
X55931962Y-59467620D01*
X55926418Y-59470242D01*
X55920643Y-59472309D01*
X55914693Y-59473799D01*
X55908626Y-59474699D01*
X55902500Y-59475000D01*
X55777500Y-59475000D01*
X55771374Y-59474699D01*
X55765307Y-59473799D01*
X55759357Y-59472309D01*
X55753582Y-59470242D01*
X55748038Y-59467620D01*
X55742777Y-59464467D01*
X55737850Y-59460813D01*
X55733306Y-59456694D01*
X55729187Y-59452150D01*
X55725533Y-59447223D01*
X55722380Y-59441962D01*
X55719758Y-59436418D01*
X55717691Y-59430643D01*
X55716201Y-59424693D01*
X55715301Y-59418626D01*
X55715000Y-59412500D01*
X55715000Y-58662500D01*
X55715301Y-58656374D01*
X55716201Y-58650307D01*
X55717691Y-58644357D01*
X55719758Y-58638582D01*
X55722380Y-58633038D01*
X55725533Y-58627777D01*
X55729187Y-58622850D01*
X55733306Y-58618306D01*
X55737850Y-58614187D01*
X55742777Y-58610533D01*
X55748038Y-58607380D01*
X55753582Y-58604758D01*
X55759357Y-58602691D01*
X55765307Y-58601201D01*
X55771374Y-58600301D01*
X55777500Y-58600000D01*
X55902500Y-58600000D01*
X55908626Y-58600301D01*
X55908626Y-58600301D01*
G37*
D11*
X55840000Y-59037500D03*
D10*
G36*
X56408626Y-58600301D02*
G01*
X56414693Y-58601201D01*
X56420643Y-58602691D01*
X56426418Y-58604758D01*
X56431962Y-58607380D01*
X56437223Y-58610533D01*
X56442150Y-58614187D01*
X56446694Y-58618306D01*
X56450813Y-58622850D01*
X56454467Y-58627777D01*
X56457620Y-58633038D01*
X56460242Y-58638582D01*
X56462309Y-58644357D01*
X56463799Y-58650307D01*
X56464699Y-58656374D01*
X56465000Y-58662500D01*
X56465000Y-59412500D01*
X56464699Y-59418626D01*
X56463799Y-59424693D01*
X56462309Y-59430643D01*
X56460242Y-59436418D01*
X56457620Y-59441962D01*
X56454467Y-59447223D01*
X56450813Y-59452150D01*
X56446694Y-59456694D01*
X56442150Y-59460813D01*
X56437223Y-59464467D01*
X56431962Y-59467620D01*
X56426418Y-59470242D01*
X56420643Y-59472309D01*
X56414693Y-59473799D01*
X56408626Y-59474699D01*
X56402500Y-59475000D01*
X56277500Y-59475000D01*
X56271374Y-59474699D01*
X56265307Y-59473799D01*
X56259357Y-59472309D01*
X56253582Y-59470242D01*
X56248038Y-59467620D01*
X56242777Y-59464467D01*
X56237850Y-59460813D01*
X56233306Y-59456694D01*
X56229187Y-59452150D01*
X56225533Y-59447223D01*
X56222380Y-59441962D01*
X56219758Y-59436418D01*
X56217691Y-59430643D01*
X56216201Y-59424693D01*
X56215301Y-59418626D01*
X56215000Y-59412500D01*
X56215000Y-58662500D01*
X56215301Y-58656374D01*
X56216201Y-58650307D01*
X56217691Y-58644357D01*
X56219758Y-58638582D01*
X56222380Y-58633038D01*
X56225533Y-58627777D01*
X56229187Y-58622850D01*
X56233306Y-58618306D01*
X56237850Y-58614187D01*
X56242777Y-58610533D01*
X56248038Y-58607380D01*
X56253582Y-58604758D01*
X56259357Y-58602691D01*
X56265307Y-58601201D01*
X56271374Y-58600301D01*
X56277500Y-58600000D01*
X56402500Y-58600000D01*
X56408626Y-58600301D01*
X56408626Y-58600301D01*
G37*
D11*
X56340000Y-59037500D03*
D10*
G36*
X56908626Y-58600301D02*
G01*
X56914693Y-58601201D01*
X56920643Y-58602691D01*
X56926418Y-58604758D01*
X56931962Y-58607380D01*
X56937223Y-58610533D01*
X56942150Y-58614187D01*
X56946694Y-58618306D01*
X56950813Y-58622850D01*
X56954467Y-58627777D01*
X56957620Y-58633038D01*
X56960242Y-58638582D01*
X56962309Y-58644357D01*
X56963799Y-58650307D01*
X56964699Y-58656374D01*
X56965000Y-58662500D01*
X56965000Y-59412500D01*
X56964699Y-59418626D01*
X56963799Y-59424693D01*
X56962309Y-59430643D01*
X56960242Y-59436418D01*
X56957620Y-59441962D01*
X56954467Y-59447223D01*
X56950813Y-59452150D01*
X56946694Y-59456694D01*
X56942150Y-59460813D01*
X56937223Y-59464467D01*
X56931962Y-59467620D01*
X56926418Y-59470242D01*
X56920643Y-59472309D01*
X56914693Y-59473799D01*
X56908626Y-59474699D01*
X56902500Y-59475000D01*
X56777500Y-59475000D01*
X56771374Y-59474699D01*
X56765307Y-59473799D01*
X56759357Y-59472309D01*
X56753582Y-59470242D01*
X56748038Y-59467620D01*
X56742777Y-59464467D01*
X56737850Y-59460813D01*
X56733306Y-59456694D01*
X56729187Y-59452150D01*
X56725533Y-59447223D01*
X56722380Y-59441962D01*
X56719758Y-59436418D01*
X56717691Y-59430643D01*
X56716201Y-59424693D01*
X56715301Y-59418626D01*
X56715000Y-59412500D01*
X56715000Y-58662500D01*
X56715301Y-58656374D01*
X56716201Y-58650307D01*
X56717691Y-58644357D01*
X56719758Y-58638582D01*
X56722380Y-58633038D01*
X56725533Y-58627777D01*
X56729187Y-58622850D01*
X56733306Y-58618306D01*
X56737850Y-58614187D01*
X56742777Y-58610533D01*
X56748038Y-58607380D01*
X56753582Y-58604758D01*
X56759357Y-58602691D01*
X56765307Y-58601201D01*
X56771374Y-58600301D01*
X56777500Y-58600000D01*
X56902500Y-58600000D01*
X56908626Y-58600301D01*
X56908626Y-58600301D01*
G37*
D11*
X56840000Y-59037500D03*
D10*
G36*
X57408626Y-58600301D02*
G01*
X57414693Y-58601201D01*
X57420643Y-58602691D01*
X57426418Y-58604758D01*
X57431962Y-58607380D01*
X57437223Y-58610533D01*
X57442150Y-58614187D01*
X57446694Y-58618306D01*
X57450813Y-58622850D01*
X57454467Y-58627777D01*
X57457620Y-58633038D01*
X57460242Y-58638582D01*
X57462309Y-58644357D01*
X57463799Y-58650307D01*
X57464699Y-58656374D01*
X57465000Y-58662500D01*
X57465000Y-59412500D01*
X57464699Y-59418626D01*
X57463799Y-59424693D01*
X57462309Y-59430643D01*
X57460242Y-59436418D01*
X57457620Y-59441962D01*
X57454467Y-59447223D01*
X57450813Y-59452150D01*
X57446694Y-59456694D01*
X57442150Y-59460813D01*
X57437223Y-59464467D01*
X57431962Y-59467620D01*
X57426418Y-59470242D01*
X57420643Y-59472309D01*
X57414693Y-59473799D01*
X57408626Y-59474699D01*
X57402500Y-59475000D01*
X57277500Y-59475000D01*
X57271374Y-59474699D01*
X57265307Y-59473799D01*
X57259357Y-59472309D01*
X57253582Y-59470242D01*
X57248038Y-59467620D01*
X57242777Y-59464467D01*
X57237850Y-59460813D01*
X57233306Y-59456694D01*
X57229187Y-59452150D01*
X57225533Y-59447223D01*
X57222380Y-59441962D01*
X57219758Y-59436418D01*
X57217691Y-59430643D01*
X57216201Y-59424693D01*
X57215301Y-59418626D01*
X57215000Y-59412500D01*
X57215000Y-58662500D01*
X57215301Y-58656374D01*
X57216201Y-58650307D01*
X57217691Y-58644357D01*
X57219758Y-58638582D01*
X57222380Y-58633038D01*
X57225533Y-58627777D01*
X57229187Y-58622850D01*
X57233306Y-58618306D01*
X57237850Y-58614187D01*
X57242777Y-58610533D01*
X57248038Y-58607380D01*
X57253582Y-58604758D01*
X57259357Y-58602691D01*
X57265307Y-58601201D01*
X57271374Y-58600301D01*
X57277500Y-58600000D01*
X57402500Y-58600000D01*
X57408626Y-58600301D01*
X57408626Y-58600301D01*
G37*
D11*
X57340000Y-59037500D03*
D10*
G36*
X57908626Y-58600301D02*
G01*
X57914693Y-58601201D01*
X57920643Y-58602691D01*
X57926418Y-58604758D01*
X57931962Y-58607380D01*
X57937223Y-58610533D01*
X57942150Y-58614187D01*
X57946694Y-58618306D01*
X57950813Y-58622850D01*
X57954467Y-58627777D01*
X57957620Y-58633038D01*
X57960242Y-58638582D01*
X57962309Y-58644357D01*
X57963799Y-58650307D01*
X57964699Y-58656374D01*
X57965000Y-58662500D01*
X57965000Y-59412500D01*
X57964699Y-59418626D01*
X57963799Y-59424693D01*
X57962309Y-59430643D01*
X57960242Y-59436418D01*
X57957620Y-59441962D01*
X57954467Y-59447223D01*
X57950813Y-59452150D01*
X57946694Y-59456694D01*
X57942150Y-59460813D01*
X57937223Y-59464467D01*
X57931962Y-59467620D01*
X57926418Y-59470242D01*
X57920643Y-59472309D01*
X57914693Y-59473799D01*
X57908626Y-59474699D01*
X57902500Y-59475000D01*
X57777500Y-59475000D01*
X57771374Y-59474699D01*
X57765307Y-59473799D01*
X57759357Y-59472309D01*
X57753582Y-59470242D01*
X57748038Y-59467620D01*
X57742777Y-59464467D01*
X57737850Y-59460813D01*
X57733306Y-59456694D01*
X57729187Y-59452150D01*
X57725533Y-59447223D01*
X57722380Y-59441962D01*
X57719758Y-59436418D01*
X57717691Y-59430643D01*
X57716201Y-59424693D01*
X57715301Y-59418626D01*
X57715000Y-59412500D01*
X57715000Y-58662500D01*
X57715301Y-58656374D01*
X57716201Y-58650307D01*
X57717691Y-58644357D01*
X57719758Y-58638582D01*
X57722380Y-58633038D01*
X57725533Y-58627777D01*
X57729187Y-58622850D01*
X57733306Y-58618306D01*
X57737850Y-58614187D01*
X57742777Y-58610533D01*
X57748038Y-58607380D01*
X57753582Y-58604758D01*
X57759357Y-58602691D01*
X57765307Y-58601201D01*
X57771374Y-58600301D01*
X57777500Y-58600000D01*
X57902500Y-58600000D01*
X57908626Y-58600301D01*
X57908626Y-58600301D01*
G37*
D11*
X57840000Y-59037500D03*
D10*
G36*
X58408626Y-58600301D02*
G01*
X58414693Y-58601201D01*
X58420643Y-58602691D01*
X58426418Y-58604758D01*
X58431962Y-58607380D01*
X58437223Y-58610533D01*
X58442150Y-58614187D01*
X58446694Y-58618306D01*
X58450813Y-58622850D01*
X58454467Y-58627777D01*
X58457620Y-58633038D01*
X58460242Y-58638582D01*
X58462309Y-58644357D01*
X58463799Y-58650307D01*
X58464699Y-58656374D01*
X58465000Y-58662500D01*
X58465000Y-59412500D01*
X58464699Y-59418626D01*
X58463799Y-59424693D01*
X58462309Y-59430643D01*
X58460242Y-59436418D01*
X58457620Y-59441962D01*
X58454467Y-59447223D01*
X58450813Y-59452150D01*
X58446694Y-59456694D01*
X58442150Y-59460813D01*
X58437223Y-59464467D01*
X58431962Y-59467620D01*
X58426418Y-59470242D01*
X58420643Y-59472309D01*
X58414693Y-59473799D01*
X58408626Y-59474699D01*
X58402500Y-59475000D01*
X58277500Y-59475000D01*
X58271374Y-59474699D01*
X58265307Y-59473799D01*
X58259357Y-59472309D01*
X58253582Y-59470242D01*
X58248038Y-59467620D01*
X58242777Y-59464467D01*
X58237850Y-59460813D01*
X58233306Y-59456694D01*
X58229187Y-59452150D01*
X58225533Y-59447223D01*
X58222380Y-59441962D01*
X58219758Y-59436418D01*
X58217691Y-59430643D01*
X58216201Y-59424693D01*
X58215301Y-59418626D01*
X58215000Y-59412500D01*
X58215000Y-58662500D01*
X58215301Y-58656374D01*
X58216201Y-58650307D01*
X58217691Y-58644357D01*
X58219758Y-58638582D01*
X58222380Y-58633038D01*
X58225533Y-58627777D01*
X58229187Y-58622850D01*
X58233306Y-58618306D01*
X58237850Y-58614187D01*
X58242777Y-58610533D01*
X58248038Y-58607380D01*
X58253582Y-58604758D01*
X58259357Y-58602691D01*
X58265307Y-58601201D01*
X58271374Y-58600301D01*
X58277500Y-58600000D01*
X58402500Y-58600000D01*
X58408626Y-58600301D01*
X58408626Y-58600301D01*
G37*
D11*
X58340000Y-59037500D03*
D10*
G36*
X58908626Y-58600301D02*
G01*
X58914693Y-58601201D01*
X58920643Y-58602691D01*
X58926418Y-58604758D01*
X58931962Y-58607380D01*
X58937223Y-58610533D01*
X58942150Y-58614187D01*
X58946694Y-58618306D01*
X58950813Y-58622850D01*
X58954467Y-58627777D01*
X58957620Y-58633038D01*
X58960242Y-58638582D01*
X58962309Y-58644357D01*
X58963799Y-58650307D01*
X58964699Y-58656374D01*
X58965000Y-58662500D01*
X58965000Y-59412500D01*
X58964699Y-59418626D01*
X58963799Y-59424693D01*
X58962309Y-59430643D01*
X58960242Y-59436418D01*
X58957620Y-59441962D01*
X58954467Y-59447223D01*
X58950813Y-59452150D01*
X58946694Y-59456694D01*
X58942150Y-59460813D01*
X58937223Y-59464467D01*
X58931962Y-59467620D01*
X58926418Y-59470242D01*
X58920643Y-59472309D01*
X58914693Y-59473799D01*
X58908626Y-59474699D01*
X58902500Y-59475000D01*
X58777500Y-59475000D01*
X58771374Y-59474699D01*
X58765307Y-59473799D01*
X58759357Y-59472309D01*
X58753582Y-59470242D01*
X58748038Y-59467620D01*
X58742777Y-59464467D01*
X58737850Y-59460813D01*
X58733306Y-59456694D01*
X58729187Y-59452150D01*
X58725533Y-59447223D01*
X58722380Y-59441962D01*
X58719758Y-59436418D01*
X58717691Y-59430643D01*
X58716201Y-59424693D01*
X58715301Y-59418626D01*
X58715000Y-59412500D01*
X58715000Y-58662500D01*
X58715301Y-58656374D01*
X58716201Y-58650307D01*
X58717691Y-58644357D01*
X58719758Y-58638582D01*
X58722380Y-58633038D01*
X58725533Y-58627777D01*
X58729187Y-58622850D01*
X58733306Y-58618306D01*
X58737850Y-58614187D01*
X58742777Y-58610533D01*
X58748038Y-58607380D01*
X58753582Y-58604758D01*
X58759357Y-58602691D01*
X58765307Y-58601201D01*
X58771374Y-58600301D01*
X58777500Y-58600000D01*
X58902500Y-58600000D01*
X58908626Y-58600301D01*
X58908626Y-58600301D01*
G37*
D11*
X58840000Y-59037500D03*
D10*
G36*
X59908626Y-58225301D02*
G01*
X59914693Y-58226201D01*
X59920643Y-58227691D01*
X59926418Y-58229758D01*
X59931962Y-58232380D01*
X59937223Y-58235533D01*
X59942150Y-58239187D01*
X59946694Y-58243306D01*
X59950813Y-58247850D01*
X59954467Y-58252777D01*
X59957620Y-58258038D01*
X59960242Y-58263582D01*
X59962309Y-58269357D01*
X59963799Y-58275307D01*
X59964699Y-58281374D01*
X59965000Y-58287500D01*
X59965000Y-58412500D01*
X59964699Y-58418626D01*
X59963799Y-58424693D01*
X59962309Y-58430643D01*
X59960242Y-58436418D01*
X59957620Y-58441962D01*
X59954467Y-58447223D01*
X59950813Y-58452150D01*
X59946694Y-58456694D01*
X59942150Y-58460813D01*
X59937223Y-58464467D01*
X59931962Y-58467620D01*
X59926418Y-58470242D01*
X59920643Y-58472309D01*
X59914693Y-58473799D01*
X59908626Y-58474699D01*
X59902500Y-58475000D01*
X59152500Y-58475000D01*
X59146374Y-58474699D01*
X59140307Y-58473799D01*
X59134357Y-58472309D01*
X59128582Y-58470242D01*
X59123038Y-58467620D01*
X59117777Y-58464467D01*
X59112850Y-58460813D01*
X59108306Y-58456694D01*
X59104187Y-58452150D01*
X59100533Y-58447223D01*
X59097380Y-58441962D01*
X59094758Y-58436418D01*
X59092691Y-58430643D01*
X59091201Y-58424693D01*
X59090301Y-58418626D01*
X59090000Y-58412500D01*
X59090000Y-58287500D01*
X59090301Y-58281374D01*
X59091201Y-58275307D01*
X59092691Y-58269357D01*
X59094758Y-58263582D01*
X59097380Y-58258038D01*
X59100533Y-58252777D01*
X59104187Y-58247850D01*
X59108306Y-58243306D01*
X59112850Y-58239187D01*
X59117777Y-58235533D01*
X59123038Y-58232380D01*
X59128582Y-58229758D01*
X59134357Y-58227691D01*
X59140307Y-58226201D01*
X59146374Y-58225301D01*
X59152500Y-58225000D01*
X59902500Y-58225000D01*
X59908626Y-58225301D01*
X59908626Y-58225301D01*
G37*
D11*
X59527500Y-58350000D03*
D10*
G36*
X59908626Y-57725301D02*
G01*
X59914693Y-57726201D01*
X59920643Y-57727691D01*
X59926418Y-57729758D01*
X59931962Y-57732380D01*
X59937223Y-57735533D01*
X59942150Y-57739187D01*
X59946694Y-57743306D01*
X59950813Y-57747850D01*
X59954467Y-57752777D01*
X59957620Y-57758038D01*
X59960242Y-57763582D01*
X59962309Y-57769357D01*
X59963799Y-57775307D01*
X59964699Y-57781374D01*
X59965000Y-57787500D01*
X59965000Y-57912500D01*
X59964699Y-57918626D01*
X59963799Y-57924693D01*
X59962309Y-57930643D01*
X59960242Y-57936418D01*
X59957620Y-57941962D01*
X59954467Y-57947223D01*
X59950813Y-57952150D01*
X59946694Y-57956694D01*
X59942150Y-57960813D01*
X59937223Y-57964467D01*
X59931962Y-57967620D01*
X59926418Y-57970242D01*
X59920643Y-57972309D01*
X59914693Y-57973799D01*
X59908626Y-57974699D01*
X59902500Y-57975000D01*
X59152500Y-57975000D01*
X59146374Y-57974699D01*
X59140307Y-57973799D01*
X59134357Y-57972309D01*
X59128582Y-57970242D01*
X59123038Y-57967620D01*
X59117777Y-57964467D01*
X59112850Y-57960813D01*
X59108306Y-57956694D01*
X59104187Y-57952150D01*
X59100533Y-57947223D01*
X59097380Y-57941962D01*
X59094758Y-57936418D01*
X59092691Y-57930643D01*
X59091201Y-57924693D01*
X59090301Y-57918626D01*
X59090000Y-57912500D01*
X59090000Y-57787500D01*
X59090301Y-57781374D01*
X59091201Y-57775307D01*
X59092691Y-57769357D01*
X59094758Y-57763582D01*
X59097380Y-57758038D01*
X59100533Y-57752777D01*
X59104187Y-57747850D01*
X59108306Y-57743306D01*
X59112850Y-57739187D01*
X59117777Y-57735533D01*
X59123038Y-57732380D01*
X59128582Y-57729758D01*
X59134357Y-57727691D01*
X59140307Y-57726201D01*
X59146374Y-57725301D01*
X59152500Y-57725000D01*
X59902500Y-57725000D01*
X59908626Y-57725301D01*
X59908626Y-57725301D01*
G37*
D11*
X59527500Y-57850000D03*
D10*
G36*
X59908626Y-57225301D02*
G01*
X59914693Y-57226201D01*
X59920643Y-57227691D01*
X59926418Y-57229758D01*
X59931962Y-57232380D01*
X59937223Y-57235533D01*
X59942150Y-57239187D01*
X59946694Y-57243306D01*
X59950813Y-57247850D01*
X59954467Y-57252777D01*
X59957620Y-57258038D01*
X59960242Y-57263582D01*
X59962309Y-57269357D01*
X59963799Y-57275307D01*
X59964699Y-57281374D01*
X59965000Y-57287500D01*
X59965000Y-57412500D01*
X59964699Y-57418626D01*
X59963799Y-57424693D01*
X59962309Y-57430643D01*
X59960242Y-57436418D01*
X59957620Y-57441962D01*
X59954467Y-57447223D01*
X59950813Y-57452150D01*
X59946694Y-57456694D01*
X59942150Y-57460813D01*
X59937223Y-57464467D01*
X59931962Y-57467620D01*
X59926418Y-57470242D01*
X59920643Y-57472309D01*
X59914693Y-57473799D01*
X59908626Y-57474699D01*
X59902500Y-57475000D01*
X59152500Y-57475000D01*
X59146374Y-57474699D01*
X59140307Y-57473799D01*
X59134357Y-57472309D01*
X59128582Y-57470242D01*
X59123038Y-57467620D01*
X59117777Y-57464467D01*
X59112850Y-57460813D01*
X59108306Y-57456694D01*
X59104187Y-57452150D01*
X59100533Y-57447223D01*
X59097380Y-57441962D01*
X59094758Y-57436418D01*
X59092691Y-57430643D01*
X59091201Y-57424693D01*
X59090301Y-57418626D01*
X59090000Y-57412500D01*
X59090000Y-57287500D01*
X59090301Y-57281374D01*
X59091201Y-57275307D01*
X59092691Y-57269357D01*
X59094758Y-57263582D01*
X59097380Y-57258038D01*
X59100533Y-57252777D01*
X59104187Y-57247850D01*
X59108306Y-57243306D01*
X59112850Y-57239187D01*
X59117777Y-57235533D01*
X59123038Y-57232380D01*
X59128582Y-57229758D01*
X59134357Y-57227691D01*
X59140307Y-57226201D01*
X59146374Y-57225301D01*
X59152500Y-57225000D01*
X59902500Y-57225000D01*
X59908626Y-57225301D01*
X59908626Y-57225301D01*
G37*
D11*
X59527500Y-57350000D03*
D10*
G36*
X59908626Y-56725301D02*
G01*
X59914693Y-56726201D01*
X59920643Y-56727691D01*
X59926418Y-56729758D01*
X59931962Y-56732380D01*
X59937223Y-56735533D01*
X59942150Y-56739187D01*
X59946694Y-56743306D01*
X59950813Y-56747850D01*
X59954467Y-56752777D01*
X59957620Y-56758038D01*
X59960242Y-56763582D01*
X59962309Y-56769357D01*
X59963799Y-56775307D01*
X59964699Y-56781374D01*
X59965000Y-56787500D01*
X59965000Y-56912500D01*
X59964699Y-56918626D01*
X59963799Y-56924693D01*
X59962309Y-56930643D01*
X59960242Y-56936418D01*
X59957620Y-56941962D01*
X59954467Y-56947223D01*
X59950813Y-56952150D01*
X59946694Y-56956694D01*
X59942150Y-56960813D01*
X59937223Y-56964467D01*
X59931962Y-56967620D01*
X59926418Y-56970242D01*
X59920643Y-56972309D01*
X59914693Y-56973799D01*
X59908626Y-56974699D01*
X59902500Y-56975000D01*
X59152500Y-56975000D01*
X59146374Y-56974699D01*
X59140307Y-56973799D01*
X59134357Y-56972309D01*
X59128582Y-56970242D01*
X59123038Y-56967620D01*
X59117777Y-56964467D01*
X59112850Y-56960813D01*
X59108306Y-56956694D01*
X59104187Y-56952150D01*
X59100533Y-56947223D01*
X59097380Y-56941962D01*
X59094758Y-56936418D01*
X59092691Y-56930643D01*
X59091201Y-56924693D01*
X59090301Y-56918626D01*
X59090000Y-56912500D01*
X59090000Y-56787500D01*
X59090301Y-56781374D01*
X59091201Y-56775307D01*
X59092691Y-56769357D01*
X59094758Y-56763582D01*
X59097380Y-56758038D01*
X59100533Y-56752777D01*
X59104187Y-56747850D01*
X59108306Y-56743306D01*
X59112850Y-56739187D01*
X59117777Y-56735533D01*
X59123038Y-56732380D01*
X59128582Y-56729758D01*
X59134357Y-56727691D01*
X59140307Y-56726201D01*
X59146374Y-56725301D01*
X59152500Y-56725000D01*
X59902500Y-56725000D01*
X59908626Y-56725301D01*
X59908626Y-56725301D01*
G37*
D11*
X59527500Y-56850000D03*
D10*
G36*
X59908626Y-56225301D02*
G01*
X59914693Y-56226201D01*
X59920643Y-56227691D01*
X59926418Y-56229758D01*
X59931962Y-56232380D01*
X59937223Y-56235533D01*
X59942150Y-56239187D01*
X59946694Y-56243306D01*
X59950813Y-56247850D01*
X59954467Y-56252777D01*
X59957620Y-56258038D01*
X59960242Y-56263582D01*
X59962309Y-56269357D01*
X59963799Y-56275307D01*
X59964699Y-56281374D01*
X59965000Y-56287500D01*
X59965000Y-56412500D01*
X59964699Y-56418626D01*
X59963799Y-56424693D01*
X59962309Y-56430643D01*
X59960242Y-56436418D01*
X59957620Y-56441962D01*
X59954467Y-56447223D01*
X59950813Y-56452150D01*
X59946694Y-56456694D01*
X59942150Y-56460813D01*
X59937223Y-56464467D01*
X59931962Y-56467620D01*
X59926418Y-56470242D01*
X59920643Y-56472309D01*
X59914693Y-56473799D01*
X59908626Y-56474699D01*
X59902500Y-56475000D01*
X59152500Y-56475000D01*
X59146374Y-56474699D01*
X59140307Y-56473799D01*
X59134357Y-56472309D01*
X59128582Y-56470242D01*
X59123038Y-56467620D01*
X59117777Y-56464467D01*
X59112850Y-56460813D01*
X59108306Y-56456694D01*
X59104187Y-56452150D01*
X59100533Y-56447223D01*
X59097380Y-56441962D01*
X59094758Y-56436418D01*
X59092691Y-56430643D01*
X59091201Y-56424693D01*
X59090301Y-56418626D01*
X59090000Y-56412500D01*
X59090000Y-56287500D01*
X59090301Y-56281374D01*
X59091201Y-56275307D01*
X59092691Y-56269357D01*
X59094758Y-56263582D01*
X59097380Y-56258038D01*
X59100533Y-56252777D01*
X59104187Y-56247850D01*
X59108306Y-56243306D01*
X59112850Y-56239187D01*
X59117777Y-56235533D01*
X59123038Y-56232380D01*
X59128582Y-56229758D01*
X59134357Y-56227691D01*
X59140307Y-56226201D01*
X59146374Y-56225301D01*
X59152500Y-56225000D01*
X59902500Y-56225000D01*
X59908626Y-56225301D01*
X59908626Y-56225301D01*
G37*
D11*
X59527500Y-56350000D03*
D10*
G36*
X59908626Y-55725301D02*
G01*
X59914693Y-55726201D01*
X59920643Y-55727691D01*
X59926418Y-55729758D01*
X59931962Y-55732380D01*
X59937223Y-55735533D01*
X59942150Y-55739187D01*
X59946694Y-55743306D01*
X59950813Y-55747850D01*
X59954467Y-55752777D01*
X59957620Y-55758038D01*
X59960242Y-55763582D01*
X59962309Y-55769357D01*
X59963799Y-55775307D01*
X59964699Y-55781374D01*
X59965000Y-55787500D01*
X59965000Y-55912500D01*
X59964699Y-55918626D01*
X59963799Y-55924693D01*
X59962309Y-55930643D01*
X59960242Y-55936418D01*
X59957620Y-55941962D01*
X59954467Y-55947223D01*
X59950813Y-55952150D01*
X59946694Y-55956694D01*
X59942150Y-55960813D01*
X59937223Y-55964467D01*
X59931962Y-55967620D01*
X59926418Y-55970242D01*
X59920643Y-55972309D01*
X59914693Y-55973799D01*
X59908626Y-55974699D01*
X59902500Y-55975000D01*
X59152500Y-55975000D01*
X59146374Y-55974699D01*
X59140307Y-55973799D01*
X59134357Y-55972309D01*
X59128582Y-55970242D01*
X59123038Y-55967620D01*
X59117777Y-55964467D01*
X59112850Y-55960813D01*
X59108306Y-55956694D01*
X59104187Y-55952150D01*
X59100533Y-55947223D01*
X59097380Y-55941962D01*
X59094758Y-55936418D01*
X59092691Y-55930643D01*
X59091201Y-55924693D01*
X59090301Y-55918626D01*
X59090000Y-55912500D01*
X59090000Y-55787500D01*
X59090301Y-55781374D01*
X59091201Y-55775307D01*
X59092691Y-55769357D01*
X59094758Y-55763582D01*
X59097380Y-55758038D01*
X59100533Y-55752777D01*
X59104187Y-55747850D01*
X59108306Y-55743306D01*
X59112850Y-55739187D01*
X59117777Y-55735533D01*
X59123038Y-55732380D01*
X59128582Y-55729758D01*
X59134357Y-55727691D01*
X59140307Y-55726201D01*
X59146374Y-55725301D01*
X59152500Y-55725000D01*
X59902500Y-55725000D01*
X59908626Y-55725301D01*
X59908626Y-55725301D01*
G37*
D11*
X59527500Y-55850000D03*
D10*
G36*
X59908626Y-55225301D02*
G01*
X59914693Y-55226201D01*
X59920643Y-55227691D01*
X59926418Y-55229758D01*
X59931962Y-55232380D01*
X59937223Y-55235533D01*
X59942150Y-55239187D01*
X59946694Y-55243306D01*
X59950813Y-55247850D01*
X59954467Y-55252777D01*
X59957620Y-55258038D01*
X59960242Y-55263582D01*
X59962309Y-55269357D01*
X59963799Y-55275307D01*
X59964699Y-55281374D01*
X59965000Y-55287500D01*
X59965000Y-55412500D01*
X59964699Y-55418626D01*
X59963799Y-55424693D01*
X59962309Y-55430643D01*
X59960242Y-55436418D01*
X59957620Y-55441962D01*
X59954467Y-55447223D01*
X59950813Y-55452150D01*
X59946694Y-55456694D01*
X59942150Y-55460813D01*
X59937223Y-55464467D01*
X59931962Y-55467620D01*
X59926418Y-55470242D01*
X59920643Y-55472309D01*
X59914693Y-55473799D01*
X59908626Y-55474699D01*
X59902500Y-55475000D01*
X59152500Y-55475000D01*
X59146374Y-55474699D01*
X59140307Y-55473799D01*
X59134357Y-55472309D01*
X59128582Y-55470242D01*
X59123038Y-55467620D01*
X59117777Y-55464467D01*
X59112850Y-55460813D01*
X59108306Y-55456694D01*
X59104187Y-55452150D01*
X59100533Y-55447223D01*
X59097380Y-55441962D01*
X59094758Y-55436418D01*
X59092691Y-55430643D01*
X59091201Y-55424693D01*
X59090301Y-55418626D01*
X59090000Y-55412500D01*
X59090000Y-55287500D01*
X59090301Y-55281374D01*
X59091201Y-55275307D01*
X59092691Y-55269357D01*
X59094758Y-55263582D01*
X59097380Y-55258038D01*
X59100533Y-55252777D01*
X59104187Y-55247850D01*
X59108306Y-55243306D01*
X59112850Y-55239187D01*
X59117777Y-55235533D01*
X59123038Y-55232380D01*
X59128582Y-55229758D01*
X59134357Y-55227691D01*
X59140307Y-55226201D01*
X59146374Y-55225301D01*
X59152500Y-55225000D01*
X59902500Y-55225000D01*
X59908626Y-55225301D01*
X59908626Y-55225301D01*
G37*
D11*
X59527500Y-55350000D03*
D10*
G36*
X59908626Y-54725301D02*
G01*
X59914693Y-54726201D01*
X59920643Y-54727691D01*
X59926418Y-54729758D01*
X59931962Y-54732380D01*
X59937223Y-54735533D01*
X59942150Y-54739187D01*
X59946694Y-54743306D01*
X59950813Y-54747850D01*
X59954467Y-54752777D01*
X59957620Y-54758038D01*
X59960242Y-54763582D01*
X59962309Y-54769357D01*
X59963799Y-54775307D01*
X59964699Y-54781374D01*
X59965000Y-54787500D01*
X59965000Y-54912500D01*
X59964699Y-54918626D01*
X59963799Y-54924693D01*
X59962309Y-54930643D01*
X59960242Y-54936418D01*
X59957620Y-54941962D01*
X59954467Y-54947223D01*
X59950813Y-54952150D01*
X59946694Y-54956694D01*
X59942150Y-54960813D01*
X59937223Y-54964467D01*
X59931962Y-54967620D01*
X59926418Y-54970242D01*
X59920643Y-54972309D01*
X59914693Y-54973799D01*
X59908626Y-54974699D01*
X59902500Y-54975000D01*
X59152500Y-54975000D01*
X59146374Y-54974699D01*
X59140307Y-54973799D01*
X59134357Y-54972309D01*
X59128582Y-54970242D01*
X59123038Y-54967620D01*
X59117777Y-54964467D01*
X59112850Y-54960813D01*
X59108306Y-54956694D01*
X59104187Y-54952150D01*
X59100533Y-54947223D01*
X59097380Y-54941962D01*
X59094758Y-54936418D01*
X59092691Y-54930643D01*
X59091201Y-54924693D01*
X59090301Y-54918626D01*
X59090000Y-54912500D01*
X59090000Y-54787500D01*
X59090301Y-54781374D01*
X59091201Y-54775307D01*
X59092691Y-54769357D01*
X59094758Y-54763582D01*
X59097380Y-54758038D01*
X59100533Y-54752777D01*
X59104187Y-54747850D01*
X59108306Y-54743306D01*
X59112850Y-54739187D01*
X59117777Y-54735533D01*
X59123038Y-54732380D01*
X59128582Y-54729758D01*
X59134357Y-54727691D01*
X59140307Y-54726201D01*
X59146374Y-54725301D01*
X59152500Y-54725000D01*
X59902500Y-54725000D01*
X59908626Y-54725301D01*
X59908626Y-54725301D01*
G37*
D11*
X59527500Y-54850000D03*
D10*
G36*
X59908626Y-54225301D02*
G01*
X59914693Y-54226201D01*
X59920643Y-54227691D01*
X59926418Y-54229758D01*
X59931962Y-54232380D01*
X59937223Y-54235533D01*
X59942150Y-54239187D01*
X59946694Y-54243306D01*
X59950813Y-54247850D01*
X59954467Y-54252777D01*
X59957620Y-54258038D01*
X59960242Y-54263582D01*
X59962309Y-54269357D01*
X59963799Y-54275307D01*
X59964699Y-54281374D01*
X59965000Y-54287500D01*
X59965000Y-54412500D01*
X59964699Y-54418626D01*
X59963799Y-54424693D01*
X59962309Y-54430643D01*
X59960242Y-54436418D01*
X59957620Y-54441962D01*
X59954467Y-54447223D01*
X59950813Y-54452150D01*
X59946694Y-54456694D01*
X59942150Y-54460813D01*
X59937223Y-54464467D01*
X59931962Y-54467620D01*
X59926418Y-54470242D01*
X59920643Y-54472309D01*
X59914693Y-54473799D01*
X59908626Y-54474699D01*
X59902500Y-54475000D01*
X59152500Y-54475000D01*
X59146374Y-54474699D01*
X59140307Y-54473799D01*
X59134357Y-54472309D01*
X59128582Y-54470242D01*
X59123038Y-54467620D01*
X59117777Y-54464467D01*
X59112850Y-54460813D01*
X59108306Y-54456694D01*
X59104187Y-54452150D01*
X59100533Y-54447223D01*
X59097380Y-54441962D01*
X59094758Y-54436418D01*
X59092691Y-54430643D01*
X59091201Y-54424693D01*
X59090301Y-54418626D01*
X59090000Y-54412500D01*
X59090000Y-54287500D01*
X59090301Y-54281374D01*
X59091201Y-54275307D01*
X59092691Y-54269357D01*
X59094758Y-54263582D01*
X59097380Y-54258038D01*
X59100533Y-54252777D01*
X59104187Y-54247850D01*
X59108306Y-54243306D01*
X59112850Y-54239187D01*
X59117777Y-54235533D01*
X59123038Y-54232380D01*
X59128582Y-54229758D01*
X59134357Y-54227691D01*
X59140307Y-54226201D01*
X59146374Y-54225301D01*
X59152500Y-54225000D01*
X59902500Y-54225000D01*
X59908626Y-54225301D01*
X59908626Y-54225301D01*
G37*
D11*
X59527500Y-54350000D03*
D10*
G36*
X59908626Y-53725301D02*
G01*
X59914693Y-53726201D01*
X59920643Y-53727691D01*
X59926418Y-53729758D01*
X59931962Y-53732380D01*
X59937223Y-53735533D01*
X59942150Y-53739187D01*
X59946694Y-53743306D01*
X59950813Y-53747850D01*
X59954467Y-53752777D01*
X59957620Y-53758038D01*
X59960242Y-53763582D01*
X59962309Y-53769357D01*
X59963799Y-53775307D01*
X59964699Y-53781374D01*
X59965000Y-53787500D01*
X59965000Y-53912500D01*
X59964699Y-53918626D01*
X59963799Y-53924693D01*
X59962309Y-53930643D01*
X59960242Y-53936418D01*
X59957620Y-53941962D01*
X59954467Y-53947223D01*
X59950813Y-53952150D01*
X59946694Y-53956694D01*
X59942150Y-53960813D01*
X59937223Y-53964467D01*
X59931962Y-53967620D01*
X59926418Y-53970242D01*
X59920643Y-53972309D01*
X59914693Y-53973799D01*
X59908626Y-53974699D01*
X59902500Y-53975000D01*
X59152500Y-53975000D01*
X59146374Y-53974699D01*
X59140307Y-53973799D01*
X59134357Y-53972309D01*
X59128582Y-53970242D01*
X59123038Y-53967620D01*
X59117777Y-53964467D01*
X59112850Y-53960813D01*
X59108306Y-53956694D01*
X59104187Y-53952150D01*
X59100533Y-53947223D01*
X59097380Y-53941962D01*
X59094758Y-53936418D01*
X59092691Y-53930643D01*
X59091201Y-53924693D01*
X59090301Y-53918626D01*
X59090000Y-53912500D01*
X59090000Y-53787500D01*
X59090301Y-53781374D01*
X59091201Y-53775307D01*
X59092691Y-53769357D01*
X59094758Y-53763582D01*
X59097380Y-53758038D01*
X59100533Y-53752777D01*
X59104187Y-53747850D01*
X59108306Y-53743306D01*
X59112850Y-53739187D01*
X59117777Y-53735533D01*
X59123038Y-53732380D01*
X59128582Y-53729758D01*
X59134357Y-53727691D01*
X59140307Y-53726201D01*
X59146374Y-53725301D01*
X59152500Y-53725000D01*
X59902500Y-53725000D01*
X59908626Y-53725301D01*
X59908626Y-53725301D01*
G37*
D11*
X59527500Y-53850000D03*
D10*
G36*
X59908626Y-53225301D02*
G01*
X59914693Y-53226201D01*
X59920643Y-53227691D01*
X59926418Y-53229758D01*
X59931962Y-53232380D01*
X59937223Y-53235533D01*
X59942150Y-53239187D01*
X59946694Y-53243306D01*
X59950813Y-53247850D01*
X59954467Y-53252777D01*
X59957620Y-53258038D01*
X59960242Y-53263582D01*
X59962309Y-53269357D01*
X59963799Y-53275307D01*
X59964699Y-53281374D01*
X59965000Y-53287500D01*
X59965000Y-53412500D01*
X59964699Y-53418626D01*
X59963799Y-53424693D01*
X59962309Y-53430643D01*
X59960242Y-53436418D01*
X59957620Y-53441962D01*
X59954467Y-53447223D01*
X59950813Y-53452150D01*
X59946694Y-53456694D01*
X59942150Y-53460813D01*
X59937223Y-53464467D01*
X59931962Y-53467620D01*
X59926418Y-53470242D01*
X59920643Y-53472309D01*
X59914693Y-53473799D01*
X59908626Y-53474699D01*
X59902500Y-53475000D01*
X59152500Y-53475000D01*
X59146374Y-53474699D01*
X59140307Y-53473799D01*
X59134357Y-53472309D01*
X59128582Y-53470242D01*
X59123038Y-53467620D01*
X59117777Y-53464467D01*
X59112850Y-53460813D01*
X59108306Y-53456694D01*
X59104187Y-53452150D01*
X59100533Y-53447223D01*
X59097380Y-53441962D01*
X59094758Y-53436418D01*
X59092691Y-53430643D01*
X59091201Y-53424693D01*
X59090301Y-53418626D01*
X59090000Y-53412500D01*
X59090000Y-53287500D01*
X59090301Y-53281374D01*
X59091201Y-53275307D01*
X59092691Y-53269357D01*
X59094758Y-53263582D01*
X59097380Y-53258038D01*
X59100533Y-53252777D01*
X59104187Y-53247850D01*
X59108306Y-53243306D01*
X59112850Y-53239187D01*
X59117777Y-53235533D01*
X59123038Y-53232380D01*
X59128582Y-53229758D01*
X59134357Y-53227691D01*
X59140307Y-53226201D01*
X59146374Y-53225301D01*
X59152500Y-53225000D01*
X59902500Y-53225000D01*
X59908626Y-53225301D01*
X59908626Y-53225301D01*
G37*
D11*
X59527500Y-53350000D03*
D10*
G36*
X59908626Y-52725301D02*
G01*
X59914693Y-52726201D01*
X59920643Y-52727691D01*
X59926418Y-52729758D01*
X59931962Y-52732380D01*
X59937223Y-52735533D01*
X59942150Y-52739187D01*
X59946694Y-52743306D01*
X59950813Y-52747850D01*
X59954467Y-52752777D01*
X59957620Y-52758038D01*
X59960242Y-52763582D01*
X59962309Y-52769357D01*
X59963799Y-52775307D01*
X59964699Y-52781374D01*
X59965000Y-52787500D01*
X59965000Y-52912500D01*
X59964699Y-52918626D01*
X59963799Y-52924693D01*
X59962309Y-52930643D01*
X59960242Y-52936418D01*
X59957620Y-52941962D01*
X59954467Y-52947223D01*
X59950813Y-52952150D01*
X59946694Y-52956694D01*
X59942150Y-52960813D01*
X59937223Y-52964467D01*
X59931962Y-52967620D01*
X59926418Y-52970242D01*
X59920643Y-52972309D01*
X59914693Y-52973799D01*
X59908626Y-52974699D01*
X59902500Y-52975000D01*
X59152500Y-52975000D01*
X59146374Y-52974699D01*
X59140307Y-52973799D01*
X59134357Y-52972309D01*
X59128582Y-52970242D01*
X59123038Y-52967620D01*
X59117777Y-52964467D01*
X59112850Y-52960813D01*
X59108306Y-52956694D01*
X59104187Y-52952150D01*
X59100533Y-52947223D01*
X59097380Y-52941962D01*
X59094758Y-52936418D01*
X59092691Y-52930643D01*
X59091201Y-52924693D01*
X59090301Y-52918626D01*
X59090000Y-52912500D01*
X59090000Y-52787500D01*
X59090301Y-52781374D01*
X59091201Y-52775307D01*
X59092691Y-52769357D01*
X59094758Y-52763582D01*
X59097380Y-52758038D01*
X59100533Y-52752777D01*
X59104187Y-52747850D01*
X59108306Y-52743306D01*
X59112850Y-52739187D01*
X59117777Y-52735533D01*
X59123038Y-52732380D01*
X59128582Y-52729758D01*
X59134357Y-52727691D01*
X59140307Y-52726201D01*
X59146374Y-52725301D01*
X59152500Y-52725000D01*
X59902500Y-52725000D01*
X59908626Y-52725301D01*
X59908626Y-52725301D01*
G37*
D11*
X59527500Y-52850000D03*
D10*
G36*
X58908626Y-51725301D02*
G01*
X58914693Y-51726201D01*
X58920643Y-51727691D01*
X58926418Y-51729758D01*
X58931962Y-51732380D01*
X58937223Y-51735533D01*
X58942150Y-51739187D01*
X58946694Y-51743306D01*
X58950813Y-51747850D01*
X58954467Y-51752777D01*
X58957620Y-51758038D01*
X58960242Y-51763582D01*
X58962309Y-51769357D01*
X58963799Y-51775307D01*
X58964699Y-51781374D01*
X58965000Y-51787500D01*
X58965000Y-52537500D01*
X58964699Y-52543626D01*
X58963799Y-52549693D01*
X58962309Y-52555643D01*
X58960242Y-52561418D01*
X58957620Y-52566962D01*
X58954467Y-52572223D01*
X58950813Y-52577150D01*
X58946694Y-52581694D01*
X58942150Y-52585813D01*
X58937223Y-52589467D01*
X58931962Y-52592620D01*
X58926418Y-52595242D01*
X58920643Y-52597309D01*
X58914693Y-52598799D01*
X58908626Y-52599699D01*
X58902500Y-52600000D01*
X58777500Y-52600000D01*
X58771374Y-52599699D01*
X58765307Y-52598799D01*
X58759357Y-52597309D01*
X58753582Y-52595242D01*
X58748038Y-52592620D01*
X58742777Y-52589467D01*
X58737850Y-52585813D01*
X58733306Y-52581694D01*
X58729187Y-52577150D01*
X58725533Y-52572223D01*
X58722380Y-52566962D01*
X58719758Y-52561418D01*
X58717691Y-52555643D01*
X58716201Y-52549693D01*
X58715301Y-52543626D01*
X58715000Y-52537500D01*
X58715000Y-51787500D01*
X58715301Y-51781374D01*
X58716201Y-51775307D01*
X58717691Y-51769357D01*
X58719758Y-51763582D01*
X58722380Y-51758038D01*
X58725533Y-51752777D01*
X58729187Y-51747850D01*
X58733306Y-51743306D01*
X58737850Y-51739187D01*
X58742777Y-51735533D01*
X58748038Y-51732380D01*
X58753582Y-51729758D01*
X58759357Y-51727691D01*
X58765307Y-51726201D01*
X58771374Y-51725301D01*
X58777500Y-51725000D01*
X58902500Y-51725000D01*
X58908626Y-51725301D01*
X58908626Y-51725301D01*
G37*
D11*
X58840000Y-52162500D03*
D10*
G36*
X58408626Y-51725301D02*
G01*
X58414693Y-51726201D01*
X58420643Y-51727691D01*
X58426418Y-51729758D01*
X58431962Y-51732380D01*
X58437223Y-51735533D01*
X58442150Y-51739187D01*
X58446694Y-51743306D01*
X58450813Y-51747850D01*
X58454467Y-51752777D01*
X58457620Y-51758038D01*
X58460242Y-51763582D01*
X58462309Y-51769357D01*
X58463799Y-51775307D01*
X58464699Y-51781374D01*
X58465000Y-51787500D01*
X58465000Y-52537500D01*
X58464699Y-52543626D01*
X58463799Y-52549693D01*
X58462309Y-52555643D01*
X58460242Y-52561418D01*
X58457620Y-52566962D01*
X58454467Y-52572223D01*
X58450813Y-52577150D01*
X58446694Y-52581694D01*
X58442150Y-52585813D01*
X58437223Y-52589467D01*
X58431962Y-52592620D01*
X58426418Y-52595242D01*
X58420643Y-52597309D01*
X58414693Y-52598799D01*
X58408626Y-52599699D01*
X58402500Y-52600000D01*
X58277500Y-52600000D01*
X58271374Y-52599699D01*
X58265307Y-52598799D01*
X58259357Y-52597309D01*
X58253582Y-52595242D01*
X58248038Y-52592620D01*
X58242777Y-52589467D01*
X58237850Y-52585813D01*
X58233306Y-52581694D01*
X58229187Y-52577150D01*
X58225533Y-52572223D01*
X58222380Y-52566962D01*
X58219758Y-52561418D01*
X58217691Y-52555643D01*
X58216201Y-52549693D01*
X58215301Y-52543626D01*
X58215000Y-52537500D01*
X58215000Y-51787500D01*
X58215301Y-51781374D01*
X58216201Y-51775307D01*
X58217691Y-51769357D01*
X58219758Y-51763582D01*
X58222380Y-51758038D01*
X58225533Y-51752777D01*
X58229187Y-51747850D01*
X58233306Y-51743306D01*
X58237850Y-51739187D01*
X58242777Y-51735533D01*
X58248038Y-51732380D01*
X58253582Y-51729758D01*
X58259357Y-51727691D01*
X58265307Y-51726201D01*
X58271374Y-51725301D01*
X58277500Y-51725000D01*
X58402500Y-51725000D01*
X58408626Y-51725301D01*
X58408626Y-51725301D01*
G37*
D11*
X58340000Y-52162500D03*
D10*
G36*
X57908626Y-51725301D02*
G01*
X57914693Y-51726201D01*
X57920643Y-51727691D01*
X57926418Y-51729758D01*
X57931962Y-51732380D01*
X57937223Y-51735533D01*
X57942150Y-51739187D01*
X57946694Y-51743306D01*
X57950813Y-51747850D01*
X57954467Y-51752777D01*
X57957620Y-51758038D01*
X57960242Y-51763582D01*
X57962309Y-51769357D01*
X57963799Y-51775307D01*
X57964699Y-51781374D01*
X57965000Y-51787500D01*
X57965000Y-52537500D01*
X57964699Y-52543626D01*
X57963799Y-52549693D01*
X57962309Y-52555643D01*
X57960242Y-52561418D01*
X57957620Y-52566962D01*
X57954467Y-52572223D01*
X57950813Y-52577150D01*
X57946694Y-52581694D01*
X57942150Y-52585813D01*
X57937223Y-52589467D01*
X57931962Y-52592620D01*
X57926418Y-52595242D01*
X57920643Y-52597309D01*
X57914693Y-52598799D01*
X57908626Y-52599699D01*
X57902500Y-52600000D01*
X57777500Y-52600000D01*
X57771374Y-52599699D01*
X57765307Y-52598799D01*
X57759357Y-52597309D01*
X57753582Y-52595242D01*
X57748038Y-52592620D01*
X57742777Y-52589467D01*
X57737850Y-52585813D01*
X57733306Y-52581694D01*
X57729187Y-52577150D01*
X57725533Y-52572223D01*
X57722380Y-52566962D01*
X57719758Y-52561418D01*
X57717691Y-52555643D01*
X57716201Y-52549693D01*
X57715301Y-52543626D01*
X57715000Y-52537500D01*
X57715000Y-51787500D01*
X57715301Y-51781374D01*
X57716201Y-51775307D01*
X57717691Y-51769357D01*
X57719758Y-51763582D01*
X57722380Y-51758038D01*
X57725533Y-51752777D01*
X57729187Y-51747850D01*
X57733306Y-51743306D01*
X57737850Y-51739187D01*
X57742777Y-51735533D01*
X57748038Y-51732380D01*
X57753582Y-51729758D01*
X57759357Y-51727691D01*
X57765307Y-51726201D01*
X57771374Y-51725301D01*
X57777500Y-51725000D01*
X57902500Y-51725000D01*
X57908626Y-51725301D01*
X57908626Y-51725301D01*
G37*
D11*
X57840000Y-52162500D03*
D10*
G36*
X57408626Y-51725301D02*
G01*
X57414693Y-51726201D01*
X57420643Y-51727691D01*
X57426418Y-51729758D01*
X57431962Y-51732380D01*
X57437223Y-51735533D01*
X57442150Y-51739187D01*
X57446694Y-51743306D01*
X57450813Y-51747850D01*
X57454467Y-51752777D01*
X57457620Y-51758038D01*
X57460242Y-51763582D01*
X57462309Y-51769357D01*
X57463799Y-51775307D01*
X57464699Y-51781374D01*
X57465000Y-51787500D01*
X57465000Y-52537500D01*
X57464699Y-52543626D01*
X57463799Y-52549693D01*
X57462309Y-52555643D01*
X57460242Y-52561418D01*
X57457620Y-52566962D01*
X57454467Y-52572223D01*
X57450813Y-52577150D01*
X57446694Y-52581694D01*
X57442150Y-52585813D01*
X57437223Y-52589467D01*
X57431962Y-52592620D01*
X57426418Y-52595242D01*
X57420643Y-52597309D01*
X57414693Y-52598799D01*
X57408626Y-52599699D01*
X57402500Y-52600000D01*
X57277500Y-52600000D01*
X57271374Y-52599699D01*
X57265307Y-52598799D01*
X57259357Y-52597309D01*
X57253582Y-52595242D01*
X57248038Y-52592620D01*
X57242777Y-52589467D01*
X57237850Y-52585813D01*
X57233306Y-52581694D01*
X57229187Y-52577150D01*
X57225533Y-52572223D01*
X57222380Y-52566962D01*
X57219758Y-52561418D01*
X57217691Y-52555643D01*
X57216201Y-52549693D01*
X57215301Y-52543626D01*
X57215000Y-52537500D01*
X57215000Y-51787500D01*
X57215301Y-51781374D01*
X57216201Y-51775307D01*
X57217691Y-51769357D01*
X57219758Y-51763582D01*
X57222380Y-51758038D01*
X57225533Y-51752777D01*
X57229187Y-51747850D01*
X57233306Y-51743306D01*
X57237850Y-51739187D01*
X57242777Y-51735533D01*
X57248038Y-51732380D01*
X57253582Y-51729758D01*
X57259357Y-51727691D01*
X57265307Y-51726201D01*
X57271374Y-51725301D01*
X57277500Y-51725000D01*
X57402500Y-51725000D01*
X57408626Y-51725301D01*
X57408626Y-51725301D01*
G37*
D11*
X57340000Y-52162500D03*
D10*
G36*
X56908626Y-51725301D02*
G01*
X56914693Y-51726201D01*
X56920643Y-51727691D01*
X56926418Y-51729758D01*
X56931962Y-51732380D01*
X56937223Y-51735533D01*
X56942150Y-51739187D01*
X56946694Y-51743306D01*
X56950813Y-51747850D01*
X56954467Y-51752777D01*
X56957620Y-51758038D01*
X56960242Y-51763582D01*
X56962309Y-51769357D01*
X56963799Y-51775307D01*
X56964699Y-51781374D01*
X56965000Y-51787500D01*
X56965000Y-52537500D01*
X56964699Y-52543626D01*
X56963799Y-52549693D01*
X56962309Y-52555643D01*
X56960242Y-52561418D01*
X56957620Y-52566962D01*
X56954467Y-52572223D01*
X56950813Y-52577150D01*
X56946694Y-52581694D01*
X56942150Y-52585813D01*
X56937223Y-52589467D01*
X56931962Y-52592620D01*
X56926418Y-52595242D01*
X56920643Y-52597309D01*
X56914693Y-52598799D01*
X56908626Y-52599699D01*
X56902500Y-52600000D01*
X56777500Y-52600000D01*
X56771374Y-52599699D01*
X56765307Y-52598799D01*
X56759357Y-52597309D01*
X56753582Y-52595242D01*
X56748038Y-52592620D01*
X56742777Y-52589467D01*
X56737850Y-52585813D01*
X56733306Y-52581694D01*
X56729187Y-52577150D01*
X56725533Y-52572223D01*
X56722380Y-52566962D01*
X56719758Y-52561418D01*
X56717691Y-52555643D01*
X56716201Y-52549693D01*
X56715301Y-52543626D01*
X56715000Y-52537500D01*
X56715000Y-51787500D01*
X56715301Y-51781374D01*
X56716201Y-51775307D01*
X56717691Y-51769357D01*
X56719758Y-51763582D01*
X56722380Y-51758038D01*
X56725533Y-51752777D01*
X56729187Y-51747850D01*
X56733306Y-51743306D01*
X56737850Y-51739187D01*
X56742777Y-51735533D01*
X56748038Y-51732380D01*
X56753582Y-51729758D01*
X56759357Y-51727691D01*
X56765307Y-51726201D01*
X56771374Y-51725301D01*
X56777500Y-51725000D01*
X56902500Y-51725000D01*
X56908626Y-51725301D01*
X56908626Y-51725301D01*
G37*
D11*
X56840000Y-52162500D03*
D10*
G36*
X56408626Y-51725301D02*
G01*
X56414693Y-51726201D01*
X56420643Y-51727691D01*
X56426418Y-51729758D01*
X56431962Y-51732380D01*
X56437223Y-51735533D01*
X56442150Y-51739187D01*
X56446694Y-51743306D01*
X56450813Y-51747850D01*
X56454467Y-51752777D01*
X56457620Y-51758038D01*
X56460242Y-51763582D01*
X56462309Y-51769357D01*
X56463799Y-51775307D01*
X56464699Y-51781374D01*
X56465000Y-51787500D01*
X56465000Y-52537500D01*
X56464699Y-52543626D01*
X56463799Y-52549693D01*
X56462309Y-52555643D01*
X56460242Y-52561418D01*
X56457620Y-52566962D01*
X56454467Y-52572223D01*
X56450813Y-52577150D01*
X56446694Y-52581694D01*
X56442150Y-52585813D01*
X56437223Y-52589467D01*
X56431962Y-52592620D01*
X56426418Y-52595242D01*
X56420643Y-52597309D01*
X56414693Y-52598799D01*
X56408626Y-52599699D01*
X56402500Y-52600000D01*
X56277500Y-52600000D01*
X56271374Y-52599699D01*
X56265307Y-52598799D01*
X56259357Y-52597309D01*
X56253582Y-52595242D01*
X56248038Y-52592620D01*
X56242777Y-52589467D01*
X56237850Y-52585813D01*
X56233306Y-52581694D01*
X56229187Y-52577150D01*
X56225533Y-52572223D01*
X56222380Y-52566962D01*
X56219758Y-52561418D01*
X56217691Y-52555643D01*
X56216201Y-52549693D01*
X56215301Y-52543626D01*
X56215000Y-52537500D01*
X56215000Y-51787500D01*
X56215301Y-51781374D01*
X56216201Y-51775307D01*
X56217691Y-51769357D01*
X56219758Y-51763582D01*
X56222380Y-51758038D01*
X56225533Y-51752777D01*
X56229187Y-51747850D01*
X56233306Y-51743306D01*
X56237850Y-51739187D01*
X56242777Y-51735533D01*
X56248038Y-51732380D01*
X56253582Y-51729758D01*
X56259357Y-51727691D01*
X56265307Y-51726201D01*
X56271374Y-51725301D01*
X56277500Y-51725000D01*
X56402500Y-51725000D01*
X56408626Y-51725301D01*
X56408626Y-51725301D01*
G37*
D11*
X56340000Y-52162500D03*
D10*
G36*
X55908626Y-51725301D02*
G01*
X55914693Y-51726201D01*
X55920643Y-51727691D01*
X55926418Y-51729758D01*
X55931962Y-51732380D01*
X55937223Y-51735533D01*
X55942150Y-51739187D01*
X55946694Y-51743306D01*
X55950813Y-51747850D01*
X55954467Y-51752777D01*
X55957620Y-51758038D01*
X55960242Y-51763582D01*
X55962309Y-51769357D01*
X55963799Y-51775307D01*
X55964699Y-51781374D01*
X55965000Y-51787500D01*
X55965000Y-52537500D01*
X55964699Y-52543626D01*
X55963799Y-52549693D01*
X55962309Y-52555643D01*
X55960242Y-52561418D01*
X55957620Y-52566962D01*
X55954467Y-52572223D01*
X55950813Y-52577150D01*
X55946694Y-52581694D01*
X55942150Y-52585813D01*
X55937223Y-52589467D01*
X55931962Y-52592620D01*
X55926418Y-52595242D01*
X55920643Y-52597309D01*
X55914693Y-52598799D01*
X55908626Y-52599699D01*
X55902500Y-52600000D01*
X55777500Y-52600000D01*
X55771374Y-52599699D01*
X55765307Y-52598799D01*
X55759357Y-52597309D01*
X55753582Y-52595242D01*
X55748038Y-52592620D01*
X55742777Y-52589467D01*
X55737850Y-52585813D01*
X55733306Y-52581694D01*
X55729187Y-52577150D01*
X55725533Y-52572223D01*
X55722380Y-52566962D01*
X55719758Y-52561418D01*
X55717691Y-52555643D01*
X55716201Y-52549693D01*
X55715301Y-52543626D01*
X55715000Y-52537500D01*
X55715000Y-51787500D01*
X55715301Y-51781374D01*
X55716201Y-51775307D01*
X55717691Y-51769357D01*
X55719758Y-51763582D01*
X55722380Y-51758038D01*
X55725533Y-51752777D01*
X55729187Y-51747850D01*
X55733306Y-51743306D01*
X55737850Y-51739187D01*
X55742777Y-51735533D01*
X55748038Y-51732380D01*
X55753582Y-51729758D01*
X55759357Y-51727691D01*
X55765307Y-51726201D01*
X55771374Y-51725301D01*
X55777500Y-51725000D01*
X55902500Y-51725000D01*
X55908626Y-51725301D01*
X55908626Y-51725301D01*
G37*
D11*
X55840000Y-52162500D03*
D10*
G36*
X55408626Y-51725301D02*
G01*
X55414693Y-51726201D01*
X55420643Y-51727691D01*
X55426418Y-51729758D01*
X55431962Y-51732380D01*
X55437223Y-51735533D01*
X55442150Y-51739187D01*
X55446694Y-51743306D01*
X55450813Y-51747850D01*
X55454467Y-51752777D01*
X55457620Y-51758038D01*
X55460242Y-51763582D01*
X55462309Y-51769357D01*
X55463799Y-51775307D01*
X55464699Y-51781374D01*
X55465000Y-51787500D01*
X55465000Y-52537500D01*
X55464699Y-52543626D01*
X55463799Y-52549693D01*
X55462309Y-52555643D01*
X55460242Y-52561418D01*
X55457620Y-52566962D01*
X55454467Y-52572223D01*
X55450813Y-52577150D01*
X55446694Y-52581694D01*
X55442150Y-52585813D01*
X55437223Y-52589467D01*
X55431962Y-52592620D01*
X55426418Y-52595242D01*
X55420643Y-52597309D01*
X55414693Y-52598799D01*
X55408626Y-52599699D01*
X55402500Y-52600000D01*
X55277500Y-52600000D01*
X55271374Y-52599699D01*
X55265307Y-52598799D01*
X55259357Y-52597309D01*
X55253582Y-52595242D01*
X55248038Y-52592620D01*
X55242777Y-52589467D01*
X55237850Y-52585813D01*
X55233306Y-52581694D01*
X55229187Y-52577150D01*
X55225533Y-52572223D01*
X55222380Y-52566962D01*
X55219758Y-52561418D01*
X55217691Y-52555643D01*
X55216201Y-52549693D01*
X55215301Y-52543626D01*
X55215000Y-52537500D01*
X55215000Y-51787500D01*
X55215301Y-51781374D01*
X55216201Y-51775307D01*
X55217691Y-51769357D01*
X55219758Y-51763582D01*
X55222380Y-51758038D01*
X55225533Y-51752777D01*
X55229187Y-51747850D01*
X55233306Y-51743306D01*
X55237850Y-51739187D01*
X55242777Y-51735533D01*
X55248038Y-51732380D01*
X55253582Y-51729758D01*
X55259357Y-51727691D01*
X55265307Y-51726201D01*
X55271374Y-51725301D01*
X55277500Y-51725000D01*
X55402500Y-51725000D01*
X55408626Y-51725301D01*
X55408626Y-51725301D01*
G37*
D11*
X55340000Y-52162500D03*
D10*
G36*
X54908626Y-51725301D02*
G01*
X54914693Y-51726201D01*
X54920643Y-51727691D01*
X54926418Y-51729758D01*
X54931962Y-51732380D01*
X54937223Y-51735533D01*
X54942150Y-51739187D01*
X54946694Y-51743306D01*
X54950813Y-51747850D01*
X54954467Y-51752777D01*
X54957620Y-51758038D01*
X54960242Y-51763582D01*
X54962309Y-51769357D01*
X54963799Y-51775307D01*
X54964699Y-51781374D01*
X54965000Y-51787500D01*
X54965000Y-52537500D01*
X54964699Y-52543626D01*
X54963799Y-52549693D01*
X54962309Y-52555643D01*
X54960242Y-52561418D01*
X54957620Y-52566962D01*
X54954467Y-52572223D01*
X54950813Y-52577150D01*
X54946694Y-52581694D01*
X54942150Y-52585813D01*
X54937223Y-52589467D01*
X54931962Y-52592620D01*
X54926418Y-52595242D01*
X54920643Y-52597309D01*
X54914693Y-52598799D01*
X54908626Y-52599699D01*
X54902500Y-52600000D01*
X54777500Y-52600000D01*
X54771374Y-52599699D01*
X54765307Y-52598799D01*
X54759357Y-52597309D01*
X54753582Y-52595242D01*
X54748038Y-52592620D01*
X54742777Y-52589467D01*
X54737850Y-52585813D01*
X54733306Y-52581694D01*
X54729187Y-52577150D01*
X54725533Y-52572223D01*
X54722380Y-52566962D01*
X54719758Y-52561418D01*
X54717691Y-52555643D01*
X54716201Y-52549693D01*
X54715301Y-52543626D01*
X54715000Y-52537500D01*
X54715000Y-51787500D01*
X54715301Y-51781374D01*
X54716201Y-51775307D01*
X54717691Y-51769357D01*
X54719758Y-51763582D01*
X54722380Y-51758038D01*
X54725533Y-51752777D01*
X54729187Y-51747850D01*
X54733306Y-51743306D01*
X54737850Y-51739187D01*
X54742777Y-51735533D01*
X54748038Y-51732380D01*
X54753582Y-51729758D01*
X54759357Y-51727691D01*
X54765307Y-51726201D01*
X54771374Y-51725301D01*
X54777500Y-51725000D01*
X54902500Y-51725000D01*
X54908626Y-51725301D01*
X54908626Y-51725301D01*
G37*
D11*
X54840000Y-52162500D03*
D10*
G36*
X54408626Y-51725301D02*
G01*
X54414693Y-51726201D01*
X54420643Y-51727691D01*
X54426418Y-51729758D01*
X54431962Y-51732380D01*
X54437223Y-51735533D01*
X54442150Y-51739187D01*
X54446694Y-51743306D01*
X54450813Y-51747850D01*
X54454467Y-51752777D01*
X54457620Y-51758038D01*
X54460242Y-51763582D01*
X54462309Y-51769357D01*
X54463799Y-51775307D01*
X54464699Y-51781374D01*
X54465000Y-51787500D01*
X54465000Y-52537500D01*
X54464699Y-52543626D01*
X54463799Y-52549693D01*
X54462309Y-52555643D01*
X54460242Y-52561418D01*
X54457620Y-52566962D01*
X54454467Y-52572223D01*
X54450813Y-52577150D01*
X54446694Y-52581694D01*
X54442150Y-52585813D01*
X54437223Y-52589467D01*
X54431962Y-52592620D01*
X54426418Y-52595242D01*
X54420643Y-52597309D01*
X54414693Y-52598799D01*
X54408626Y-52599699D01*
X54402500Y-52600000D01*
X54277500Y-52600000D01*
X54271374Y-52599699D01*
X54265307Y-52598799D01*
X54259357Y-52597309D01*
X54253582Y-52595242D01*
X54248038Y-52592620D01*
X54242777Y-52589467D01*
X54237850Y-52585813D01*
X54233306Y-52581694D01*
X54229187Y-52577150D01*
X54225533Y-52572223D01*
X54222380Y-52566962D01*
X54219758Y-52561418D01*
X54217691Y-52555643D01*
X54216201Y-52549693D01*
X54215301Y-52543626D01*
X54215000Y-52537500D01*
X54215000Y-51787500D01*
X54215301Y-51781374D01*
X54216201Y-51775307D01*
X54217691Y-51769357D01*
X54219758Y-51763582D01*
X54222380Y-51758038D01*
X54225533Y-51752777D01*
X54229187Y-51747850D01*
X54233306Y-51743306D01*
X54237850Y-51739187D01*
X54242777Y-51735533D01*
X54248038Y-51732380D01*
X54253582Y-51729758D01*
X54259357Y-51727691D01*
X54265307Y-51726201D01*
X54271374Y-51725301D01*
X54277500Y-51725000D01*
X54402500Y-51725000D01*
X54408626Y-51725301D01*
X54408626Y-51725301D01*
G37*
D11*
X54340000Y-52162500D03*
D10*
G36*
X53908626Y-51725301D02*
G01*
X53914693Y-51726201D01*
X53920643Y-51727691D01*
X53926418Y-51729758D01*
X53931962Y-51732380D01*
X53937223Y-51735533D01*
X53942150Y-51739187D01*
X53946694Y-51743306D01*
X53950813Y-51747850D01*
X53954467Y-51752777D01*
X53957620Y-51758038D01*
X53960242Y-51763582D01*
X53962309Y-51769357D01*
X53963799Y-51775307D01*
X53964699Y-51781374D01*
X53965000Y-51787500D01*
X53965000Y-52537500D01*
X53964699Y-52543626D01*
X53963799Y-52549693D01*
X53962309Y-52555643D01*
X53960242Y-52561418D01*
X53957620Y-52566962D01*
X53954467Y-52572223D01*
X53950813Y-52577150D01*
X53946694Y-52581694D01*
X53942150Y-52585813D01*
X53937223Y-52589467D01*
X53931962Y-52592620D01*
X53926418Y-52595242D01*
X53920643Y-52597309D01*
X53914693Y-52598799D01*
X53908626Y-52599699D01*
X53902500Y-52600000D01*
X53777500Y-52600000D01*
X53771374Y-52599699D01*
X53765307Y-52598799D01*
X53759357Y-52597309D01*
X53753582Y-52595242D01*
X53748038Y-52592620D01*
X53742777Y-52589467D01*
X53737850Y-52585813D01*
X53733306Y-52581694D01*
X53729187Y-52577150D01*
X53725533Y-52572223D01*
X53722380Y-52566962D01*
X53719758Y-52561418D01*
X53717691Y-52555643D01*
X53716201Y-52549693D01*
X53715301Y-52543626D01*
X53715000Y-52537500D01*
X53715000Y-51787500D01*
X53715301Y-51781374D01*
X53716201Y-51775307D01*
X53717691Y-51769357D01*
X53719758Y-51763582D01*
X53722380Y-51758038D01*
X53725533Y-51752777D01*
X53729187Y-51747850D01*
X53733306Y-51743306D01*
X53737850Y-51739187D01*
X53742777Y-51735533D01*
X53748038Y-51732380D01*
X53753582Y-51729758D01*
X53759357Y-51727691D01*
X53765307Y-51726201D01*
X53771374Y-51725301D01*
X53777500Y-51725000D01*
X53902500Y-51725000D01*
X53908626Y-51725301D01*
X53908626Y-51725301D01*
G37*
D11*
X53840000Y-52162500D03*
D10*
G36*
X53408626Y-51725301D02*
G01*
X53414693Y-51726201D01*
X53420643Y-51727691D01*
X53426418Y-51729758D01*
X53431962Y-51732380D01*
X53437223Y-51735533D01*
X53442150Y-51739187D01*
X53446694Y-51743306D01*
X53450813Y-51747850D01*
X53454467Y-51752777D01*
X53457620Y-51758038D01*
X53460242Y-51763582D01*
X53462309Y-51769357D01*
X53463799Y-51775307D01*
X53464699Y-51781374D01*
X53465000Y-51787500D01*
X53465000Y-52537500D01*
X53464699Y-52543626D01*
X53463799Y-52549693D01*
X53462309Y-52555643D01*
X53460242Y-52561418D01*
X53457620Y-52566962D01*
X53454467Y-52572223D01*
X53450813Y-52577150D01*
X53446694Y-52581694D01*
X53442150Y-52585813D01*
X53437223Y-52589467D01*
X53431962Y-52592620D01*
X53426418Y-52595242D01*
X53420643Y-52597309D01*
X53414693Y-52598799D01*
X53408626Y-52599699D01*
X53402500Y-52600000D01*
X53277500Y-52600000D01*
X53271374Y-52599699D01*
X53265307Y-52598799D01*
X53259357Y-52597309D01*
X53253582Y-52595242D01*
X53248038Y-52592620D01*
X53242777Y-52589467D01*
X53237850Y-52585813D01*
X53233306Y-52581694D01*
X53229187Y-52577150D01*
X53225533Y-52572223D01*
X53222380Y-52566962D01*
X53219758Y-52561418D01*
X53217691Y-52555643D01*
X53216201Y-52549693D01*
X53215301Y-52543626D01*
X53215000Y-52537500D01*
X53215000Y-51787500D01*
X53215301Y-51781374D01*
X53216201Y-51775307D01*
X53217691Y-51769357D01*
X53219758Y-51763582D01*
X53222380Y-51758038D01*
X53225533Y-51752777D01*
X53229187Y-51747850D01*
X53233306Y-51743306D01*
X53237850Y-51739187D01*
X53242777Y-51735533D01*
X53248038Y-51732380D01*
X53253582Y-51729758D01*
X53259357Y-51727691D01*
X53265307Y-51726201D01*
X53271374Y-51725301D01*
X53277500Y-51725000D01*
X53402500Y-51725000D01*
X53408626Y-51725301D01*
X53408626Y-51725301D01*
G37*
D11*
X53340000Y-52162500D03*
D10*
G36*
X53033626Y-52725301D02*
G01*
X53039693Y-52726201D01*
X53045643Y-52727691D01*
X53051418Y-52729758D01*
X53056962Y-52732380D01*
X53062223Y-52735533D01*
X53067150Y-52739187D01*
X53071694Y-52743306D01*
X53075813Y-52747850D01*
X53079467Y-52752777D01*
X53082620Y-52758038D01*
X53085242Y-52763582D01*
X53087309Y-52769357D01*
X53088799Y-52775307D01*
X53089699Y-52781374D01*
X53090000Y-52787500D01*
X53090000Y-52912500D01*
X53089699Y-52918626D01*
X53088799Y-52924693D01*
X53087309Y-52930643D01*
X53085242Y-52936418D01*
X53082620Y-52941962D01*
X53079467Y-52947223D01*
X53075813Y-52952150D01*
X53071694Y-52956694D01*
X53067150Y-52960813D01*
X53062223Y-52964467D01*
X53056962Y-52967620D01*
X53051418Y-52970242D01*
X53045643Y-52972309D01*
X53039693Y-52973799D01*
X53033626Y-52974699D01*
X53027500Y-52975000D01*
X52277500Y-52975000D01*
X52271374Y-52974699D01*
X52265307Y-52973799D01*
X52259357Y-52972309D01*
X52253582Y-52970242D01*
X52248038Y-52967620D01*
X52242777Y-52964467D01*
X52237850Y-52960813D01*
X52233306Y-52956694D01*
X52229187Y-52952150D01*
X52225533Y-52947223D01*
X52222380Y-52941962D01*
X52219758Y-52936418D01*
X52217691Y-52930643D01*
X52216201Y-52924693D01*
X52215301Y-52918626D01*
X52215000Y-52912500D01*
X52215000Y-52787500D01*
X52215301Y-52781374D01*
X52216201Y-52775307D01*
X52217691Y-52769357D01*
X52219758Y-52763582D01*
X52222380Y-52758038D01*
X52225533Y-52752777D01*
X52229187Y-52747850D01*
X52233306Y-52743306D01*
X52237850Y-52739187D01*
X52242777Y-52735533D01*
X52248038Y-52732380D01*
X52253582Y-52729758D01*
X52259357Y-52727691D01*
X52265307Y-52726201D01*
X52271374Y-52725301D01*
X52277500Y-52725000D01*
X53027500Y-52725000D01*
X53033626Y-52725301D01*
X53033626Y-52725301D01*
G37*
D11*
X52652500Y-52850000D03*
D10*
G36*
X53033626Y-53225301D02*
G01*
X53039693Y-53226201D01*
X53045643Y-53227691D01*
X53051418Y-53229758D01*
X53056962Y-53232380D01*
X53062223Y-53235533D01*
X53067150Y-53239187D01*
X53071694Y-53243306D01*
X53075813Y-53247850D01*
X53079467Y-53252777D01*
X53082620Y-53258038D01*
X53085242Y-53263582D01*
X53087309Y-53269357D01*
X53088799Y-53275307D01*
X53089699Y-53281374D01*
X53090000Y-53287500D01*
X53090000Y-53412500D01*
X53089699Y-53418626D01*
X53088799Y-53424693D01*
X53087309Y-53430643D01*
X53085242Y-53436418D01*
X53082620Y-53441962D01*
X53079467Y-53447223D01*
X53075813Y-53452150D01*
X53071694Y-53456694D01*
X53067150Y-53460813D01*
X53062223Y-53464467D01*
X53056962Y-53467620D01*
X53051418Y-53470242D01*
X53045643Y-53472309D01*
X53039693Y-53473799D01*
X53033626Y-53474699D01*
X53027500Y-53475000D01*
X52277500Y-53475000D01*
X52271374Y-53474699D01*
X52265307Y-53473799D01*
X52259357Y-53472309D01*
X52253582Y-53470242D01*
X52248038Y-53467620D01*
X52242777Y-53464467D01*
X52237850Y-53460813D01*
X52233306Y-53456694D01*
X52229187Y-53452150D01*
X52225533Y-53447223D01*
X52222380Y-53441962D01*
X52219758Y-53436418D01*
X52217691Y-53430643D01*
X52216201Y-53424693D01*
X52215301Y-53418626D01*
X52215000Y-53412500D01*
X52215000Y-53287500D01*
X52215301Y-53281374D01*
X52216201Y-53275307D01*
X52217691Y-53269357D01*
X52219758Y-53263582D01*
X52222380Y-53258038D01*
X52225533Y-53252777D01*
X52229187Y-53247850D01*
X52233306Y-53243306D01*
X52237850Y-53239187D01*
X52242777Y-53235533D01*
X52248038Y-53232380D01*
X52253582Y-53229758D01*
X52259357Y-53227691D01*
X52265307Y-53226201D01*
X52271374Y-53225301D01*
X52277500Y-53225000D01*
X53027500Y-53225000D01*
X53033626Y-53225301D01*
X53033626Y-53225301D01*
G37*
D11*
X52652500Y-53350000D03*
D10*
G36*
X53033626Y-53725301D02*
G01*
X53039693Y-53726201D01*
X53045643Y-53727691D01*
X53051418Y-53729758D01*
X53056962Y-53732380D01*
X53062223Y-53735533D01*
X53067150Y-53739187D01*
X53071694Y-53743306D01*
X53075813Y-53747850D01*
X53079467Y-53752777D01*
X53082620Y-53758038D01*
X53085242Y-53763582D01*
X53087309Y-53769357D01*
X53088799Y-53775307D01*
X53089699Y-53781374D01*
X53090000Y-53787500D01*
X53090000Y-53912500D01*
X53089699Y-53918626D01*
X53088799Y-53924693D01*
X53087309Y-53930643D01*
X53085242Y-53936418D01*
X53082620Y-53941962D01*
X53079467Y-53947223D01*
X53075813Y-53952150D01*
X53071694Y-53956694D01*
X53067150Y-53960813D01*
X53062223Y-53964467D01*
X53056962Y-53967620D01*
X53051418Y-53970242D01*
X53045643Y-53972309D01*
X53039693Y-53973799D01*
X53033626Y-53974699D01*
X53027500Y-53975000D01*
X52277500Y-53975000D01*
X52271374Y-53974699D01*
X52265307Y-53973799D01*
X52259357Y-53972309D01*
X52253582Y-53970242D01*
X52248038Y-53967620D01*
X52242777Y-53964467D01*
X52237850Y-53960813D01*
X52233306Y-53956694D01*
X52229187Y-53952150D01*
X52225533Y-53947223D01*
X52222380Y-53941962D01*
X52219758Y-53936418D01*
X52217691Y-53930643D01*
X52216201Y-53924693D01*
X52215301Y-53918626D01*
X52215000Y-53912500D01*
X52215000Y-53787500D01*
X52215301Y-53781374D01*
X52216201Y-53775307D01*
X52217691Y-53769357D01*
X52219758Y-53763582D01*
X52222380Y-53758038D01*
X52225533Y-53752777D01*
X52229187Y-53747850D01*
X52233306Y-53743306D01*
X52237850Y-53739187D01*
X52242777Y-53735533D01*
X52248038Y-53732380D01*
X52253582Y-53729758D01*
X52259357Y-53727691D01*
X52265307Y-53726201D01*
X52271374Y-53725301D01*
X52277500Y-53725000D01*
X53027500Y-53725000D01*
X53033626Y-53725301D01*
X53033626Y-53725301D01*
G37*
D11*
X52652500Y-53850000D03*
D10*
G36*
X53033626Y-54225301D02*
G01*
X53039693Y-54226201D01*
X53045643Y-54227691D01*
X53051418Y-54229758D01*
X53056962Y-54232380D01*
X53062223Y-54235533D01*
X53067150Y-54239187D01*
X53071694Y-54243306D01*
X53075813Y-54247850D01*
X53079467Y-54252777D01*
X53082620Y-54258038D01*
X53085242Y-54263582D01*
X53087309Y-54269357D01*
X53088799Y-54275307D01*
X53089699Y-54281374D01*
X53090000Y-54287500D01*
X53090000Y-54412500D01*
X53089699Y-54418626D01*
X53088799Y-54424693D01*
X53087309Y-54430643D01*
X53085242Y-54436418D01*
X53082620Y-54441962D01*
X53079467Y-54447223D01*
X53075813Y-54452150D01*
X53071694Y-54456694D01*
X53067150Y-54460813D01*
X53062223Y-54464467D01*
X53056962Y-54467620D01*
X53051418Y-54470242D01*
X53045643Y-54472309D01*
X53039693Y-54473799D01*
X53033626Y-54474699D01*
X53027500Y-54475000D01*
X52277500Y-54475000D01*
X52271374Y-54474699D01*
X52265307Y-54473799D01*
X52259357Y-54472309D01*
X52253582Y-54470242D01*
X52248038Y-54467620D01*
X52242777Y-54464467D01*
X52237850Y-54460813D01*
X52233306Y-54456694D01*
X52229187Y-54452150D01*
X52225533Y-54447223D01*
X52222380Y-54441962D01*
X52219758Y-54436418D01*
X52217691Y-54430643D01*
X52216201Y-54424693D01*
X52215301Y-54418626D01*
X52215000Y-54412500D01*
X52215000Y-54287500D01*
X52215301Y-54281374D01*
X52216201Y-54275307D01*
X52217691Y-54269357D01*
X52219758Y-54263582D01*
X52222380Y-54258038D01*
X52225533Y-54252777D01*
X52229187Y-54247850D01*
X52233306Y-54243306D01*
X52237850Y-54239187D01*
X52242777Y-54235533D01*
X52248038Y-54232380D01*
X52253582Y-54229758D01*
X52259357Y-54227691D01*
X52265307Y-54226201D01*
X52271374Y-54225301D01*
X52277500Y-54225000D01*
X53027500Y-54225000D01*
X53033626Y-54225301D01*
X53033626Y-54225301D01*
G37*
D11*
X52652500Y-54350000D03*
D10*
G36*
X53033626Y-54725301D02*
G01*
X53039693Y-54726201D01*
X53045643Y-54727691D01*
X53051418Y-54729758D01*
X53056962Y-54732380D01*
X53062223Y-54735533D01*
X53067150Y-54739187D01*
X53071694Y-54743306D01*
X53075813Y-54747850D01*
X53079467Y-54752777D01*
X53082620Y-54758038D01*
X53085242Y-54763582D01*
X53087309Y-54769357D01*
X53088799Y-54775307D01*
X53089699Y-54781374D01*
X53090000Y-54787500D01*
X53090000Y-54912500D01*
X53089699Y-54918626D01*
X53088799Y-54924693D01*
X53087309Y-54930643D01*
X53085242Y-54936418D01*
X53082620Y-54941962D01*
X53079467Y-54947223D01*
X53075813Y-54952150D01*
X53071694Y-54956694D01*
X53067150Y-54960813D01*
X53062223Y-54964467D01*
X53056962Y-54967620D01*
X53051418Y-54970242D01*
X53045643Y-54972309D01*
X53039693Y-54973799D01*
X53033626Y-54974699D01*
X53027500Y-54975000D01*
X52277500Y-54975000D01*
X52271374Y-54974699D01*
X52265307Y-54973799D01*
X52259357Y-54972309D01*
X52253582Y-54970242D01*
X52248038Y-54967620D01*
X52242777Y-54964467D01*
X52237850Y-54960813D01*
X52233306Y-54956694D01*
X52229187Y-54952150D01*
X52225533Y-54947223D01*
X52222380Y-54941962D01*
X52219758Y-54936418D01*
X52217691Y-54930643D01*
X52216201Y-54924693D01*
X52215301Y-54918626D01*
X52215000Y-54912500D01*
X52215000Y-54787500D01*
X52215301Y-54781374D01*
X52216201Y-54775307D01*
X52217691Y-54769357D01*
X52219758Y-54763582D01*
X52222380Y-54758038D01*
X52225533Y-54752777D01*
X52229187Y-54747850D01*
X52233306Y-54743306D01*
X52237850Y-54739187D01*
X52242777Y-54735533D01*
X52248038Y-54732380D01*
X52253582Y-54729758D01*
X52259357Y-54727691D01*
X52265307Y-54726201D01*
X52271374Y-54725301D01*
X52277500Y-54725000D01*
X53027500Y-54725000D01*
X53033626Y-54725301D01*
X53033626Y-54725301D01*
G37*
D11*
X52652500Y-54850000D03*
D10*
G36*
X53033626Y-55225301D02*
G01*
X53039693Y-55226201D01*
X53045643Y-55227691D01*
X53051418Y-55229758D01*
X53056962Y-55232380D01*
X53062223Y-55235533D01*
X53067150Y-55239187D01*
X53071694Y-55243306D01*
X53075813Y-55247850D01*
X53079467Y-55252777D01*
X53082620Y-55258038D01*
X53085242Y-55263582D01*
X53087309Y-55269357D01*
X53088799Y-55275307D01*
X53089699Y-55281374D01*
X53090000Y-55287500D01*
X53090000Y-55412500D01*
X53089699Y-55418626D01*
X53088799Y-55424693D01*
X53087309Y-55430643D01*
X53085242Y-55436418D01*
X53082620Y-55441962D01*
X53079467Y-55447223D01*
X53075813Y-55452150D01*
X53071694Y-55456694D01*
X53067150Y-55460813D01*
X53062223Y-55464467D01*
X53056962Y-55467620D01*
X53051418Y-55470242D01*
X53045643Y-55472309D01*
X53039693Y-55473799D01*
X53033626Y-55474699D01*
X53027500Y-55475000D01*
X52277500Y-55475000D01*
X52271374Y-55474699D01*
X52265307Y-55473799D01*
X52259357Y-55472309D01*
X52253582Y-55470242D01*
X52248038Y-55467620D01*
X52242777Y-55464467D01*
X52237850Y-55460813D01*
X52233306Y-55456694D01*
X52229187Y-55452150D01*
X52225533Y-55447223D01*
X52222380Y-55441962D01*
X52219758Y-55436418D01*
X52217691Y-55430643D01*
X52216201Y-55424693D01*
X52215301Y-55418626D01*
X52215000Y-55412500D01*
X52215000Y-55287500D01*
X52215301Y-55281374D01*
X52216201Y-55275307D01*
X52217691Y-55269357D01*
X52219758Y-55263582D01*
X52222380Y-55258038D01*
X52225533Y-55252777D01*
X52229187Y-55247850D01*
X52233306Y-55243306D01*
X52237850Y-55239187D01*
X52242777Y-55235533D01*
X52248038Y-55232380D01*
X52253582Y-55229758D01*
X52259357Y-55227691D01*
X52265307Y-55226201D01*
X52271374Y-55225301D01*
X52277500Y-55225000D01*
X53027500Y-55225000D01*
X53033626Y-55225301D01*
X53033626Y-55225301D01*
G37*
D11*
X52652500Y-55350000D03*
D10*
G36*
X53033626Y-55725301D02*
G01*
X53039693Y-55726201D01*
X53045643Y-55727691D01*
X53051418Y-55729758D01*
X53056962Y-55732380D01*
X53062223Y-55735533D01*
X53067150Y-55739187D01*
X53071694Y-55743306D01*
X53075813Y-55747850D01*
X53079467Y-55752777D01*
X53082620Y-55758038D01*
X53085242Y-55763582D01*
X53087309Y-55769357D01*
X53088799Y-55775307D01*
X53089699Y-55781374D01*
X53090000Y-55787500D01*
X53090000Y-55912500D01*
X53089699Y-55918626D01*
X53088799Y-55924693D01*
X53087309Y-55930643D01*
X53085242Y-55936418D01*
X53082620Y-55941962D01*
X53079467Y-55947223D01*
X53075813Y-55952150D01*
X53071694Y-55956694D01*
X53067150Y-55960813D01*
X53062223Y-55964467D01*
X53056962Y-55967620D01*
X53051418Y-55970242D01*
X53045643Y-55972309D01*
X53039693Y-55973799D01*
X53033626Y-55974699D01*
X53027500Y-55975000D01*
X52277500Y-55975000D01*
X52271374Y-55974699D01*
X52265307Y-55973799D01*
X52259357Y-55972309D01*
X52253582Y-55970242D01*
X52248038Y-55967620D01*
X52242777Y-55964467D01*
X52237850Y-55960813D01*
X52233306Y-55956694D01*
X52229187Y-55952150D01*
X52225533Y-55947223D01*
X52222380Y-55941962D01*
X52219758Y-55936418D01*
X52217691Y-55930643D01*
X52216201Y-55924693D01*
X52215301Y-55918626D01*
X52215000Y-55912500D01*
X52215000Y-55787500D01*
X52215301Y-55781374D01*
X52216201Y-55775307D01*
X52217691Y-55769357D01*
X52219758Y-55763582D01*
X52222380Y-55758038D01*
X52225533Y-55752777D01*
X52229187Y-55747850D01*
X52233306Y-55743306D01*
X52237850Y-55739187D01*
X52242777Y-55735533D01*
X52248038Y-55732380D01*
X52253582Y-55729758D01*
X52259357Y-55727691D01*
X52265307Y-55726201D01*
X52271374Y-55725301D01*
X52277500Y-55725000D01*
X53027500Y-55725000D01*
X53033626Y-55725301D01*
X53033626Y-55725301D01*
G37*
D11*
X52652500Y-55850000D03*
D10*
G36*
X53033626Y-56225301D02*
G01*
X53039693Y-56226201D01*
X53045643Y-56227691D01*
X53051418Y-56229758D01*
X53056962Y-56232380D01*
X53062223Y-56235533D01*
X53067150Y-56239187D01*
X53071694Y-56243306D01*
X53075813Y-56247850D01*
X53079467Y-56252777D01*
X53082620Y-56258038D01*
X53085242Y-56263582D01*
X53087309Y-56269357D01*
X53088799Y-56275307D01*
X53089699Y-56281374D01*
X53090000Y-56287500D01*
X53090000Y-56412500D01*
X53089699Y-56418626D01*
X53088799Y-56424693D01*
X53087309Y-56430643D01*
X53085242Y-56436418D01*
X53082620Y-56441962D01*
X53079467Y-56447223D01*
X53075813Y-56452150D01*
X53071694Y-56456694D01*
X53067150Y-56460813D01*
X53062223Y-56464467D01*
X53056962Y-56467620D01*
X53051418Y-56470242D01*
X53045643Y-56472309D01*
X53039693Y-56473799D01*
X53033626Y-56474699D01*
X53027500Y-56475000D01*
X52277500Y-56475000D01*
X52271374Y-56474699D01*
X52265307Y-56473799D01*
X52259357Y-56472309D01*
X52253582Y-56470242D01*
X52248038Y-56467620D01*
X52242777Y-56464467D01*
X52237850Y-56460813D01*
X52233306Y-56456694D01*
X52229187Y-56452150D01*
X52225533Y-56447223D01*
X52222380Y-56441962D01*
X52219758Y-56436418D01*
X52217691Y-56430643D01*
X52216201Y-56424693D01*
X52215301Y-56418626D01*
X52215000Y-56412500D01*
X52215000Y-56287500D01*
X52215301Y-56281374D01*
X52216201Y-56275307D01*
X52217691Y-56269357D01*
X52219758Y-56263582D01*
X52222380Y-56258038D01*
X52225533Y-56252777D01*
X52229187Y-56247850D01*
X52233306Y-56243306D01*
X52237850Y-56239187D01*
X52242777Y-56235533D01*
X52248038Y-56232380D01*
X52253582Y-56229758D01*
X52259357Y-56227691D01*
X52265307Y-56226201D01*
X52271374Y-56225301D01*
X52277500Y-56225000D01*
X53027500Y-56225000D01*
X53033626Y-56225301D01*
X53033626Y-56225301D01*
G37*
D11*
X52652500Y-56350000D03*
D10*
G36*
X53033626Y-56725301D02*
G01*
X53039693Y-56726201D01*
X53045643Y-56727691D01*
X53051418Y-56729758D01*
X53056962Y-56732380D01*
X53062223Y-56735533D01*
X53067150Y-56739187D01*
X53071694Y-56743306D01*
X53075813Y-56747850D01*
X53079467Y-56752777D01*
X53082620Y-56758038D01*
X53085242Y-56763582D01*
X53087309Y-56769357D01*
X53088799Y-56775307D01*
X53089699Y-56781374D01*
X53090000Y-56787500D01*
X53090000Y-56912500D01*
X53089699Y-56918626D01*
X53088799Y-56924693D01*
X53087309Y-56930643D01*
X53085242Y-56936418D01*
X53082620Y-56941962D01*
X53079467Y-56947223D01*
X53075813Y-56952150D01*
X53071694Y-56956694D01*
X53067150Y-56960813D01*
X53062223Y-56964467D01*
X53056962Y-56967620D01*
X53051418Y-56970242D01*
X53045643Y-56972309D01*
X53039693Y-56973799D01*
X53033626Y-56974699D01*
X53027500Y-56975000D01*
X52277500Y-56975000D01*
X52271374Y-56974699D01*
X52265307Y-56973799D01*
X52259357Y-56972309D01*
X52253582Y-56970242D01*
X52248038Y-56967620D01*
X52242777Y-56964467D01*
X52237850Y-56960813D01*
X52233306Y-56956694D01*
X52229187Y-56952150D01*
X52225533Y-56947223D01*
X52222380Y-56941962D01*
X52219758Y-56936418D01*
X52217691Y-56930643D01*
X52216201Y-56924693D01*
X52215301Y-56918626D01*
X52215000Y-56912500D01*
X52215000Y-56787500D01*
X52215301Y-56781374D01*
X52216201Y-56775307D01*
X52217691Y-56769357D01*
X52219758Y-56763582D01*
X52222380Y-56758038D01*
X52225533Y-56752777D01*
X52229187Y-56747850D01*
X52233306Y-56743306D01*
X52237850Y-56739187D01*
X52242777Y-56735533D01*
X52248038Y-56732380D01*
X52253582Y-56729758D01*
X52259357Y-56727691D01*
X52265307Y-56726201D01*
X52271374Y-56725301D01*
X52277500Y-56725000D01*
X53027500Y-56725000D01*
X53033626Y-56725301D01*
X53033626Y-56725301D01*
G37*
D11*
X52652500Y-56850000D03*
D10*
G36*
X53033626Y-57225301D02*
G01*
X53039693Y-57226201D01*
X53045643Y-57227691D01*
X53051418Y-57229758D01*
X53056962Y-57232380D01*
X53062223Y-57235533D01*
X53067150Y-57239187D01*
X53071694Y-57243306D01*
X53075813Y-57247850D01*
X53079467Y-57252777D01*
X53082620Y-57258038D01*
X53085242Y-57263582D01*
X53087309Y-57269357D01*
X53088799Y-57275307D01*
X53089699Y-57281374D01*
X53090000Y-57287500D01*
X53090000Y-57412500D01*
X53089699Y-57418626D01*
X53088799Y-57424693D01*
X53087309Y-57430643D01*
X53085242Y-57436418D01*
X53082620Y-57441962D01*
X53079467Y-57447223D01*
X53075813Y-57452150D01*
X53071694Y-57456694D01*
X53067150Y-57460813D01*
X53062223Y-57464467D01*
X53056962Y-57467620D01*
X53051418Y-57470242D01*
X53045643Y-57472309D01*
X53039693Y-57473799D01*
X53033626Y-57474699D01*
X53027500Y-57475000D01*
X52277500Y-57475000D01*
X52271374Y-57474699D01*
X52265307Y-57473799D01*
X52259357Y-57472309D01*
X52253582Y-57470242D01*
X52248038Y-57467620D01*
X52242777Y-57464467D01*
X52237850Y-57460813D01*
X52233306Y-57456694D01*
X52229187Y-57452150D01*
X52225533Y-57447223D01*
X52222380Y-57441962D01*
X52219758Y-57436418D01*
X52217691Y-57430643D01*
X52216201Y-57424693D01*
X52215301Y-57418626D01*
X52215000Y-57412500D01*
X52215000Y-57287500D01*
X52215301Y-57281374D01*
X52216201Y-57275307D01*
X52217691Y-57269357D01*
X52219758Y-57263582D01*
X52222380Y-57258038D01*
X52225533Y-57252777D01*
X52229187Y-57247850D01*
X52233306Y-57243306D01*
X52237850Y-57239187D01*
X52242777Y-57235533D01*
X52248038Y-57232380D01*
X52253582Y-57229758D01*
X52259357Y-57227691D01*
X52265307Y-57226201D01*
X52271374Y-57225301D01*
X52277500Y-57225000D01*
X53027500Y-57225000D01*
X53033626Y-57225301D01*
X53033626Y-57225301D01*
G37*
D11*
X52652500Y-57350000D03*
D10*
G36*
X53033626Y-57725301D02*
G01*
X53039693Y-57726201D01*
X53045643Y-57727691D01*
X53051418Y-57729758D01*
X53056962Y-57732380D01*
X53062223Y-57735533D01*
X53067150Y-57739187D01*
X53071694Y-57743306D01*
X53075813Y-57747850D01*
X53079467Y-57752777D01*
X53082620Y-57758038D01*
X53085242Y-57763582D01*
X53087309Y-57769357D01*
X53088799Y-57775307D01*
X53089699Y-57781374D01*
X53090000Y-57787500D01*
X53090000Y-57912500D01*
X53089699Y-57918626D01*
X53088799Y-57924693D01*
X53087309Y-57930643D01*
X53085242Y-57936418D01*
X53082620Y-57941962D01*
X53079467Y-57947223D01*
X53075813Y-57952150D01*
X53071694Y-57956694D01*
X53067150Y-57960813D01*
X53062223Y-57964467D01*
X53056962Y-57967620D01*
X53051418Y-57970242D01*
X53045643Y-57972309D01*
X53039693Y-57973799D01*
X53033626Y-57974699D01*
X53027500Y-57975000D01*
X52277500Y-57975000D01*
X52271374Y-57974699D01*
X52265307Y-57973799D01*
X52259357Y-57972309D01*
X52253582Y-57970242D01*
X52248038Y-57967620D01*
X52242777Y-57964467D01*
X52237850Y-57960813D01*
X52233306Y-57956694D01*
X52229187Y-57952150D01*
X52225533Y-57947223D01*
X52222380Y-57941962D01*
X52219758Y-57936418D01*
X52217691Y-57930643D01*
X52216201Y-57924693D01*
X52215301Y-57918626D01*
X52215000Y-57912500D01*
X52215000Y-57787500D01*
X52215301Y-57781374D01*
X52216201Y-57775307D01*
X52217691Y-57769357D01*
X52219758Y-57763582D01*
X52222380Y-57758038D01*
X52225533Y-57752777D01*
X52229187Y-57747850D01*
X52233306Y-57743306D01*
X52237850Y-57739187D01*
X52242777Y-57735533D01*
X52248038Y-57732380D01*
X52253582Y-57729758D01*
X52259357Y-57727691D01*
X52265307Y-57726201D01*
X52271374Y-57725301D01*
X52277500Y-57725000D01*
X53027500Y-57725000D01*
X53033626Y-57725301D01*
X53033626Y-57725301D01*
G37*
D11*
X52652500Y-57850000D03*
D10*
G36*
X53033626Y-58225301D02*
G01*
X53039693Y-58226201D01*
X53045643Y-58227691D01*
X53051418Y-58229758D01*
X53056962Y-58232380D01*
X53062223Y-58235533D01*
X53067150Y-58239187D01*
X53071694Y-58243306D01*
X53075813Y-58247850D01*
X53079467Y-58252777D01*
X53082620Y-58258038D01*
X53085242Y-58263582D01*
X53087309Y-58269357D01*
X53088799Y-58275307D01*
X53089699Y-58281374D01*
X53090000Y-58287500D01*
X53090000Y-58412500D01*
X53089699Y-58418626D01*
X53088799Y-58424693D01*
X53087309Y-58430643D01*
X53085242Y-58436418D01*
X53082620Y-58441962D01*
X53079467Y-58447223D01*
X53075813Y-58452150D01*
X53071694Y-58456694D01*
X53067150Y-58460813D01*
X53062223Y-58464467D01*
X53056962Y-58467620D01*
X53051418Y-58470242D01*
X53045643Y-58472309D01*
X53039693Y-58473799D01*
X53033626Y-58474699D01*
X53027500Y-58475000D01*
X52277500Y-58475000D01*
X52271374Y-58474699D01*
X52265307Y-58473799D01*
X52259357Y-58472309D01*
X52253582Y-58470242D01*
X52248038Y-58467620D01*
X52242777Y-58464467D01*
X52237850Y-58460813D01*
X52233306Y-58456694D01*
X52229187Y-58452150D01*
X52225533Y-58447223D01*
X52222380Y-58441962D01*
X52219758Y-58436418D01*
X52217691Y-58430643D01*
X52216201Y-58424693D01*
X52215301Y-58418626D01*
X52215000Y-58412500D01*
X52215000Y-58287500D01*
X52215301Y-58281374D01*
X52216201Y-58275307D01*
X52217691Y-58269357D01*
X52219758Y-58263582D01*
X52222380Y-58258038D01*
X52225533Y-58252777D01*
X52229187Y-58247850D01*
X52233306Y-58243306D01*
X52237850Y-58239187D01*
X52242777Y-58235533D01*
X52248038Y-58232380D01*
X52253582Y-58229758D01*
X52259357Y-58227691D01*
X52265307Y-58226201D01*
X52271374Y-58225301D01*
X52277500Y-58225000D01*
X53027500Y-58225000D01*
X53033626Y-58225301D01*
X53033626Y-58225301D01*
G37*
D11*
X52652500Y-58350000D03*
D10*
G36*
X57284468Y-54300563D02*
G01*
X57295826Y-54302248D01*
X57306963Y-54305038D01*
X57317774Y-54308906D01*
X57328153Y-54313815D01*
X57338002Y-54319718D01*
X57347224Y-54326558D01*
X57355731Y-54334269D01*
X57363442Y-54342776D01*
X57370282Y-54351998D01*
X57376185Y-54361847D01*
X57381094Y-54372226D01*
X57384962Y-54383037D01*
X57387752Y-54394174D01*
X57389437Y-54405532D01*
X57390000Y-54417000D01*
X57390000Y-56783000D01*
X57389437Y-56794468D01*
X57387752Y-56805826D01*
X57384962Y-56816963D01*
X57381094Y-56827774D01*
X57376185Y-56838153D01*
X57370282Y-56848002D01*
X57363442Y-56857224D01*
X57355731Y-56865731D01*
X57347224Y-56873442D01*
X57338002Y-56880282D01*
X57328153Y-56886185D01*
X57317774Y-56891094D01*
X57306963Y-56894962D01*
X57295826Y-56897752D01*
X57284468Y-56899437D01*
X57273000Y-56900000D01*
X54907000Y-56900000D01*
X54895532Y-56899437D01*
X54884174Y-56897752D01*
X54873037Y-56894962D01*
X54862226Y-56891094D01*
X54851847Y-56886185D01*
X54841998Y-56880282D01*
X54832776Y-56873442D01*
X54824269Y-56865731D01*
X54816558Y-56857224D01*
X54809718Y-56848002D01*
X54803815Y-56838153D01*
X54798906Y-56827774D01*
X54795038Y-56816963D01*
X54792248Y-56805826D01*
X54790563Y-56794468D01*
X54790000Y-56783000D01*
X54790000Y-54417000D01*
X54790563Y-54405532D01*
X54792248Y-54394174D01*
X54795038Y-54383037D01*
X54798906Y-54372226D01*
X54803815Y-54361847D01*
X54809718Y-54351998D01*
X54816558Y-54342776D01*
X54824269Y-54334269D01*
X54832776Y-54326558D01*
X54841998Y-54319718D01*
X54851847Y-54313815D01*
X54862226Y-54308906D01*
X54873037Y-54305038D01*
X54884174Y-54302248D01*
X54895532Y-54300563D01*
X54907000Y-54300000D01*
X57273000Y-54300000D01*
X57284468Y-54300563D01*
X57284468Y-54300563D01*
G37*
D12*
X56090000Y-55600000D03*
D10*
G36*
X61229405Y-61641445D02*
G01*
X61258527Y-61645764D01*
X61287085Y-61652918D01*
X61314805Y-61662836D01*
X61341419Y-61675424D01*
X61366671Y-61690559D01*
X61390318Y-61708097D01*
X61412132Y-61727868D01*
X61431903Y-61749682D01*
X61449441Y-61773329D01*
X61464576Y-61798581D01*
X61477164Y-61825195D01*
X61487082Y-61852915D01*
X61494236Y-61881473D01*
X61498555Y-61910595D01*
X61500000Y-61940000D01*
X61500000Y-62540000D01*
X61498555Y-62569405D01*
X61494236Y-62598527D01*
X61487082Y-62627085D01*
X61477164Y-62654805D01*
X61464576Y-62681419D01*
X61449441Y-62706671D01*
X61431903Y-62730318D01*
X61412132Y-62752132D01*
X61390318Y-62771903D01*
X61366671Y-62789441D01*
X61341419Y-62804576D01*
X61314805Y-62817164D01*
X61287085Y-62827082D01*
X61258527Y-62834236D01*
X61229405Y-62838555D01*
X61200000Y-62840000D01*
X60600000Y-62840000D01*
X60570595Y-62838555D01*
X60541473Y-62834236D01*
X60512915Y-62827082D01*
X60485195Y-62817164D01*
X60458581Y-62804576D01*
X60433329Y-62789441D01*
X60409682Y-62771903D01*
X60387868Y-62752132D01*
X60368097Y-62730318D01*
X60350559Y-62706671D01*
X60335424Y-62681419D01*
X60322836Y-62654805D01*
X60312918Y-62627085D01*
X60305764Y-62598527D01*
X60301445Y-62569405D01*
X60300000Y-62540000D01*
X60300000Y-61940000D01*
X60301445Y-61910595D01*
X60305764Y-61881473D01*
X60312918Y-61852915D01*
X60322836Y-61825195D01*
X60335424Y-61798581D01*
X60350559Y-61773329D01*
X60368097Y-61749682D01*
X60387868Y-61727868D01*
X60409682Y-61708097D01*
X60433329Y-61690559D01*
X60458581Y-61675424D01*
X60485195Y-61662836D01*
X60512915Y-61652918D01*
X60541473Y-61645764D01*
X60570595Y-61641445D01*
X60600000Y-61640000D01*
X61200000Y-61640000D01*
X61229405Y-61641445D01*
X61229405Y-61641445D01*
G37*
D13*
X60900000Y-62240000D03*
D10*
G36*
X61129405Y-63301445D02*
G01*
X61158527Y-63305764D01*
X61187085Y-63312918D01*
X61214805Y-63322836D01*
X61241419Y-63335424D01*
X61266671Y-63350559D01*
X61290318Y-63368097D01*
X61312132Y-63387868D01*
X61331903Y-63409682D01*
X61349441Y-63433329D01*
X61364576Y-63458581D01*
X61377164Y-63485195D01*
X61387082Y-63512915D01*
X61394236Y-63541473D01*
X61398555Y-63570595D01*
X61400000Y-63600000D01*
X61400000Y-64200000D01*
X61398555Y-64229405D01*
X61394236Y-64258527D01*
X61387082Y-64287085D01*
X61377164Y-64314805D01*
X61364576Y-64341419D01*
X61349441Y-64366671D01*
X61331903Y-64390318D01*
X61312132Y-64412132D01*
X61290318Y-64431903D01*
X61266671Y-64449441D01*
X61241419Y-64464576D01*
X61214805Y-64477164D01*
X61187085Y-64487082D01*
X61158527Y-64494236D01*
X61129405Y-64498555D01*
X61100000Y-64500000D01*
X60500000Y-64500000D01*
X60470595Y-64498555D01*
X60441473Y-64494236D01*
X60412915Y-64487082D01*
X60385195Y-64477164D01*
X60358581Y-64464576D01*
X60333329Y-64449441D01*
X60309682Y-64431903D01*
X60287868Y-64412132D01*
X60268097Y-64390318D01*
X60250559Y-64366671D01*
X60235424Y-64341419D01*
X60222836Y-64314805D01*
X60212918Y-64287085D01*
X60205764Y-64258527D01*
X60201445Y-64229405D01*
X60200000Y-64200000D01*
X60200000Y-63600000D01*
X60201445Y-63570595D01*
X60205764Y-63541473D01*
X60212918Y-63512915D01*
X60222836Y-63485195D01*
X60235424Y-63458581D01*
X60250559Y-63433329D01*
X60268097Y-63409682D01*
X60287868Y-63387868D01*
X60309682Y-63368097D01*
X60333329Y-63350559D01*
X60358581Y-63335424D01*
X60385195Y-63322836D01*
X60412915Y-63312918D01*
X60441473Y-63305764D01*
X60470595Y-63301445D01*
X60500000Y-63300000D01*
X61100000Y-63300000D01*
X61129405Y-63301445D01*
X61129405Y-63301445D01*
G37*
D13*
X60800000Y-63900000D03*
D10*
G36*
X59529405Y-63301445D02*
G01*
X59558527Y-63305764D01*
X59587085Y-63312918D01*
X59614805Y-63322836D01*
X59641419Y-63335424D01*
X59666671Y-63350559D01*
X59690318Y-63368097D01*
X59712132Y-63387868D01*
X59731903Y-63409682D01*
X59749441Y-63433329D01*
X59764576Y-63458581D01*
X59777164Y-63485195D01*
X59787082Y-63512915D01*
X59794236Y-63541473D01*
X59798555Y-63570595D01*
X59800000Y-63600000D01*
X59800000Y-64200000D01*
X59798555Y-64229405D01*
X59794236Y-64258527D01*
X59787082Y-64287085D01*
X59777164Y-64314805D01*
X59764576Y-64341419D01*
X59749441Y-64366671D01*
X59731903Y-64390318D01*
X59712132Y-64412132D01*
X59690318Y-64431903D01*
X59666671Y-64449441D01*
X59641419Y-64464576D01*
X59614805Y-64477164D01*
X59587085Y-64487082D01*
X59558527Y-64494236D01*
X59529405Y-64498555D01*
X59500000Y-64500000D01*
X58900000Y-64500000D01*
X58870595Y-64498555D01*
X58841473Y-64494236D01*
X58812915Y-64487082D01*
X58785195Y-64477164D01*
X58758581Y-64464576D01*
X58733329Y-64449441D01*
X58709682Y-64431903D01*
X58687868Y-64412132D01*
X58668097Y-64390318D01*
X58650559Y-64366671D01*
X58635424Y-64341419D01*
X58622836Y-64314805D01*
X58612918Y-64287085D01*
X58605764Y-64258527D01*
X58601445Y-64229405D01*
X58600000Y-64200000D01*
X58600000Y-63600000D01*
X58601445Y-63570595D01*
X58605764Y-63541473D01*
X58612918Y-63512915D01*
X58622836Y-63485195D01*
X58635424Y-63458581D01*
X58650559Y-63433329D01*
X58668097Y-63409682D01*
X58687868Y-63387868D01*
X58709682Y-63368097D01*
X58733329Y-63350559D01*
X58758581Y-63335424D01*
X58785195Y-63322836D01*
X58812915Y-63312918D01*
X58841473Y-63305764D01*
X58870595Y-63301445D01*
X58900000Y-63300000D01*
X59500000Y-63300000D01*
X59529405Y-63301445D01*
X59529405Y-63301445D01*
G37*
D13*
X59200000Y-63900000D03*
D14*
X52245000Y-60400000D03*
X52245000Y-64000000D03*
X50805000Y-60400000D03*
X50805000Y-64000000D03*
D10*
G36*
X55046958Y-64005710D02*
G01*
X55061276Y-64007834D01*
X55075317Y-64011351D01*
X55088946Y-64016228D01*
X55102031Y-64022417D01*
X55114447Y-64029858D01*
X55126073Y-64038481D01*
X55136798Y-64048202D01*
X55146519Y-64058927D01*
X55155142Y-64070553D01*
X55162583Y-64082969D01*
X55168772Y-64096054D01*
X55173649Y-64109683D01*
X55177166Y-64123724D01*
X55179290Y-64138042D01*
X55180000Y-64152500D01*
X55180000Y-64497500D01*
X55179290Y-64511958D01*
X55177166Y-64526276D01*
X55173649Y-64540317D01*
X55168772Y-64553946D01*
X55162583Y-64567031D01*
X55155142Y-64579447D01*
X55146519Y-64591073D01*
X55136798Y-64601798D01*
X55126073Y-64611519D01*
X55114447Y-64620142D01*
X55102031Y-64627583D01*
X55088946Y-64633772D01*
X55075317Y-64638649D01*
X55061276Y-64642166D01*
X55046958Y-64644290D01*
X55032500Y-64645000D01*
X54737500Y-64645000D01*
X54723042Y-64644290D01*
X54708724Y-64642166D01*
X54694683Y-64638649D01*
X54681054Y-64633772D01*
X54667969Y-64627583D01*
X54655553Y-64620142D01*
X54643927Y-64611519D01*
X54633202Y-64601798D01*
X54623481Y-64591073D01*
X54614858Y-64579447D01*
X54607417Y-64567031D01*
X54601228Y-64553946D01*
X54596351Y-64540317D01*
X54592834Y-64526276D01*
X54590710Y-64511958D01*
X54590000Y-64497500D01*
X54590000Y-64152500D01*
X54590710Y-64138042D01*
X54592834Y-64123724D01*
X54596351Y-64109683D01*
X54601228Y-64096054D01*
X54607417Y-64082969D01*
X54614858Y-64070553D01*
X54623481Y-64058927D01*
X54633202Y-64048202D01*
X54643927Y-64038481D01*
X54655553Y-64029858D01*
X54667969Y-64022417D01*
X54681054Y-64016228D01*
X54694683Y-64011351D01*
X54708724Y-64007834D01*
X54723042Y-64005710D01*
X54737500Y-64005000D01*
X55032500Y-64005000D01*
X55046958Y-64005710D01*
X55046958Y-64005710D01*
G37*
D15*
X54885000Y-64325000D03*
D10*
G36*
X54076958Y-64005710D02*
G01*
X54091276Y-64007834D01*
X54105317Y-64011351D01*
X54118946Y-64016228D01*
X54132031Y-64022417D01*
X54144447Y-64029858D01*
X54156073Y-64038481D01*
X54166798Y-64048202D01*
X54176519Y-64058927D01*
X54185142Y-64070553D01*
X54192583Y-64082969D01*
X54198772Y-64096054D01*
X54203649Y-64109683D01*
X54207166Y-64123724D01*
X54209290Y-64138042D01*
X54210000Y-64152500D01*
X54210000Y-64497500D01*
X54209290Y-64511958D01*
X54207166Y-64526276D01*
X54203649Y-64540317D01*
X54198772Y-64553946D01*
X54192583Y-64567031D01*
X54185142Y-64579447D01*
X54176519Y-64591073D01*
X54166798Y-64601798D01*
X54156073Y-64611519D01*
X54144447Y-64620142D01*
X54132031Y-64627583D01*
X54118946Y-64633772D01*
X54105317Y-64638649D01*
X54091276Y-64642166D01*
X54076958Y-64644290D01*
X54062500Y-64645000D01*
X53767500Y-64645000D01*
X53753042Y-64644290D01*
X53738724Y-64642166D01*
X53724683Y-64638649D01*
X53711054Y-64633772D01*
X53697969Y-64627583D01*
X53685553Y-64620142D01*
X53673927Y-64611519D01*
X53663202Y-64601798D01*
X53653481Y-64591073D01*
X53644858Y-64579447D01*
X53637417Y-64567031D01*
X53631228Y-64553946D01*
X53626351Y-64540317D01*
X53622834Y-64526276D01*
X53620710Y-64511958D01*
X53620000Y-64497500D01*
X53620000Y-64152500D01*
X53620710Y-64138042D01*
X53622834Y-64123724D01*
X53626351Y-64109683D01*
X53631228Y-64096054D01*
X53637417Y-64082969D01*
X53644858Y-64070553D01*
X53653481Y-64058927D01*
X53663202Y-64048202D01*
X53673927Y-64038481D01*
X53685553Y-64029858D01*
X53697969Y-64022417D01*
X53711054Y-64016228D01*
X53724683Y-64011351D01*
X53738724Y-64007834D01*
X53753042Y-64005710D01*
X53767500Y-64005000D01*
X54062500Y-64005000D01*
X54076958Y-64005710D01*
X54076958Y-64005710D01*
G37*
D15*
X53915000Y-64325000D03*
D10*
G36*
X51486958Y-53870710D02*
G01*
X51501276Y-53872834D01*
X51515317Y-53876351D01*
X51528946Y-53881228D01*
X51542031Y-53887417D01*
X51554447Y-53894858D01*
X51566073Y-53903481D01*
X51576798Y-53913202D01*
X51586519Y-53923927D01*
X51595142Y-53935553D01*
X51602583Y-53947969D01*
X51608772Y-53961054D01*
X51613649Y-53974683D01*
X51617166Y-53988724D01*
X51619290Y-54003042D01*
X51620000Y-54017500D01*
X51620000Y-54312500D01*
X51619290Y-54326958D01*
X51617166Y-54341276D01*
X51613649Y-54355317D01*
X51608772Y-54368946D01*
X51602583Y-54382031D01*
X51595142Y-54394447D01*
X51586519Y-54406073D01*
X51576798Y-54416798D01*
X51566073Y-54426519D01*
X51554447Y-54435142D01*
X51542031Y-54442583D01*
X51528946Y-54448772D01*
X51515317Y-54453649D01*
X51501276Y-54457166D01*
X51486958Y-54459290D01*
X51472500Y-54460000D01*
X51127500Y-54460000D01*
X51113042Y-54459290D01*
X51098724Y-54457166D01*
X51084683Y-54453649D01*
X51071054Y-54448772D01*
X51057969Y-54442583D01*
X51045553Y-54435142D01*
X51033927Y-54426519D01*
X51023202Y-54416798D01*
X51013481Y-54406073D01*
X51004858Y-54394447D01*
X50997417Y-54382031D01*
X50991228Y-54368946D01*
X50986351Y-54355317D01*
X50982834Y-54341276D01*
X50980710Y-54326958D01*
X50980000Y-54312500D01*
X50980000Y-54017500D01*
X50980710Y-54003042D01*
X50982834Y-53988724D01*
X50986351Y-53974683D01*
X50991228Y-53961054D01*
X50997417Y-53947969D01*
X51004858Y-53935553D01*
X51013481Y-53923927D01*
X51023202Y-53913202D01*
X51033927Y-53903481D01*
X51045553Y-53894858D01*
X51057969Y-53887417D01*
X51071054Y-53881228D01*
X51084683Y-53876351D01*
X51098724Y-53872834D01*
X51113042Y-53870710D01*
X51127500Y-53870000D01*
X51472500Y-53870000D01*
X51486958Y-53870710D01*
X51486958Y-53870710D01*
G37*
D15*
X51300000Y-54165000D03*
D10*
G36*
X51486958Y-54840710D02*
G01*
X51501276Y-54842834D01*
X51515317Y-54846351D01*
X51528946Y-54851228D01*
X51542031Y-54857417D01*
X51554447Y-54864858D01*
X51566073Y-54873481D01*
X51576798Y-54883202D01*
X51586519Y-54893927D01*
X51595142Y-54905553D01*
X51602583Y-54917969D01*
X51608772Y-54931054D01*
X51613649Y-54944683D01*
X51617166Y-54958724D01*
X51619290Y-54973042D01*
X51620000Y-54987500D01*
X51620000Y-55282500D01*
X51619290Y-55296958D01*
X51617166Y-55311276D01*
X51613649Y-55325317D01*
X51608772Y-55338946D01*
X51602583Y-55352031D01*
X51595142Y-55364447D01*
X51586519Y-55376073D01*
X51576798Y-55386798D01*
X51566073Y-55396519D01*
X51554447Y-55405142D01*
X51542031Y-55412583D01*
X51528946Y-55418772D01*
X51515317Y-55423649D01*
X51501276Y-55427166D01*
X51486958Y-55429290D01*
X51472500Y-55430000D01*
X51127500Y-55430000D01*
X51113042Y-55429290D01*
X51098724Y-55427166D01*
X51084683Y-55423649D01*
X51071054Y-55418772D01*
X51057969Y-55412583D01*
X51045553Y-55405142D01*
X51033927Y-55396519D01*
X51023202Y-55386798D01*
X51013481Y-55376073D01*
X51004858Y-55364447D01*
X50997417Y-55352031D01*
X50991228Y-55338946D01*
X50986351Y-55325317D01*
X50982834Y-55311276D01*
X50980710Y-55296958D01*
X50980000Y-55282500D01*
X50980000Y-54987500D01*
X50980710Y-54973042D01*
X50982834Y-54958724D01*
X50986351Y-54944683D01*
X50991228Y-54931054D01*
X50997417Y-54917969D01*
X51004858Y-54905553D01*
X51013481Y-54893927D01*
X51023202Y-54883202D01*
X51033927Y-54873481D01*
X51045553Y-54864858D01*
X51057969Y-54857417D01*
X51071054Y-54851228D01*
X51084683Y-54846351D01*
X51098724Y-54842834D01*
X51113042Y-54840710D01*
X51127500Y-54840000D01*
X51472500Y-54840000D01*
X51486958Y-54840710D01*
X51486958Y-54840710D01*
G37*
D15*
X51300000Y-55135000D03*
D10*
G36*
X51486958Y-57120710D02*
G01*
X51501276Y-57122834D01*
X51515317Y-57126351D01*
X51528946Y-57131228D01*
X51542031Y-57137417D01*
X51554447Y-57144858D01*
X51566073Y-57153481D01*
X51576798Y-57163202D01*
X51586519Y-57173927D01*
X51595142Y-57185553D01*
X51602583Y-57197969D01*
X51608772Y-57211054D01*
X51613649Y-57224683D01*
X51617166Y-57238724D01*
X51619290Y-57253042D01*
X51620000Y-57267500D01*
X51620000Y-57562500D01*
X51619290Y-57576958D01*
X51617166Y-57591276D01*
X51613649Y-57605317D01*
X51608772Y-57618946D01*
X51602583Y-57632031D01*
X51595142Y-57644447D01*
X51586519Y-57656073D01*
X51576798Y-57666798D01*
X51566073Y-57676519D01*
X51554447Y-57685142D01*
X51542031Y-57692583D01*
X51528946Y-57698772D01*
X51515317Y-57703649D01*
X51501276Y-57707166D01*
X51486958Y-57709290D01*
X51472500Y-57710000D01*
X51127500Y-57710000D01*
X51113042Y-57709290D01*
X51098724Y-57707166D01*
X51084683Y-57703649D01*
X51071054Y-57698772D01*
X51057969Y-57692583D01*
X51045553Y-57685142D01*
X51033927Y-57676519D01*
X51023202Y-57666798D01*
X51013481Y-57656073D01*
X51004858Y-57644447D01*
X50997417Y-57632031D01*
X50991228Y-57618946D01*
X50986351Y-57605317D01*
X50982834Y-57591276D01*
X50980710Y-57576958D01*
X50980000Y-57562500D01*
X50980000Y-57267500D01*
X50980710Y-57253042D01*
X50982834Y-57238724D01*
X50986351Y-57224683D01*
X50991228Y-57211054D01*
X50997417Y-57197969D01*
X51004858Y-57185553D01*
X51013481Y-57173927D01*
X51023202Y-57163202D01*
X51033927Y-57153481D01*
X51045553Y-57144858D01*
X51057969Y-57137417D01*
X51071054Y-57131228D01*
X51084683Y-57126351D01*
X51098724Y-57122834D01*
X51113042Y-57120710D01*
X51127500Y-57120000D01*
X51472500Y-57120000D01*
X51486958Y-57120710D01*
X51486958Y-57120710D01*
G37*
D15*
X51300000Y-57415000D03*
D10*
G36*
X51486958Y-58090710D02*
G01*
X51501276Y-58092834D01*
X51515317Y-58096351D01*
X51528946Y-58101228D01*
X51542031Y-58107417D01*
X51554447Y-58114858D01*
X51566073Y-58123481D01*
X51576798Y-58133202D01*
X51586519Y-58143927D01*
X51595142Y-58155553D01*
X51602583Y-58167969D01*
X51608772Y-58181054D01*
X51613649Y-58194683D01*
X51617166Y-58208724D01*
X51619290Y-58223042D01*
X51620000Y-58237500D01*
X51620000Y-58532500D01*
X51619290Y-58546958D01*
X51617166Y-58561276D01*
X51613649Y-58575317D01*
X51608772Y-58588946D01*
X51602583Y-58602031D01*
X51595142Y-58614447D01*
X51586519Y-58626073D01*
X51576798Y-58636798D01*
X51566073Y-58646519D01*
X51554447Y-58655142D01*
X51542031Y-58662583D01*
X51528946Y-58668772D01*
X51515317Y-58673649D01*
X51501276Y-58677166D01*
X51486958Y-58679290D01*
X51472500Y-58680000D01*
X51127500Y-58680000D01*
X51113042Y-58679290D01*
X51098724Y-58677166D01*
X51084683Y-58673649D01*
X51071054Y-58668772D01*
X51057969Y-58662583D01*
X51045553Y-58655142D01*
X51033927Y-58646519D01*
X51023202Y-58636798D01*
X51013481Y-58626073D01*
X51004858Y-58614447D01*
X50997417Y-58602031D01*
X50991228Y-58588946D01*
X50986351Y-58575317D01*
X50982834Y-58561276D01*
X50980710Y-58546958D01*
X50980000Y-58532500D01*
X50980000Y-58237500D01*
X50980710Y-58223042D01*
X50982834Y-58208724D01*
X50986351Y-58194683D01*
X50991228Y-58181054D01*
X50997417Y-58167969D01*
X51004858Y-58155553D01*
X51013481Y-58143927D01*
X51023202Y-58133202D01*
X51033927Y-58123481D01*
X51045553Y-58114858D01*
X51057969Y-58107417D01*
X51071054Y-58101228D01*
X51084683Y-58096351D01*
X51098724Y-58092834D01*
X51113042Y-58090710D01*
X51127500Y-58090000D01*
X51472500Y-58090000D01*
X51486958Y-58090710D01*
X51486958Y-58090710D01*
G37*
D15*
X51300000Y-58385000D03*
D10*
G36*
X59576958Y-59755710D02*
G01*
X59591276Y-59757834D01*
X59605317Y-59761351D01*
X59618946Y-59766228D01*
X59632031Y-59772417D01*
X59644447Y-59779858D01*
X59656073Y-59788481D01*
X59666798Y-59798202D01*
X59676519Y-59808927D01*
X59685142Y-59820553D01*
X59692583Y-59832969D01*
X59698772Y-59846054D01*
X59703649Y-59859683D01*
X59707166Y-59873724D01*
X59709290Y-59888042D01*
X59710000Y-59902500D01*
X59710000Y-60247500D01*
X59709290Y-60261958D01*
X59707166Y-60276276D01*
X59703649Y-60290317D01*
X59698772Y-60303946D01*
X59692583Y-60317031D01*
X59685142Y-60329447D01*
X59676519Y-60341073D01*
X59666798Y-60351798D01*
X59656073Y-60361519D01*
X59644447Y-60370142D01*
X59632031Y-60377583D01*
X59618946Y-60383772D01*
X59605317Y-60388649D01*
X59591276Y-60392166D01*
X59576958Y-60394290D01*
X59562500Y-60395000D01*
X59267500Y-60395000D01*
X59253042Y-60394290D01*
X59238724Y-60392166D01*
X59224683Y-60388649D01*
X59211054Y-60383772D01*
X59197969Y-60377583D01*
X59185553Y-60370142D01*
X59173927Y-60361519D01*
X59163202Y-60351798D01*
X59153481Y-60341073D01*
X59144858Y-60329447D01*
X59137417Y-60317031D01*
X59131228Y-60303946D01*
X59126351Y-60290317D01*
X59122834Y-60276276D01*
X59120710Y-60261958D01*
X59120000Y-60247500D01*
X59120000Y-59902500D01*
X59120710Y-59888042D01*
X59122834Y-59873724D01*
X59126351Y-59859683D01*
X59131228Y-59846054D01*
X59137417Y-59832969D01*
X59144858Y-59820553D01*
X59153481Y-59808927D01*
X59163202Y-59798202D01*
X59173927Y-59788481D01*
X59185553Y-59779858D01*
X59197969Y-59772417D01*
X59211054Y-59766228D01*
X59224683Y-59761351D01*
X59238724Y-59757834D01*
X59253042Y-59755710D01*
X59267500Y-59755000D01*
X59562500Y-59755000D01*
X59576958Y-59755710D01*
X59576958Y-59755710D01*
G37*
D15*
X59415000Y-60075000D03*
D10*
G36*
X60546958Y-59755710D02*
G01*
X60561276Y-59757834D01*
X60575317Y-59761351D01*
X60588946Y-59766228D01*
X60602031Y-59772417D01*
X60614447Y-59779858D01*
X60626073Y-59788481D01*
X60636798Y-59798202D01*
X60646519Y-59808927D01*
X60655142Y-59820553D01*
X60662583Y-59832969D01*
X60668772Y-59846054D01*
X60673649Y-59859683D01*
X60677166Y-59873724D01*
X60679290Y-59888042D01*
X60680000Y-59902500D01*
X60680000Y-60247500D01*
X60679290Y-60261958D01*
X60677166Y-60276276D01*
X60673649Y-60290317D01*
X60668772Y-60303946D01*
X60662583Y-60317031D01*
X60655142Y-60329447D01*
X60646519Y-60341073D01*
X60636798Y-60351798D01*
X60626073Y-60361519D01*
X60614447Y-60370142D01*
X60602031Y-60377583D01*
X60588946Y-60383772D01*
X60575317Y-60388649D01*
X60561276Y-60392166D01*
X60546958Y-60394290D01*
X60532500Y-60395000D01*
X60237500Y-60395000D01*
X60223042Y-60394290D01*
X60208724Y-60392166D01*
X60194683Y-60388649D01*
X60181054Y-60383772D01*
X60167969Y-60377583D01*
X60155553Y-60370142D01*
X60143927Y-60361519D01*
X60133202Y-60351798D01*
X60123481Y-60341073D01*
X60114858Y-60329447D01*
X60107417Y-60317031D01*
X60101228Y-60303946D01*
X60096351Y-60290317D01*
X60092834Y-60276276D01*
X60090710Y-60261958D01*
X60090000Y-60247500D01*
X60090000Y-59902500D01*
X60090710Y-59888042D01*
X60092834Y-59873724D01*
X60096351Y-59859683D01*
X60101228Y-59846054D01*
X60107417Y-59832969D01*
X60114858Y-59820553D01*
X60123481Y-59808927D01*
X60133202Y-59798202D01*
X60143927Y-59788481D01*
X60155553Y-59779858D01*
X60167969Y-59772417D01*
X60181054Y-59766228D01*
X60194683Y-59761351D01*
X60208724Y-59757834D01*
X60223042Y-59755710D01*
X60237500Y-59755000D01*
X60532500Y-59755000D01*
X60546958Y-59755710D01*
X60546958Y-59755710D01*
G37*
D15*
X60385000Y-60075000D03*
D10*
G36*
X57786958Y-62260710D02*
G01*
X57801276Y-62262834D01*
X57815317Y-62266351D01*
X57828946Y-62271228D01*
X57842031Y-62277417D01*
X57854447Y-62284858D01*
X57866073Y-62293481D01*
X57876798Y-62303202D01*
X57886519Y-62313927D01*
X57895142Y-62325553D01*
X57902583Y-62337969D01*
X57908772Y-62351054D01*
X57913649Y-62364683D01*
X57917166Y-62378724D01*
X57919290Y-62393042D01*
X57920000Y-62407500D01*
X57920000Y-62702500D01*
X57919290Y-62716958D01*
X57917166Y-62731276D01*
X57913649Y-62745317D01*
X57908772Y-62758946D01*
X57902583Y-62772031D01*
X57895142Y-62784447D01*
X57886519Y-62796073D01*
X57876798Y-62806798D01*
X57866073Y-62816519D01*
X57854447Y-62825142D01*
X57842031Y-62832583D01*
X57828946Y-62838772D01*
X57815317Y-62843649D01*
X57801276Y-62847166D01*
X57786958Y-62849290D01*
X57772500Y-62850000D01*
X57427500Y-62850000D01*
X57413042Y-62849290D01*
X57398724Y-62847166D01*
X57384683Y-62843649D01*
X57371054Y-62838772D01*
X57357969Y-62832583D01*
X57345553Y-62825142D01*
X57333927Y-62816519D01*
X57323202Y-62806798D01*
X57313481Y-62796073D01*
X57304858Y-62784447D01*
X57297417Y-62772031D01*
X57291228Y-62758946D01*
X57286351Y-62745317D01*
X57282834Y-62731276D01*
X57280710Y-62716958D01*
X57280000Y-62702500D01*
X57280000Y-62407500D01*
X57280710Y-62393042D01*
X57282834Y-62378724D01*
X57286351Y-62364683D01*
X57291228Y-62351054D01*
X57297417Y-62337969D01*
X57304858Y-62325553D01*
X57313481Y-62313927D01*
X57323202Y-62303202D01*
X57333927Y-62293481D01*
X57345553Y-62284858D01*
X57357969Y-62277417D01*
X57371054Y-62271228D01*
X57384683Y-62266351D01*
X57398724Y-62262834D01*
X57413042Y-62260710D01*
X57427500Y-62260000D01*
X57772500Y-62260000D01*
X57786958Y-62260710D01*
X57786958Y-62260710D01*
G37*
D15*
X57600000Y-62555000D03*
D10*
G36*
X57786958Y-63230710D02*
G01*
X57801276Y-63232834D01*
X57815317Y-63236351D01*
X57828946Y-63241228D01*
X57842031Y-63247417D01*
X57854447Y-63254858D01*
X57866073Y-63263481D01*
X57876798Y-63273202D01*
X57886519Y-63283927D01*
X57895142Y-63295553D01*
X57902583Y-63307969D01*
X57908772Y-63321054D01*
X57913649Y-63334683D01*
X57917166Y-63348724D01*
X57919290Y-63363042D01*
X57920000Y-63377500D01*
X57920000Y-63672500D01*
X57919290Y-63686958D01*
X57917166Y-63701276D01*
X57913649Y-63715317D01*
X57908772Y-63728946D01*
X57902583Y-63742031D01*
X57895142Y-63754447D01*
X57886519Y-63766073D01*
X57876798Y-63776798D01*
X57866073Y-63786519D01*
X57854447Y-63795142D01*
X57842031Y-63802583D01*
X57828946Y-63808772D01*
X57815317Y-63813649D01*
X57801276Y-63817166D01*
X57786958Y-63819290D01*
X57772500Y-63820000D01*
X57427500Y-63820000D01*
X57413042Y-63819290D01*
X57398724Y-63817166D01*
X57384683Y-63813649D01*
X57371054Y-63808772D01*
X57357969Y-63802583D01*
X57345553Y-63795142D01*
X57333927Y-63786519D01*
X57323202Y-63776798D01*
X57313481Y-63766073D01*
X57304858Y-63754447D01*
X57297417Y-63742031D01*
X57291228Y-63728946D01*
X57286351Y-63715317D01*
X57282834Y-63701276D01*
X57280710Y-63686958D01*
X57280000Y-63672500D01*
X57280000Y-63377500D01*
X57280710Y-63363042D01*
X57282834Y-63348724D01*
X57286351Y-63334683D01*
X57291228Y-63321054D01*
X57297417Y-63307969D01*
X57304858Y-63295553D01*
X57313481Y-63283927D01*
X57323202Y-63273202D01*
X57333927Y-63263481D01*
X57345553Y-63254858D01*
X57357969Y-63247417D01*
X57371054Y-63241228D01*
X57384683Y-63236351D01*
X57398724Y-63232834D01*
X57413042Y-63230710D01*
X57427500Y-63230000D01*
X57772500Y-63230000D01*
X57786958Y-63230710D01*
X57786958Y-63230710D01*
G37*
D15*
X57600000Y-63525000D03*
D10*
G36*
X61036958Y-53515710D02*
G01*
X61051276Y-53517834D01*
X61065317Y-53521351D01*
X61078946Y-53526228D01*
X61092031Y-53532417D01*
X61104447Y-53539858D01*
X61116073Y-53548481D01*
X61126798Y-53558202D01*
X61136519Y-53568927D01*
X61145142Y-53580553D01*
X61152583Y-53592969D01*
X61158772Y-53606054D01*
X61163649Y-53619683D01*
X61167166Y-53633724D01*
X61169290Y-53648042D01*
X61170000Y-53662500D01*
X61170000Y-53957500D01*
X61169290Y-53971958D01*
X61167166Y-53986276D01*
X61163649Y-54000317D01*
X61158772Y-54013946D01*
X61152583Y-54027031D01*
X61145142Y-54039447D01*
X61136519Y-54051073D01*
X61126798Y-54061798D01*
X61116073Y-54071519D01*
X61104447Y-54080142D01*
X61092031Y-54087583D01*
X61078946Y-54093772D01*
X61065317Y-54098649D01*
X61051276Y-54102166D01*
X61036958Y-54104290D01*
X61022500Y-54105000D01*
X60677500Y-54105000D01*
X60663042Y-54104290D01*
X60648724Y-54102166D01*
X60634683Y-54098649D01*
X60621054Y-54093772D01*
X60607969Y-54087583D01*
X60595553Y-54080142D01*
X60583927Y-54071519D01*
X60573202Y-54061798D01*
X60563481Y-54051073D01*
X60554858Y-54039447D01*
X60547417Y-54027031D01*
X60541228Y-54013946D01*
X60536351Y-54000317D01*
X60532834Y-53986276D01*
X60530710Y-53971958D01*
X60530000Y-53957500D01*
X60530000Y-53662500D01*
X60530710Y-53648042D01*
X60532834Y-53633724D01*
X60536351Y-53619683D01*
X60541228Y-53606054D01*
X60547417Y-53592969D01*
X60554858Y-53580553D01*
X60563481Y-53568927D01*
X60573202Y-53558202D01*
X60583927Y-53548481D01*
X60595553Y-53539858D01*
X60607969Y-53532417D01*
X60621054Y-53526228D01*
X60634683Y-53521351D01*
X60648724Y-53517834D01*
X60663042Y-53515710D01*
X60677500Y-53515000D01*
X61022500Y-53515000D01*
X61036958Y-53515710D01*
X61036958Y-53515710D01*
G37*
D15*
X60850000Y-53810000D03*
D10*
G36*
X61036958Y-52545710D02*
G01*
X61051276Y-52547834D01*
X61065317Y-52551351D01*
X61078946Y-52556228D01*
X61092031Y-52562417D01*
X61104447Y-52569858D01*
X61116073Y-52578481D01*
X61126798Y-52588202D01*
X61136519Y-52598927D01*
X61145142Y-52610553D01*
X61152583Y-52622969D01*
X61158772Y-52636054D01*
X61163649Y-52649683D01*
X61167166Y-52663724D01*
X61169290Y-52678042D01*
X61170000Y-52692500D01*
X61170000Y-52987500D01*
X61169290Y-53001958D01*
X61167166Y-53016276D01*
X61163649Y-53030317D01*
X61158772Y-53043946D01*
X61152583Y-53057031D01*
X61145142Y-53069447D01*
X61136519Y-53081073D01*
X61126798Y-53091798D01*
X61116073Y-53101519D01*
X61104447Y-53110142D01*
X61092031Y-53117583D01*
X61078946Y-53123772D01*
X61065317Y-53128649D01*
X61051276Y-53132166D01*
X61036958Y-53134290D01*
X61022500Y-53135000D01*
X60677500Y-53135000D01*
X60663042Y-53134290D01*
X60648724Y-53132166D01*
X60634683Y-53128649D01*
X60621054Y-53123772D01*
X60607969Y-53117583D01*
X60595553Y-53110142D01*
X60583927Y-53101519D01*
X60573202Y-53091798D01*
X60563481Y-53081073D01*
X60554858Y-53069447D01*
X60547417Y-53057031D01*
X60541228Y-53043946D01*
X60536351Y-53030317D01*
X60532834Y-53016276D01*
X60530710Y-53001958D01*
X60530000Y-52987500D01*
X60530000Y-52692500D01*
X60530710Y-52678042D01*
X60532834Y-52663724D01*
X60536351Y-52649683D01*
X60541228Y-52636054D01*
X60547417Y-52622969D01*
X60554858Y-52610553D01*
X60563481Y-52598927D01*
X60573202Y-52588202D01*
X60583927Y-52578481D01*
X60595553Y-52569858D01*
X60607969Y-52562417D01*
X60621054Y-52556228D01*
X60634683Y-52551351D01*
X60648724Y-52547834D01*
X60663042Y-52545710D01*
X60677500Y-52545000D01*
X61022500Y-52545000D01*
X61036958Y-52545710D01*
X61036958Y-52545710D01*
G37*
D15*
X60850000Y-52840000D03*
D16*
X53925000Y-63175000D03*
X53925000Y-61275000D03*
X55925000Y-62225000D03*
D17*
X58530000Y-62720000D03*
X54225000Y-63700000D03*
X54250000Y-63050000D03*
D18*
X59975000Y-51300000D03*
D17*
X59090000Y-62610000D03*
X54145000Y-60130000D03*
X60210000Y-59100000D03*
X52825000Y-62700000D03*
X52125000Y-62500000D03*
X52375000Y-61750000D03*
X51525000Y-62025000D03*
X57900000Y-60429999D03*
X58603937Y-60140049D03*
X56525000Y-63575000D03*
X56525000Y-64300000D03*
X55750000Y-64325000D03*
X55441490Y-60963088D03*
D19*
X53850000Y-59575000D02*
X53900000Y-59625000D01*
X53850000Y-59037500D02*
X53850000Y-59575000D01*
X53900000Y-59885000D02*
X54145000Y-60130000D01*
X53900000Y-59625000D02*
X53900000Y-59885000D01*
X58350000Y-52162500D02*
X58350000Y-52700000D01*
X53850000Y-59037500D02*
X53850000Y-58500000D01*
X58350000Y-52700000D02*
X58050000Y-53000000D01*
X60275010Y-58050010D02*
X60075000Y-57850000D01*
X60075000Y-57850000D02*
X59537500Y-57850000D01*
X60385000Y-58160000D02*
X60075000Y-57850000D01*
X60385000Y-60075000D02*
X60385000Y-58160000D01*
X54145000Y-60130000D02*
X54265000Y-60250000D01*
D20*
X53850000Y-59037500D02*
X53850000Y-58315292D01*
X53850000Y-58315292D02*
X53982646Y-58182646D01*
D21*
X52652500Y-54850000D02*
X51230000Y-54850000D01*
X51300000Y-54920000D02*
X51300000Y-55135000D01*
X51230000Y-54850000D02*
X51300000Y-54920000D01*
D20*
X58821490Y-52888510D02*
X58821490Y-52191010D01*
X58821490Y-52191010D02*
X58850000Y-52162500D01*
X59508990Y-58321490D02*
X58641490Y-58321490D01*
X59537500Y-58350000D02*
X59508990Y-58321490D01*
D19*
X53770000Y-54920000D02*
X53200000Y-54350000D01*
X53200000Y-54350000D02*
X52662500Y-54350000D01*
X51485000Y-54350000D02*
X52662500Y-54350000D01*
D20*
X51300000Y-54165000D02*
X51485000Y-54350000D01*
D19*
X53280000Y-58350000D02*
X52662500Y-58350000D01*
X53770000Y-57860000D02*
X53280000Y-58350000D01*
X53350000Y-58280000D02*
X53350000Y-59037500D01*
X53770000Y-57860000D02*
X53350000Y-58280000D01*
X58570000Y-58250000D02*
X58370000Y-58050000D01*
D20*
X58641490Y-58321490D02*
X58570000Y-58250000D01*
D19*
X58370000Y-53340000D02*
X58690000Y-53020000D01*
D20*
X58690000Y-53020000D02*
X58821490Y-52888510D01*
D19*
X53770000Y-57860000D02*
X53770000Y-54920000D01*
X52662500Y-58350000D02*
X51950000Y-58350000D01*
X58370000Y-58050000D02*
X58370000Y-53340000D01*
X53350000Y-59575000D02*
X53350000Y-59037500D01*
X53350000Y-60750000D02*
X53350000Y-59575000D01*
X53875000Y-61275000D02*
X53350000Y-60750000D01*
X53925000Y-61275000D02*
X53875000Y-61275000D01*
X51335000Y-58350000D02*
X51300000Y-58385000D01*
X52662500Y-58350000D02*
X51335000Y-58350000D01*
X50805000Y-58880000D02*
X51300000Y-58385000D01*
X50805000Y-60400000D02*
X50805000Y-58880000D01*
X60172500Y-52162500D02*
X58850000Y-52162500D01*
X60850000Y-52840000D02*
X60172500Y-52162500D01*
X50805000Y-64000000D02*
X50400010Y-63595010D01*
X50400010Y-63595010D02*
X50400010Y-60804990D01*
X50400010Y-60804990D02*
X50805000Y-60400000D01*
X59415000Y-59595000D02*
X59415000Y-60075000D01*
X59537500Y-58350000D02*
X59415000Y-58472500D01*
X59415000Y-58472500D02*
X59415000Y-59595000D01*
X58520000Y-51280000D02*
X52360000Y-51280000D01*
X51300000Y-52340000D02*
X51300000Y-54165000D01*
X52360000Y-51280000D02*
X51300000Y-52340000D01*
X58850000Y-52162500D02*
X58850000Y-51610000D01*
X58850000Y-51610000D02*
X58520000Y-51280000D01*
X55925000Y-63285000D02*
X55925000Y-62225000D01*
X54885000Y-64325000D02*
X55925000Y-63285000D01*
X53124999Y-62400001D02*
X52825000Y-62700000D01*
X55099999Y-62400001D02*
X53124999Y-62400001D01*
X55275000Y-62225000D02*
X55099999Y-62400001D01*
X55925000Y-62225000D02*
X55275000Y-62225000D01*
X60239132Y-56350000D02*
X61475011Y-57585879D01*
X59537500Y-56350000D02*
X60239132Y-56350000D01*
X61475011Y-60524989D02*
X60951043Y-61048957D01*
X58518958Y-61048957D02*
X58199999Y-60729998D01*
X58199999Y-60729998D02*
X57900000Y-60429999D01*
X60951043Y-61048957D02*
X58518958Y-61048957D01*
X61475011Y-57585879D02*
X61475011Y-60524989D01*
X59537500Y-56850000D02*
X60075000Y-56850000D01*
X58728570Y-60688946D02*
X58603937Y-60564313D01*
X61075000Y-60359300D02*
X60745354Y-60688946D01*
X61075000Y-57850000D02*
X61075000Y-60359300D01*
X58603937Y-60564313D02*
X58603937Y-60140049D01*
X60745354Y-60688946D02*
X58728570Y-60688946D01*
X60075000Y-56850000D02*
X61075000Y-57850000D01*
D20*
X53196499Y-61897801D02*
X53196499Y-61271499D01*
X53252199Y-61953501D02*
X53196499Y-61897801D01*
X54597801Y-61953501D02*
X53252199Y-61953501D01*
X54653501Y-61897801D02*
X54597801Y-61953501D01*
X52325000Y-60400000D02*
X52245000Y-60400000D01*
X53196499Y-61271499D02*
X52325000Y-60400000D01*
D19*
X52245000Y-60670000D02*
X52245000Y-60400000D01*
X52250000Y-60675000D02*
X52245000Y-60670000D01*
X50800021Y-62250021D02*
X50800021Y-61699979D01*
X50800021Y-61699979D02*
X51099999Y-61400001D01*
X52275000Y-63970000D02*
X52275000Y-63704998D01*
X52245000Y-64000000D02*
X52275000Y-63970000D01*
X52275000Y-63704998D02*
X51320002Y-62750000D01*
X51300000Y-62750000D02*
X50800021Y-62250021D01*
X51524999Y-61400001D02*
X52250000Y-60675000D01*
X51099999Y-61400001D02*
X51524999Y-61400001D01*
X51320002Y-62750000D02*
X51300000Y-62750000D01*
D20*
X54900832Y-61650470D02*
X54825000Y-61726302D01*
X54825000Y-61726302D02*
X54676302Y-61875000D01*
X55248698Y-61550000D02*
X55001302Y-61550000D01*
X55001302Y-61550000D02*
X54825000Y-61726302D01*
X55252199Y-61546499D02*
X55248698Y-61550000D01*
X56601302Y-61550000D02*
X56597801Y-61546499D01*
X56597801Y-61546499D02*
X56020000Y-61546499D01*
X56020000Y-61546499D02*
X55252199Y-61546499D01*
X56790000Y-61738698D02*
X56597801Y-61546499D01*
X57630000Y-62310000D02*
X57361302Y-62310000D01*
X57361302Y-62310000D02*
X56790000Y-61738698D01*
X54550000Y-58250000D02*
X54350000Y-58450000D01*
X54350000Y-58450000D02*
X54350000Y-59037500D01*
X55350000Y-59037500D02*
X55350000Y-58450000D01*
X55150000Y-58250000D02*
X54550000Y-58250000D01*
X55350000Y-58450000D02*
X55150000Y-58250000D01*
X55350000Y-60031641D02*
X55350000Y-59575000D01*
X56020000Y-61546499D02*
X56020000Y-60701641D01*
X55350000Y-59575000D02*
X55350000Y-59037500D01*
X56020000Y-60701641D02*
X55350000Y-60031641D01*
X54850000Y-60371598D02*
X55141491Y-60663089D01*
X55141491Y-60663089D02*
X55441490Y-60963088D01*
X54850000Y-59037500D02*
X54850000Y-60371598D01*
X60800000Y-63900000D02*
X59987011Y-63087011D01*
X59987011Y-63087011D02*
X59987011Y-61948690D01*
X59987011Y-61948690D02*
X59742800Y-61704479D01*
X56350000Y-60135000D02*
X56350000Y-59575000D01*
X56350000Y-59575000D02*
X56350000Y-59037500D01*
X59742800Y-61704479D02*
X57919479Y-61704479D01*
X57919479Y-61704479D02*
X56350000Y-60135000D01*
X56595000Y-58195000D02*
X56850000Y-58450000D01*
X56850000Y-58450000D02*
X56850000Y-59037500D01*
X56350000Y-59037500D02*
X56350000Y-58440000D01*
X56350000Y-58440000D02*
X56595000Y-58195000D01*
X59611490Y-62021490D02*
X57788169Y-62021490D01*
X55850000Y-59575000D02*
X55850000Y-59037500D01*
X59670000Y-63800000D02*
X59670000Y-62080000D01*
X57788169Y-62021490D02*
X55850000Y-60083321D01*
X55850000Y-60083321D02*
X55850000Y-59575000D01*
X59200000Y-63900000D02*
X59570000Y-63900000D01*
X59570000Y-63900000D02*
X59670000Y-63800000D01*
X59670000Y-62080000D02*
X59611490Y-62021490D01*
X57350000Y-58500000D02*
X57350000Y-59037500D01*
X55850000Y-58401680D02*
X56428690Y-57822990D01*
X55850000Y-59037500D02*
X55850000Y-58401680D01*
X56428690Y-57822990D02*
X56712990Y-57822990D01*
X56712990Y-57822990D02*
X57350000Y-58460000D01*
X57350000Y-58460000D02*
X57350000Y-58500000D01*
X57260000Y-60165000D02*
X57260000Y-60596680D01*
X60047468Y-61387468D02*
X60317158Y-61657158D01*
X57850000Y-59575000D02*
X57260000Y-60165000D01*
X57260000Y-60596680D02*
X58050788Y-61387468D01*
X60317158Y-61657158D02*
X60900000Y-62240000D01*
X57850000Y-59037500D02*
X57850000Y-59575000D01*
X58050788Y-61387468D02*
X60047468Y-61387468D01*
D19*
G36*
X55224353Y-62792477D02*
G01*
X55261842Y-62838158D01*
X55307523Y-62875647D01*
X55359640Y-62903504D01*
X55416190Y-62920659D01*
X55475000Y-62926451D01*
X55525000Y-62926451D01*
X55525000Y-63119314D01*
X54940766Y-63703549D01*
X54737500Y-63703549D01*
X54649914Y-63712175D01*
X54640284Y-63715096D01*
X54653505Y-63690361D01*
X54670660Y-63633810D01*
X54676452Y-63575000D01*
X54675000Y-63404000D01*
X54600000Y-63329000D01*
X54079000Y-63329000D01*
X54079000Y-63770000D01*
X54069000Y-63780000D01*
X54069000Y-64171000D01*
X54089000Y-64171000D01*
X54089000Y-64479000D01*
X54069000Y-64479000D01*
X54069000Y-64499000D01*
X53761000Y-64499000D01*
X53761000Y-64479000D01*
X53395000Y-64479000D01*
X53320000Y-64554000D01*
X53319266Y-64600000D01*
X53071451Y-64600000D01*
X53071451Y-63300000D01*
X53066469Y-63249416D01*
X53109207Y-63231713D01*
X53175000Y-63187751D01*
X53175000Y-63329002D01*
X53249998Y-63329002D01*
X53175000Y-63404000D01*
X53173548Y-63575000D01*
X53179340Y-63633810D01*
X53196495Y-63690361D01*
X53224352Y-63742478D01*
X53261841Y-63788159D01*
X53307522Y-63825648D01*
X53359639Y-63853505D01*
X53360646Y-63853810D01*
X53341495Y-63889639D01*
X53324340Y-63946190D01*
X53318548Y-64005000D01*
X53320000Y-64096000D01*
X53395000Y-64171000D01*
X53761000Y-64171000D01*
X53761000Y-63810000D01*
X53771000Y-63800000D01*
X53771000Y-63329000D01*
X53751000Y-63329000D01*
X53751000Y-63021000D01*
X53771000Y-63021000D01*
X53771000Y-63001000D01*
X54079000Y-63001000D01*
X54079000Y-63021000D01*
X54600000Y-63021000D01*
X54675000Y-62946000D01*
X54676240Y-62800001D01*
X55080353Y-62800001D01*
X55099999Y-62801936D01*
X55119645Y-62800001D01*
X55119646Y-62800001D01*
X55178413Y-62794213D01*
X55218742Y-62781980D01*
X55224353Y-62792477D01*
X55224353Y-62792477D01*
G37*
X55224353Y-62792477D02*
X55261842Y-62838158D01*
X55307523Y-62875647D01*
X55359640Y-62903504D01*
X55416190Y-62920659D01*
X55475000Y-62926451D01*
X55525000Y-62926451D01*
X55525000Y-63119314D01*
X54940766Y-63703549D01*
X54737500Y-63703549D01*
X54649914Y-63712175D01*
X54640284Y-63715096D01*
X54653505Y-63690361D01*
X54670660Y-63633810D01*
X54676452Y-63575000D01*
X54675000Y-63404000D01*
X54600000Y-63329000D01*
X54079000Y-63329000D01*
X54079000Y-63770000D01*
X54069000Y-63780000D01*
X54069000Y-64171000D01*
X54089000Y-64171000D01*
X54089000Y-64479000D01*
X54069000Y-64479000D01*
X54069000Y-64499000D01*
X53761000Y-64499000D01*
X53761000Y-64479000D01*
X53395000Y-64479000D01*
X53320000Y-64554000D01*
X53319266Y-64600000D01*
X53071451Y-64600000D01*
X53071451Y-63300000D01*
X53066469Y-63249416D01*
X53109207Y-63231713D01*
X53175000Y-63187751D01*
X53175000Y-63329002D01*
X53249998Y-63329002D01*
X53175000Y-63404000D01*
X53173548Y-63575000D01*
X53179340Y-63633810D01*
X53196495Y-63690361D01*
X53224352Y-63742478D01*
X53261841Y-63788159D01*
X53307522Y-63825648D01*
X53359639Y-63853505D01*
X53360646Y-63853810D01*
X53341495Y-63889639D01*
X53324340Y-63946190D01*
X53318548Y-64005000D01*
X53320000Y-64096000D01*
X53395000Y-64171000D01*
X53761000Y-64171000D01*
X53761000Y-63810000D01*
X53771000Y-63800000D01*
X53771000Y-63329000D01*
X53751000Y-63329000D01*
X53751000Y-63021000D01*
X53771000Y-63021000D01*
X53771000Y-63001000D01*
X54079000Y-63001000D01*
X54079000Y-63021000D01*
X54600000Y-63021000D01*
X54675000Y-62946000D01*
X54676240Y-62800001D01*
X55080353Y-62800001D01*
X55099999Y-62801936D01*
X55119645Y-62800001D01*
X55119646Y-62800001D01*
X55178413Y-62794213D01*
X55218742Y-62781980D01*
X55224353Y-62792477D01*
G36*
X59291500Y-62998549D02*
G01*
X58900000Y-62998549D01*
X58782663Y-63010106D01*
X58669835Y-63044332D01*
X58565852Y-63099912D01*
X58474710Y-63174710D01*
X58399912Y-63265852D01*
X58344332Y-63369835D01*
X58310106Y-63482663D01*
X58298549Y-63600000D01*
X58298549Y-64200000D01*
X58310106Y-64317337D01*
X58344332Y-64430165D01*
X58399912Y-64534148D01*
X58453955Y-64600000D01*
X57046160Y-64600000D01*
X57056713Y-64584207D01*
X57101942Y-64475014D01*
X57125000Y-64359095D01*
X57125000Y-64240905D01*
X57101942Y-64124986D01*
X57060915Y-64025939D01*
X57066841Y-64033159D01*
X57112522Y-64070648D01*
X57164639Y-64098505D01*
X57221190Y-64115660D01*
X57280000Y-64121452D01*
X57371000Y-64120000D01*
X57446000Y-64045000D01*
X57446000Y-63679000D01*
X57754000Y-63679000D01*
X57754000Y-64045000D01*
X57829000Y-64120000D01*
X57920000Y-64121452D01*
X57978810Y-64115660D01*
X58035361Y-64098505D01*
X58087478Y-64070648D01*
X58133159Y-64033159D01*
X58170648Y-63987478D01*
X58198505Y-63935361D01*
X58215660Y-63878810D01*
X58221452Y-63820000D01*
X58220000Y-63754000D01*
X58145000Y-63679000D01*
X57754000Y-63679000D01*
X57446000Y-63679000D01*
X57426000Y-63679000D01*
X57426000Y-63371000D01*
X57446000Y-63371000D01*
X57446000Y-63351000D01*
X57754000Y-63351000D01*
X57754000Y-63371000D01*
X58145000Y-63371000D01*
X58220000Y-63296000D01*
X58221452Y-63230000D01*
X58215660Y-63171190D01*
X58198505Y-63114639D01*
X58170648Y-63062522D01*
X58133159Y-63016841D01*
X58108871Y-62996908D01*
X58145789Y-62951924D01*
X58187277Y-62874306D01*
X58212825Y-62790086D01*
X58221451Y-62702500D01*
X58221451Y-62407500D01*
X58220711Y-62399990D01*
X59291501Y-62399990D01*
X59291500Y-62998549D01*
X59291500Y-62998549D01*
G37*
X59291500Y-62998549D02*
X58900000Y-62998549D01*
X58782663Y-63010106D01*
X58669835Y-63044332D01*
X58565852Y-63099912D01*
X58474710Y-63174710D01*
X58399912Y-63265852D01*
X58344332Y-63369835D01*
X58310106Y-63482663D01*
X58298549Y-63600000D01*
X58298549Y-64200000D01*
X58310106Y-64317337D01*
X58344332Y-64430165D01*
X58399912Y-64534148D01*
X58453955Y-64600000D01*
X57046160Y-64600000D01*
X57056713Y-64584207D01*
X57101942Y-64475014D01*
X57125000Y-64359095D01*
X57125000Y-64240905D01*
X57101942Y-64124986D01*
X57060915Y-64025939D01*
X57066841Y-64033159D01*
X57112522Y-64070648D01*
X57164639Y-64098505D01*
X57221190Y-64115660D01*
X57280000Y-64121452D01*
X57371000Y-64120000D01*
X57446000Y-64045000D01*
X57446000Y-63679000D01*
X57754000Y-63679000D01*
X57754000Y-64045000D01*
X57829000Y-64120000D01*
X57920000Y-64121452D01*
X57978810Y-64115660D01*
X58035361Y-64098505D01*
X58087478Y-64070648D01*
X58133159Y-64033159D01*
X58170648Y-63987478D01*
X58198505Y-63935361D01*
X58215660Y-63878810D01*
X58221452Y-63820000D01*
X58220000Y-63754000D01*
X58145000Y-63679000D01*
X57754000Y-63679000D01*
X57446000Y-63679000D01*
X57426000Y-63679000D01*
X57426000Y-63371000D01*
X57446000Y-63371000D01*
X57446000Y-63351000D01*
X57754000Y-63351000D01*
X57754000Y-63371000D01*
X58145000Y-63371000D01*
X58220000Y-63296000D01*
X58221452Y-63230000D01*
X58215660Y-63171190D01*
X58198505Y-63114639D01*
X58170648Y-63062522D01*
X58133159Y-63016841D01*
X58108871Y-62996908D01*
X58145789Y-62951924D01*
X58187277Y-62874306D01*
X58212825Y-62790086D01*
X58221451Y-62702500D01*
X58221451Y-62407500D01*
X58220711Y-62399990D01*
X59291501Y-62399990D01*
X59291500Y-62998549D01*
G36*
X53865000Y-58883500D02*
G01*
X53913549Y-58883500D01*
X53913549Y-59191500D01*
X53865000Y-59191500D01*
X53865000Y-59700000D01*
X53940000Y-59775000D01*
X53965000Y-59776452D01*
X54023810Y-59770660D01*
X54080361Y-59753505D01*
X54113743Y-59735662D01*
X54138222Y-59748747D01*
X54206497Y-59769458D01*
X54277500Y-59776451D01*
X54402500Y-59776451D01*
X54471501Y-59769655D01*
X54471501Y-60352998D01*
X54469669Y-60371598D01*
X54476977Y-60445796D01*
X54498071Y-60515331D01*
X54498621Y-60517144D01*
X54533767Y-60582899D01*
X54581066Y-60640533D01*
X54595509Y-60652386D01*
X54842423Y-60899301D01*
X54841490Y-60903993D01*
X54841490Y-61022183D01*
X54864548Y-61138102D01*
X54885836Y-61189495D01*
X54855756Y-61198620D01*
X54790001Y-61233766D01*
X54732367Y-61281065D01*
X54720509Y-61295514D01*
X54676451Y-61339572D01*
X54676451Y-60875000D01*
X54670659Y-60816190D01*
X54653504Y-60759640D01*
X54625647Y-60707523D01*
X54588158Y-60661842D01*
X54542477Y-60624353D01*
X54490360Y-60596496D01*
X54433810Y-60579341D01*
X54375000Y-60573549D01*
X53750000Y-60573549D01*
X53750000Y-59765000D01*
X53815000Y-59700000D01*
X53815000Y-59191500D01*
X53766451Y-59191500D01*
X53766451Y-58883500D01*
X53815000Y-58883500D01*
X53815000Y-58863500D01*
X53865000Y-58863500D01*
X53865000Y-58883500D01*
X53865000Y-58883500D01*
G37*
X53865000Y-58883500D02*
X53913549Y-58883500D01*
X53913549Y-59191500D01*
X53865000Y-59191500D01*
X53865000Y-59700000D01*
X53940000Y-59775000D01*
X53965000Y-59776452D01*
X54023810Y-59770660D01*
X54080361Y-59753505D01*
X54113743Y-59735662D01*
X54138222Y-59748747D01*
X54206497Y-59769458D01*
X54277500Y-59776451D01*
X54402500Y-59776451D01*
X54471501Y-59769655D01*
X54471501Y-60352998D01*
X54469669Y-60371598D01*
X54476977Y-60445796D01*
X54498071Y-60515331D01*
X54498621Y-60517144D01*
X54533767Y-60582899D01*
X54581066Y-60640533D01*
X54595509Y-60652386D01*
X54842423Y-60899301D01*
X54841490Y-60903993D01*
X54841490Y-61022183D01*
X54864548Y-61138102D01*
X54885836Y-61189495D01*
X54855756Y-61198620D01*
X54790001Y-61233766D01*
X54732367Y-61281065D01*
X54720509Y-61295514D01*
X54676451Y-61339572D01*
X54676451Y-60875000D01*
X54670659Y-60816190D01*
X54653504Y-60759640D01*
X54625647Y-60707523D01*
X54588158Y-60661842D01*
X54542477Y-60624353D01*
X54490360Y-60596496D01*
X54433810Y-60579341D01*
X54375000Y-60573549D01*
X53750000Y-60573549D01*
X53750000Y-59765000D01*
X53815000Y-59700000D01*
X53815000Y-59191500D01*
X53766451Y-59191500D01*
X53766451Y-58883500D01*
X53815000Y-58883500D01*
X53815000Y-58863500D01*
X53865000Y-58863500D01*
X53865000Y-58883500D01*
G36*
X58795542Y-53483503D02*
G01*
X58816253Y-53551778D01*
X58842029Y-53600000D01*
X58816253Y-53648222D01*
X58795542Y-53716497D01*
X58788549Y-53787500D01*
X58788549Y-53912500D01*
X58795542Y-53983503D01*
X58816253Y-54051778D01*
X58842029Y-54100000D01*
X58816253Y-54148222D01*
X58795542Y-54216497D01*
X58788549Y-54287500D01*
X58788549Y-54412500D01*
X58795542Y-54483503D01*
X58816253Y-54551778D01*
X58842029Y-54600000D01*
X58816253Y-54648222D01*
X58795542Y-54716497D01*
X58788549Y-54787500D01*
X58788549Y-54912500D01*
X58795542Y-54983503D01*
X58816253Y-55051778D01*
X58842029Y-55100000D01*
X58816253Y-55148222D01*
X58795542Y-55216497D01*
X58788549Y-55287500D01*
X58788549Y-55412500D01*
X58795542Y-55483503D01*
X58816253Y-55551778D01*
X58842029Y-55600000D01*
X58816253Y-55648222D01*
X58795542Y-55716497D01*
X58788549Y-55787500D01*
X58788549Y-55912500D01*
X58795542Y-55983503D01*
X58816253Y-56051778D01*
X58842029Y-56100000D01*
X58816253Y-56148222D01*
X58795542Y-56216497D01*
X58788549Y-56287500D01*
X58788549Y-56412500D01*
X58795542Y-56483503D01*
X58816253Y-56551778D01*
X58842029Y-56600000D01*
X58816253Y-56648222D01*
X58795542Y-56716497D01*
X58788549Y-56787500D01*
X58788549Y-56912500D01*
X58795542Y-56983503D01*
X58816253Y-57051778D01*
X58842029Y-57100000D01*
X58816253Y-57148222D01*
X58795542Y-57216497D01*
X58788549Y-57287500D01*
X58788549Y-57412500D01*
X58795542Y-57483503D01*
X58816253Y-57551778D01*
X58829338Y-57576257D01*
X58811495Y-57609639D01*
X58794340Y-57666190D01*
X58788548Y-57725000D01*
X58790000Y-57750000D01*
X58865000Y-57825000D01*
X59373500Y-57825000D01*
X59373500Y-57776451D01*
X59681500Y-57776451D01*
X59681500Y-57825000D01*
X60190000Y-57825000D01*
X60265000Y-57750000D01*
X60266452Y-57725000D01*
X60260660Y-57666190D01*
X60243505Y-57609639D01*
X60225662Y-57576257D01*
X60229114Y-57569799D01*
X60675000Y-58015685D01*
X60675001Y-59453658D01*
X60614000Y-59455000D01*
X60539000Y-59530000D01*
X60539000Y-59921000D01*
X60559000Y-59921000D01*
X60559000Y-60229000D01*
X60539000Y-60229000D01*
X60539000Y-60249000D01*
X60231000Y-60249000D01*
X60231000Y-60229000D01*
X60211000Y-60229000D01*
X60211000Y-59921000D01*
X60231000Y-59921000D01*
X60231000Y-59530000D01*
X60156000Y-59455000D01*
X60090000Y-59453548D01*
X60031190Y-59459340D01*
X59974639Y-59476495D01*
X59922522Y-59504352D01*
X59876841Y-59541841D01*
X59856908Y-59566129D01*
X59815000Y-59531735D01*
X59815000Y-58776451D01*
X59902500Y-58776451D01*
X59973503Y-58769458D01*
X60041778Y-58748747D01*
X60104700Y-58715114D01*
X60159852Y-58669852D01*
X60205114Y-58614700D01*
X60238747Y-58551778D01*
X60259458Y-58483503D01*
X60266451Y-58412500D01*
X60266451Y-58287500D01*
X60259458Y-58216497D01*
X60238747Y-58148222D01*
X60225662Y-58123743D01*
X60243505Y-58090361D01*
X60260660Y-58033810D01*
X60266452Y-57975000D01*
X60265000Y-57950000D01*
X60190000Y-57875000D01*
X59681500Y-57875000D01*
X59681500Y-57923549D01*
X59373500Y-57923549D01*
X59373500Y-57875000D01*
X58865000Y-57875000D01*
X58812842Y-57927158D01*
X58770000Y-57884316D01*
X58770000Y-53505685D01*
X58795241Y-53480444D01*
X58795542Y-53483503D01*
X58795542Y-53483503D01*
G37*
X58795542Y-53483503D02*
X58816253Y-53551778D01*
X58842029Y-53600000D01*
X58816253Y-53648222D01*
X58795542Y-53716497D01*
X58788549Y-53787500D01*
X58788549Y-53912500D01*
X58795542Y-53983503D01*
X58816253Y-54051778D01*
X58842029Y-54100000D01*
X58816253Y-54148222D01*
X58795542Y-54216497D01*
X58788549Y-54287500D01*
X58788549Y-54412500D01*
X58795542Y-54483503D01*
X58816253Y-54551778D01*
X58842029Y-54600000D01*
X58816253Y-54648222D01*
X58795542Y-54716497D01*
X58788549Y-54787500D01*
X58788549Y-54912500D01*
X58795542Y-54983503D01*
X58816253Y-55051778D01*
X58842029Y-55100000D01*
X58816253Y-55148222D01*
X58795542Y-55216497D01*
X58788549Y-55287500D01*
X58788549Y-55412500D01*
X58795542Y-55483503D01*
X58816253Y-55551778D01*
X58842029Y-55600000D01*
X58816253Y-55648222D01*
X58795542Y-55716497D01*
X58788549Y-55787500D01*
X58788549Y-55912500D01*
X58795542Y-55983503D01*
X58816253Y-56051778D01*
X58842029Y-56100000D01*
X58816253Y-56148222D01*
X58795542Y-56216497D01*
X58788549Y-56287500D01*
X58788549Y-56412500D01*
X58795542Y-56483503D01*
X58816253Y-56551778D01*
X58842029Y-56600000D01*
X58816253Y-56648222D01*
X58795542Y-56716497D01*
X58788549Y-56787500D01*
X58788549Y-56912500D01*
X58795542Y-56983503D01*
X58816253Y-57051778D01*
X58842029Y-57100000D01*
X58816253Y-57148222D01*
X58795542Y-57216497D01*
X58788549Y-57287500D01*
X58788549Y-57412500D01*
X58795542Y-57483503D01*
X58816253Y-57551778D01*
X58829338Y-57576257D01*
X58811495Y-57609639D01*
X58794340Y-57666190D01*
X58788548Y-57725000D01*
X58790000Y-57750000D01*
X58865000Y-57825000D01*
X59373500Y-57825000D01*
X59373500Y-57776451D01*
X59681500Y-57776451D01*
X59681500Y-57825000D01*
X60190000Y-57825000D01*
X60265000Y-57750000D01*
X60266452Y-57725000D01*
X60260660Y-57666190D01*
X60243505Y-57609639D01*
X60225662Y-57576257D01*
X60229114Y-57569799D01*
X60675000Y-58015685D01*
X60675001Y-59453658D01*
X60614000Y-59455000D01*
X60539000Y-59530000D01*
X60539000Y-59921000D01*
X60559000Y-59921000D01*
X60559000Y-60229000D01*
X60539000Y-60229000D01*
X60539000Y-60249000D01*
X60231000Y-60249000D01*
X60231000Y-60229000D01*
X60211000Y-60229000D01*
X60211000Y-59921000D01*
X60231000Y-59921000D01*
X60231000Y-59530000D01*
X60156000Y-59455000D01*
X60090000Y-59453548D01*
X60031190Y-59459340D01*
X59974639Y-59476495D01*
X59922522Y-59504352D01*
X59876841Y-59541841D01*
X59856908Y-59566129D01*
X59815000Y-59531735D01*
X59815000Y-58776451D01*
X59902500Y-58776451D01*
X59973503Y-58769458D01*
X60041778Y-58748747D01*
X60104700Y-58715114D01*
X60159852Y-58669852D01*
X60205114Y-58614700D01*
X60238747Y-58551778D01*
X60259458Y-58483503D01*
X60266451Y-58412500D01*
X60266451Y-58287500D01*
X60259458Y-58216497D01*
X60238747Y-58148222D01*
X60225662Y-58123743D01*
X60243505Y-58090361D01*
X60260660Y-58033810D01*
X60266452Y-57975000D01*
X60265000Y-57950000D01*
X60190000Y-57875000D01*
X59681500Y-57875000D01*
X59681500Y-57923549D01*
X59373500Y-57923549D01*
X59373500Y-57875000D01*
X58865000Y-57875000D01*
X58812842Y-57927158D01*
X58770000Y-57884316D01*
X58770000Y-53505685D01*
X58795241Y-53480444D01*
X58795542Y-53483503D01*
G36*
X61438475Y-50405691D02*
G01*
X61475483Y-50416864D01*
X61509617Y-50435013D01*
X61539576Y-50459448D01*
X61564218Y-50489234D01*
X61582605Y-50523240D01*
X61594035Y-50560167D01*
X61600001Y-50616927D01*
X61600001Y-57145183D01*
X60535869Y-56081052D01*
X60523343Y-56065789D01*
X60462435Y-56015803D01*
X60392946Y-55978660D01*
X60317546Y-55955788D01*
X60262719Y-55950388D01*
X60266451Y-55912500D01*
X60266451Y-55787500D01*
X60259458Y-55716497D01*
X60238747Y-55648222D01*
X60212971Y-55600000D01*
X60238747Y-55551778D01*
X60259458Y-55483503D01*
X60266451Y-55412500D01*
X60266451Y-55287500D01*
X60259458Y-55216497D01*
X60238747Y-55148222D01*
X60212971Y-55100000D01*
X60238747Y-55051778D01*
X60259458Y-54983503D01*
X60266451Y-54912500D01*
X60266451Y-54787500D01*
X60259458Y-54716497D01*
X60238747Y-54648222D01*
X60212971Y-54600000D01*
X60238747Y-54551778D01*
X60259458Y-54483503D01*
X60266451Y-54412500D01*
X60266451Y-54287500D01*
X60261723Y-54239497D01*
X60279352Y-54272478D01*
X60316841Y-54318159D01*
X60362522Y-54355648D01*
X60414639Y-54383505D01*
X60471190Y-54400660D01*
X60530000Y-54406452D01*
X60621000Y-54405000D01*
X60696000Y-54330000D01*
X60696000Y-53964000D01*
X61004000Y-53964000D01*
X61004000Y-54330000D01*
X61079000Y-54405000D01*
X61170000Y-54406452D01*
X61228810Y-54400660D01*
X61285361Y-54383505D01*
X61337478Y-54355648D01*
X61383159Y-54318159D01*
X61420648Y-54272478D01*
X61448505Y-54220361D01*
X61465660Y-54163810D01*
X61471452Y-54105000D01*
X61470000Y-54039000D01*
X61395000Y-53964000D01*
X61004000Y-53964000D01*
X60696000Y-53964000D01*
X60676000Y-53964000D01*
X60676000Y-53656000D01*
X60696000Y-53656000D01*
X60696000Y-53636000D01*
X61004000Y-53636000D01*
X61004000Y-53656000D01*
X61395000Y-53656000D01*
X61470000Y-53581000D01*
X61471452Y-53515000D01*
X61465660Y-53456190D01*
X61448505Y-53399639D01*
X61420648Y-53347522D01*
X61383159Y-53301841D01*
X61358871Y-53281908D01*
X61395789Y-53236924D01*
X61437277Y-53159306D01*
X61462825Y-53075086D01*
X61471451Y-52987500D01*
X61471451Y-52692500D01*
X61462825Y-52604914D01*
X61437277Y-52520694D01*
X61395789Y-52443076D01*
X61339956Y-52375044D01*
X61271924Y-52319211D01*
X61194306Y-52277723D01*
X61110086Y-52252175D01*
X61022500Y-52243549D01*
X60819234Y-52243549D01*
X60469237Y-51893552D01*
X60456711Y-51878289D01*
X60395803Y-51828303D01*
X60326314Y-51791160D01*
X60250914Y-51768288D01*
X60192147Y-51762500D01*
X60192146Y-51762500D01*
X60172500Y-51760565D01*
X60152854Y-51762500D01*
X59263989Y-51762500D01*
X59259458Y-51716497D01*
X59250000Y-51685318D01*
X59250000Y-51629635D01*
X59251934Y-51609999D01*
X59250000Y-51590363D01*
X59250000Y-51590353D01*
X59244212Y-51531586D01*
X59221340Y-51456186D01*
X59184197Y-51386697D01*
X59134211Y-51325789D01*
X59118948Y-51313263D01*
X58816737Y-51011052D01*
X58804211Y-50995789D01*
X58743303Y-50945803D01*
X58673814Y-50908660D01*
X58598414Y-50885788D01*
X58539647Y-50880000D01*
X58539646Y-50880000D01*
X58520000Y-50878065D01*
X58500354Y-50880000D01*
X52379635Y-50880000D01*
X52359999Y-50878066D01*
X52340363Y-50880000D01*
X52340353Y-50880000D01*
X52281586Y-50885788D01*
X52206186Y-50908660D01*
X52136697Y-50945803D01*
X52075789Y-50995789D01*
X52063263Y-51011052D01*
X51031052Y-52043263D01*
X51015789Y-52055789D01*
X50965803Y-52116698D01*
X50928660Y-52186187D01*
X50913338Y-52236698D01*
X50905788Y-52261587D01*
X50898065Y-52340000D01*
X50900000Y-52359647D01*
X50900001Y-53632492D01*
X50878076Y-53644211D01*
X50810044Y-53700044D01*
X50754211Y-53768076D01*
X50712723Y-53845694D01*
X50687175Y-53929914D01*
X50678549Y-54017500D01*
X50678549Y-54312500D01*
X50687175Y-54400086D01*
X50712723Y-54484306D01*
X50754211Y-54561924D01*
X50791129Y-54606908D01*
X50766841Y-54626841D01*
X50729352Y-54672522D01*
X50701495Y-54724639D01*
X50684340Y-54781190D01*
X50678548Y-54840000D01*
X50680000Y-54906000D01*
X50755000Y-54981000D01*
X51146000Y-54981000D01*
X51146000Y-54961000D01*
X51454000Y-54961000D01*
X51454000Y-54981000D01*
X51845000Y-54981000D01*
X51915000Y-54911000D01*
X51915000Y-54950000D01*
X51913548Y-54975000D01*
X51915000Y-54989743D01*
X51915000Y-55004002D01*
X51916404Y-55004002D01*
X51919340Y-55033810D01*
X51936495Y-55090361D01*
X51954338Y-55123743D01*
X51941253Y-55148222D01*
X51920542Y-55216497D01*
X51913549Y-55287500D01*
X51913549Y-55357549D01*
X51845000Y-55289000D01*
X51454000Y-55289000D01*
X51454000Y-55655000D01*
X51529000Y-55730000D01*
X51620000Y-55731452D01*
X51678810Y-55725660D01*
X51735361Y-55708505D01*
X51787478Y-55680648D01*
X51833159Y-55643159D01*
X51870648Y-55597478D01*
X51898505Y-55545361D01*
X51915660Y-55488810D01*
X51918362Y-55461372D01*
X51920542Y-55483503D01*
X51941253Y-55551778D01*
X51967029Y-55600000D01*
X51941253Y-55648222D01*
X51920542Y-55716497D01*
X51913549Y-55787500D01*
X51913549Y-55912500D01*
X51920542Y-55983503D01*
X51941253Y-56051778D01*
X51967029Y-56100000D01*
X51941253Y-56148222D01*
X51920542Y-56216497D01*
X51913549Y-56287500D01*
X51913549Y-56412500D01*
X51920542Y-56483503D01*
X51941253Y-56551778D01*
X51967029Y-56600000D01*
X51941253Y-56648222D01*
X51920542Y-56716497D01*
X51913549Y-56787500D01*
X51913549Y-56912500D01*
X51920542Y-56983503D01*
X51941253Y-57051778D01*
X51967029Y-57100000D01*
X51941253Y-57148222D01*
X51920542Y-57216497D01*
X51916159Y-57260998D01*
X51845002Y-57260998D01*
X51920000Y-57186000D01*
X51921452Y-57120000D01*
X51915660Y-57061190D01*
X51898505Y-57004639D01*
X51870648Y-56952522D01*
X51833159Y-56906841D01*
X51787478Y-56869352D01*
X51735361Y-56841495D01*
X51678810Y-56824340D01*
X51620000Y-56818548D01*
X51529000Y-56820000D01*
X51454000Y-56895000D01*
X51454000Y-57261000D01*
X51474000Y-57261000D01*
X51474000Y-57569000D01*
X51454000Y-57569000D01*
X51454000Y-57589000D01*
X51146000Y-57589000D01*
X51146000Y-57569000D01*
X50755000Y-57569000D01*
X50680000Y-57644000D01*
X50678548Y-57710000D01*
X50684340Y-57768810D01*
X50701495Y-57825361D01*
X50729352Y-57877478D01*
X50766841Y-57923159D01*
X50791129Y-57943092D01*
X50754211Y-57988076D01*
X50712723Y-58065694D01*
X50687175Y-58149914D01*
X50678549Y-58237500D01*
X50678549Y-58440766D01*
X50536048Y-58583267D01*
X50520790Y-58595789D01*
X50508268Y-58611047D01*
X50508265Y-58611050D01*
X50470803Y-58656698D01*
X50433661Y-58726186D01*
X50410788Y-58801587D01*
X50403065Y-58880000D01*
X50405001Y-58899656D01*
X50405001Y-59398549D01*
X50400000Y-59398549D01*
X50400000Y-57120000D01*
X50678548Y-57120000D01*
X50680000Y-57186000D01*
X50755000Y-57261000D01*
X51146000Y-57261000D01*
X51146000Y-56895000D01*
X51071000Y-56820000D01*
X50980000Y-56818548D01*
X50921190Y-56824340D01*
X50864639Y-56841495D01*
X50812522Y-56869352D01*
X50766841Y-56906841D01*
X50729352Y-56952522D01*
X50701495Y-57004639D01*
X50684340Y-57061190D01*
X50678548Y-57120000D01*
X50400000Y-57120000D01*
X50400000Y-55430000D01*
X50678548Y-55430000D01*
X50684340Y-55488810D01*
X50701495Y-55545361D01*
X50729352Y-55597478D01*
X50766841Y-55643159D01*
X50812522Y-55680648D01*
X50864639Y-55708505D01*
X50921190Y-55725660D01*
X50980000Y-55731452D01*
X51071000Y-55730000D01*
X51146000Y-55655000D01*
X51146000Y-55289000D01*
X50755000Y-55289000D01*
X50680000Y-55364000D01*
X50678548Y-55430000D01*
X50400000Y-55430000D01*
X50400000Y-50619564D01*
X50405691Y-50561525D01*
X50416864Y-50524517D01*
X50435013Y-50490383D01*
X50459448Y-50460424D01*
X50489234Y-50435782D01*
X50523240Y-50417395D01*
X50560167Y-50405965D01*
X50616918Y-50400000D01*
X61380436Y-50400000D01*
X61438475Y-50405691D01*
X61438475Y-50405691D01*
G37*
X61438475Y-50405691D02*
X61475483Y-50416864D01*
X61509617Y-50435013D01*
X61539576Y-50459448D01*
X61564218Y-50489234D01*
X61582605Y-50523240D01*
X61594035Y-50560167D01*
X61600001Y-50616927D01*
X61600001Y-57145183D01*
X60535869Y-56081052D01*
X60523343Y-56065789D01*
X60462435Y-56015803D01*
X60392946Y-55978660D01*
X60317546Y-55955788D01*
X60262719Y-55950388D01*
X60266451Y-55912500D01*
X60266451Y-55787500D01*
X60259458Y-55716497D01*
X60238747Y-55648222D01*
X60212971Y-55600000D01*
X60238747Y-55551778D01*
X60259458Y-55483503D01*
X60266451Y-55412500D01*
X60266451Y-55287500D01*
X60259458Y-55216497D01*
X60238747Y-55148222D01*
X60212971Y-55100000D01*
X60238747Y-55051778D01*
X60259458Y-54983503D01*
X60266451Y-54912500D01*
X60266451Y-54787500D01*
X60259458Y-54716497D01*
X60238747Y-54648222D01*
X60212971Y-54600000D01*
X60238747Y-54551778D01*
X60259458Y-54483503D01*
X60266451Y-54412500D01*
X60266451Y-54287500D01*
X60261723Y-54239497D01*
X60279352Y-54272478D01*
X60316841Y-54318159D01*
X60362522Y-54355648D01*
X60414639Y-54383505D01*
X60471190Y-54400660D01*
X60530000Y-54406452D01*
X60621000Y-54405000D01*
X60696000Y-54330000D01*
X60696000Y-53964000D01*
X61004000Y-53964000D01*
X61004000Y-54330000D01*
X61079000Y-54405000D01*
X61170000Y-54406452D01*
X61228810Y-54400660D01*
X61285361Y-54383505D01*
X61337478Y-54355648D01*
X61383159Y-54318159D01*
X61420648Y-54272478D01*
X61448505Y-54220361D01*
X61465660Y-54163810D01*
X61471452Y-54105000D01*
X61470000Y-54039000D01*
X61395000Y-53964000D01*
X61004000Y-53964000D01*
X60696000Y-53964000D01*
X60676000Y-53964000D01*
X60676000Y-53656000D01*
X60696000Y-53656000D01*
X60696000Y-53636000D01*
X61004000Y-53636000D01*
X61004000Y-53656000D01*
X61395000Y-53656000D01*
X61470000Y-53581000D01*
X61471452Y-53515000D01*
X61465660Y-53456190D01*
X61448505Y-53399639D01*
X61420648Y-53347522D01*
X61383159Y-53301841D01*
X61358871Y-53281908D01*
X61395789Y-53236924D01*
X61437277Y-53159306D01*
X61462825Y-53075086D01*
X61471451Y-52987500D01*
X61471451Y-52692500D01*
X61462825Y-52604914D01*
X61437277Y-52520694D01*
X61395789Y-52443076D01*
X61339956Y-52375044D01*
X61271924Y-52319211D01*
X61194306Y-52277723D01*
X61110086Y-52252175D01*
X61022500Y-52243549D01*
X60819234Y-52243549D01*
X60469237Y-51893552D01*
X60456711Y-51878289D01*
X60395803Y-51828303D01*
X60326314Y-51791160D01*
X60250914Y-51768288D01*
X60192147Y-51762500D01*
X60192146Y-51762500D01*
X60172500Y-51760565D01*
X60152854Y-51762500D01*
X59263989Y-51762500D01*
X59259458Y-51716497D01*
X59250000Y-51685318D01*
X59250000Y-51629635D01*
X59251934Y-51609999D01*
X59250000Y-51590363D01*
X59250000Y-51590353D01*
X59244212Y-51531586D01*
X59221340Y-51456186D01*
X59184197Y-51386697D01*
X59134211Y-51325789D01*
X59118948Y-51313263D01*
X58816737Y-51011052D01*
X58804211Y-50995789D01*
X58743303Y-50945803D01*
X58673814Y-50908660D01*
X58598414Y-50885788D01*
X58539647Y-50880000D01*
X58539646Y-50880000D01*
X58520000Y-50878065D01*
X58500354Y-50880000D01*
X52379635Y-50880000D01*
X52359999Y-50878066D01*
X52340363Y-50880000D01*
X52340353Y-50880000D01*
X52281586Y-50885788D01*
X52206186Y-50908660D01*
X52136697Y-50945803D01*
X52075789Y-50995789D01*
X52063263Y-51011052D01*
X51031052Y-52043263D01*
X51015789Y-52055789D01*
X50965803Y-52116698D01*
X50928660Y-52186187D01*
X50913338Y-52236698D01*
X50905788Y-52261587D01*
X50898065Y-52340000D01*
X50900000Y-52359647D01*
X50900001Y-53632492D01*
X50878076Y-53644211D01*
X50810044Y-53700044D01*
X50754211Y-53768076D01*
X50712723Y-53845694D01*
X50687175Y-53929914D01*
X50678549Y-54017500D01*
X50678549Y-54312500D01*
X50687175Y-54400086D01*
X50712723Y-54484306D01*
X50754211Y-54561924D01*
X50791129Y-54606908D01*
X50766841Y-54626841D01*
X50729352Y-54672522D01*
X50701495Y-54724639D01*
X50684340Y-54781190D01*
X50678548Y-54840000D01*
X50680000Y-54906000D01*
X50755000Y-54981000D01*
X51146000Y-54981000D01*
X51146000Y-54961000D01*
X51454000Y-54961000D01*
X51454000Y-54981000D01*
X51845000Y-54981000D01*
X51915000Y-54911000D01*
X51915000Y-54950000D01*
X51913548Y-54975000D01*
X51915000Y-54989743D01*
X51915000Y-55004002D01*
X51916404Y-55004002D01*
X51919340Y-55033810D01*
X51936495Y-55090361D01*
X51954338Y-55123743D01*
X51941253Y-55148222D01*
X51920542Y-55216497D01*
X51913549Y-55287500D01*
X51913549Y-55357549D01*
X51845000Y-55289000D01*
X51454000Y-55289000D01*
X51454000Y-55655000D01*
X51529000Y-55730000D01*
X51620000Y-55731452D01*
X51678810Y-55725660D01*
X51735361Y-55708505D01*
X51787478Y-55680648D01*
X51833159Y-55643159D01*
X51870648Y-55597478D01*
X51898505Y-55545361D01*
X51915660Y-55488810D01*
X51918362Y-55461372D01*
X51920542Y-55483503D01*
X51941253Y-55551778D01*
X51967029Y-55600000D01*
X51941253Y-55648222D01*
X51920542Y-55716497D01*
X51913549Y-55787500D01*
X51913549Y-55912500D01*
X51920542Y-55983503D01*
X51941253Y-56051778D01*
X51967029Y-56100000D01*
X51941253Y-56148222D01*
X51920542Y-56216497D01*
X51913549Y-56287500D01*
X51913549Y-56412500D01*
X51920542Y-56483503D01*
X51941253Y-56551778D01*
X51967029Y-56600000D01*
X51941253Y-56648222D01*
X51920542Y-56716497D01*
X51913549Y-56787500D01*
X51913549Y-56912500D01*
X51920542Y-56983503D01*
X51941253Y-57051778D01*
X51967029Y-57100000D01*
X51941253Y-57148222D01*
X51920542Y-57216497D01*
X51916159Y-57260998D01*
X51845002Y-57260998D01*
X51920000Y-57186000D01*
X51921452Y-57120000D01*
X51915660Y-57061190D01*
X51898505Y-57004639D01*
X51870648Y-56952522D01*
X51833159Y-56906841D01*
X51787478Y-56869352D01*
X51735361Y-56841495D01*
X51678810Y-56824340D01*
X51620000Y-56818548D01*
X51529000Y-56820000D01*
X51454000Y-56895000D01*
X51454000Y-57261000D01*
X51474000Y-57261000D01*
X51474000Y-57569000D01*
X51454000Y-57569000D01*
X51454000Y-57589000D01*
X51146000Y-57589000D01*
X51146000Y-57569000D01*
X50755000Y-57569000D01*
X50680000Y-57644000D01*
X50678548Y-57710000D01*
X50684340Y-57768810D01*
X50701495Y-57825361D01*
X50729352Y-57877478D01*
X50766841Y-57923159D01*
X50791129Y-57943092D01*
X50754211Y-57988076D01*
X50712723Y-58065694D01*
X50687175Y-58149914D01*
X50678549Y-58237500D01*
X50678549Y-58440766D01*
X50536048Y-58583267D01*
X50520790Y-58595789D01*
X50508268Y-58611047D01*
X50508265Y-58611050D01*
X50470803Y-58656698D01*
X50433661Y-58726186D01*
X50410788Y-58801587D01*
X50403065Y-58880000D01*
X50405001Y-58899656D01*
X50405001Y-59398549D01*
X50400000Y-59398549D01*
X50400000Y-57120000D01*
X50678548Y-57120000D01*
X50680000Y-57186000D01*
X50755000Y-57261000D01*
X51146000Y-57261000D01*
X51146000Y-56895000D01*
X51071000Y-56820000D01*
X50980000Y-56818548D01*
X50921190Y-56824340D01*
X50864639Y-56841495D01*
X50812522Y-56869352D01*
X50766841Y-56906841D01*
X50729352Y-56952522D01*
X50701495Y-57004639D01*
X50684340Y-57061190D01*
X50678548Y-57120000D01*
X50400000Y-57120000D01*
X50400000Y-55430000D01*
X50678548Y-55430000D01*
X50684340Y-55488810D01*
X50701495Y-55545361D01*
X50729352Y-55597478D01*
X50766841Y-55643159D01*
X50812522Y-55680648D01*
X50864639Y-55708505D01*
X50921190Y-55725660D01*
X50980000Y-55731452D01*
X51071000Y-55730000D01*
X51146000Y-55655000D01*
X51146000Y-55289000D01*
X50755000Y-55289000D01*
X50680000Y-55364000D01*
X50678548Y-55430000D01*
X50400000Y-55430000D01*
X50400000Y-50619564D01*
X50405691Y-50561525D01*
X50416864Y-50524517D01*
X50435013Y-50490383D01*
X50459448Y-50460424D01*
X50489234Y-50435782D01*
X50523240Y-50417395D01*
X50560167Y-50405965D01*
X50616918Y-50400000D01*
X61380436Y-50400000D01*
X61438475Y-50405691D01*
G36*
X57638222Y-52873747D02*
G01*
X57706497Y-52894458D01*
X57777500Y-52901451D01*
X57902500Y-52901451D01*
X57973503Y-52894458D01*
X58041778Y-52873747D01*
X58066257Y-52860662D01*
X58099639Y-52878505D01*
X58156190Y-52895660D01*
X58185998Y-52898596D01*
X58185998Y-52900000D01*
X58200257Y-52900000D01*
X58215000Y-52901452D01*
X58240000Y-52900000D01*
X58244315Y-52900000D01*
X58101048Y-53043267D01*
X58085790Y-53055789D01*
X58073268Y-53071047D01*
X58073265Y-53071050D01*
X58035803Y-53116698D01*
X57998661Y-53186186D01*
X57975788Y-53261587D01*
X57968065Y-53340000D01*
X57970001Y-53359656D01*
X57970000Y-58030354D01*
X57968065Y-58050000D01*
X57970360Y-58073303D01*
X57975788Y-58128413D01*
X57998660Y-58203813D01*
X58035803Y-58273302D01*
X58085789Y-58334211D01*
X58100597Y-58346364D01*
X58090000Y-58352029D01*
X58041778Y-58326253D01*
X57973503Y-58305542D01*
X57902500Y-58298549D01*
X57777500Y-58298549D01*
X57706497Y-58305542D01*
X57697995Y-58308121D01*
X57666234Y-58248699D01*
X57618935Y-58191065D01*
X57604487Y-58179208D01*
X56993783Y-57568504D01*
X56981925Y-57554055D01*
X56924291Y-57506756D01*
X56858536Y-57471610D01*
X56787189Y-57449967D01*
X56731580Y-57444490D01*
X56712990Y-57442659D01*
X56694400Y-57444490D01*
X56447279Y-57444490D01*
X56428689Y-57442659D01*
X56354490Y-57449967D01*
X56335302Y-57455788D01*
X56283144Y-57471610D01*
X56217389Y-57506756D01*
X56159755Y-57554055D01*
X56147897Y-57568504D01*
X55595509Y-58120892D01*
X55581066Y-58132745D01*
X55575187Y-58139908D01*
X55430793Y-57995514D01*
X55418935Y-57981065D01*
X55361301Y-57933766D01*
X55295546Y-57898620D01*
X55224199Y-57876977D01*
X55168590Y-57871500D01*
X55150000Y-57869669D01*
X55131410Y-57871500D01*
X54568590Y-57871500D01*
X54550000Y-57869669D01*
X54531410Y-57871500D01*
X54475801Y-57876977D01*
X54404454Y-57898620D01*
X54338699Y-57933766D01*
X54281065Y-57981065D01*
X54269207Y-57995514D01*
X54095514Y-58169207D01*
X54081065Y-58181065D01*
X54033766Y-58238700D01*
X53999938Y-58301989D01*
X53994002Y-58301404D01*
X53994002Y-58300000D01*
X53979743Y-58300000D01*
X53965000Y-58298548D01*
X53940000Y-58300000D01*
X53895685Y-58300000D01*
X54038949Y-58156736D01*
X54054211Y-58144211D01*
X54104197Y-58083303D01*
X54141340Y-58013814D01*
X54164212Y-57938414D01*
X54170000Y-57879647D01*
X54170000Y-57879646D01*
X54171935Y-57860000D01*
X54170000Y-57840353D01*
X54170000Y-56900000D01*
X54488548Y-56900000D01*
X54494340Y-56958810D01*
X54511495Y-57015361D01*
X54539352Y-57067478D01*
X54576841Y-57113159D01*
X54622522Y-57150648D01*
X54674639Y-57178505D01*
X54731190Y-57195660D01*
X54790000Y-57201452D01*
X55861000Y-57200000D01*
X55936000Y-57125000D01*
X55936000Y-55754000D01*
X56244000Y-55754000D01*
X56244000Y-57125000D01*
X56319000Y-57200000D01*
X57390000Y-57201452D01*
X57448810Y-57195660D01*
X57505361Y-57178505D01*
X57557478Y-57150648D01*
X57603159Y-57113159D01*
X57640648Y-57067478D01*
X57668505Y-57015361D01*
X57685660Y-56958810D01*
X57691452Y-56900000D01*
X57690000Y-55829000D01*
X57615000Y-55754000D01*
X56244000Y-55754000D01*
X55936000Y-55754000D01*
X54565000Y-55754000D01*
X54490000Y-55829000D01*
X54488548Y-56900000D01*
X54170000Y-56900000D01*
X54170000Y-54939647D01*
X54171935Y-54920000D01*
X54164212Y-54841586D01*
X54141340Y-54766186D01*
X54104197Y-54696697D01*
X54082166Y-54669852D01*
X54054211Y-54635789D01*
X54038948Y-54623263D01*
X53715685Y-54300000D01*
X54488548Y-54300000D01*
X54490000Y-55371000D01*
X54565000Y-55446000D01*
X55936000Y-55446000D01*
X55936000Y-54075000D01*
X56244000Y-54075000D01*
X56244000Y-55446000D01*
X57615000Y-55446000D01*
X57690000Y-55371000D01*
X57691452Y-54300000D01*
X57685660Y-54241190D01*
X57668505Y-54184639D01*
X57640648Y-54132522D01*
X57603159Y-54086841D01*
X57557478Y-54049352D01*
X57505361Y-54021495D01*
X57448810Y-54004340D01*
X57390000Y-53998548D01*
X56319000Y-54000000D01*
X56244000Y-54075000D01*
X55936000Y-54075000D01*
X55861000Y-54000000D01*
X54790000Y-53998548D01*
X54731190Y-54004340D01*
X54674639Y-54021495D01*
X54622522Y-54049352D01*
X54576841Y-54086841D01*
X54539352Y-54132522D01*
X54511495Y-54184639D01*
X54494340Y-54241190D01*
X54488548Y-54300000D01*
X53715685Y-54300000D01*
X53496737Y-54081052D01*
X53484211Y-54065789D01*
X53423303Y-54015803D01*
X53381447Y-53993430D01*
X53384458Y-53983503D01*
X53391451Y-53912500D01*
X53391451Y-53787500D01*
X53384458Y-53716497D01*
X53363747Y-53648222D01*
X53337971Y-53600000D01*
X53363747Y-53551778D01*
X53384458Y-53483503D01*
X53391451Y-53412500D01*
X53391451Y-53287500D01*
X53384458Y-53216497D01*
X53363747Y-53148222D01*
X53337971Y-53100000D01*
X53363747Y-53051778D01*
X53384458Y-52983503D01*
X53391451Y-52912500D01*
X53391451Y-52901451D01*
X53402500Y-52901451D01*
X53473503Y-52894458D01*
X53541778Y-52873747D01*
X53590000Y-52847971D01*
X53638222Y-52873747D01*
X53706497Y-52894458D01*
X53777500Y-52901451D01*
X53902500Y-52901451D01*
X53973503Y-52894458D01*
X54041778Y-52873747D01*
X54090000Y-52847971D01*
X54138222Y-52873747D01*
X54206497Y-52894458D01*
X54277500Y-52901451D01*
X54402500Y-52901451D01*
X54473503Y-52894458D01*
X54541778Y-52873747D01*
X54590000Y-52847971D01*
X54638222Y-52873747D01*
X54706497Y-52894458D01*
X54777500Y-52901451D01*
X54902500Y-52901451D01*
X54973503Y-52894458D01*
X55041778Y-52873747D01*
X55090000Y-52847971D01*
X55138222Y-52873747D01*
X55206497Y-52894458D01*
X55277500Y-52901451D01*
X55402500Y-52901451D01*
X55473503Y-52894458D01*
X55541778Y-52873747D01*
X55590000Y-52847971D01*
X55638222Y-52873747D01*
X55706497Y-52894458D01*
X55777500Y-52901451D01*
X55902500Y-52901451D01*
X55973503Y-52894458D01*
X56041778Y-52873747D01*
X56090000Y-52847971D01*
X56138222Y-52873747D01*
X56206497Y-52894458D01*
X56277500Y-52901451D01*
X56402500Y-52901451D01*
X56473503Y-52894458D01*
X56541778Y-52873747D01*
X56590000Y-52847971D01*
X56638222Y-52873747D01*
X56706497Y-52894458D01*
X56777500Y-52901451D01*
X56902500Y-52901451D01*
X56973503Y-52894458D01*
X57041778Y-52873747D01*
X57090000Y-52847971D01*
X57138222Y-52873747D01*
X57206497Y-52894458D01*
X57277500Y-52901451D01*
X57402500Y-52901451D01*
X57473503Y-52894458D01*
X57541778Y-52873747D01*
X57590000Y-52847971D01*
X57638222Y-52873747D01*
X57638222Y-52873747D01*
G37*
X57638222Y-52873747D02*
X57706497Y-52894458D01*
X57777500Y-52901451D01*
X57902500Y-52901451D01*
X57973503Y-52894458D01*
X58041778Y-52873747D01*
X58066257Y-52860662D01*
X58099639Y-52878505D01*
X58156190Y-52895660D01*
X58185998Y-52898596D01*
X58185998Y-52900000D01*
X58200257Y-52900000D01*
X58215000Y-52901452D01*
X58240000Y-52900000D01*
X58244315Y-52900000D01*
X58101048Y-53043267D01*
X58085790Y-53055789D01*
X58073268Y-53071047D01*
X58073265Y-53071050D01*
X58035803Y-53116698D01*
X57998661Y-53186186D01*
X57975788Y-53261587D01*
X57968065Y-53340000D01*
X57970001Y-53359656D01*
X57970000Y-58030354D01*
X57968065Y-58050000D01*
X57970360Y-58073303D01*
X57975788Y-58128413D01*
X57998660Y-58203813D01*
X58035803Y-58273302D01*
X58085789Y-58334211D01*
X58100597Y-58346364D01*
X58090000Y-58352029D01*
X58041778Y-58326253D01*
X57973503Y-58305542D01*
X57902500Y-58298549D01*
X57777500Y-58298549D01*
X57706497Y-58305542D01*
X57697995Y-58308121D01*
X57666234Y-58248699D01*
X57618935Y-58191065D01*
X57604487Y-58179208D01*
X56993783Y-57568504D01*
X56981925Y-57554055D01*
X56924291Y-57506756D01*
X56858536Y-57471610D01*
X56787189Y-57449967D01*
X56731580Y-57444490D01*
X56712990Y-57442659D01*
X56694400Y-57444490D01*
X56447279Y-57444490D01*
X56428689Y-57442659D01*
X56354490Y-57449967D01*
X56335302Y-57455788D01*
X56283144Y-57471610D01*
X56217389Y-57506756D01*
X56159755Y-57554055D01*
X56147897Y-57568504D01*
X55595509Y-58120892D01*
X55581066Y-58132745D01*
X55575187Y-58139908D01*
X55430793Y-57995514D01*
X55418935Y-57981065D01*
X55361301Y-57933766D01*
X55295546Y-57898620D01*
X55224199Y-57876977D01*
X55168590Y-57871500D01*
X55150000Y-57869669D01*
X55131410Y-57871500D01*
X54568590Y-57871500D01*
X54550000Y-57869669D01*
X54531410Y-57871500D01*
X54475801Y-57876977D01*
X54404454Y-57898620D01*
X54338699Y-57933766D01*
X54281065Y-57981065D01*
X54269207Y-57995514D01*
X54095514Y-58169207D01*
X54081065Y-58181065D01*
X54033766Y-58238700D01*
X53999938Y-58301989D01*
X53994002Y-58301404D01*
X53994002Y-58300000D01*
X53979743Y-58300000D01*
X53965000Y-58298548D01*
X53940000Y-58300000D01*
X53895685Y-58300000D01*
X54038949Y-58156736D01*
X54054211Y-58144211D01*
X54104197Y-58083303D01*
X54141340Y-58013814D01*
X54164212Y-57938414D01*
X54170000Y-57879647D01*
X54170000Y-57879646D01*
X54171935Y-57860000D01*
X54170000Y-57840353D01*
X54170000Y-56900000D01*
X54488548Y-56900000D01*
X54494340Y-56958810D01*
X54511495Y-57015361D01*
X54539352Y-57067478D01*
X54576841Y-57113159D01*
X54622522Y-57150648D01*
X54674639Y-57178505D01*
X54731190Y-57195660D01*
X54790000Y-57201452D01*
X55861000Y-57200000D01*
X55936000Y-57125000D01*
X55936000Y-55754000D01*
X56244000Y-55754000D01*
X56244000Y-57125000D01*
X56319000Y-57200000D01*
X57390000Y-57201452D01*
X57448810Y-57195660D01*
X57505361Y-57178505D01*
X57557478Y-57150648D01*
X57603159Y-57113159D01*
X57640648Y-57067478D01*
X57668505Y-57015361D01*
X57685660Y-56958810D01*
X57691452Y-56900000D01*
X57690000Y-55829000D01*
X57615000Y-55754000D01*
X56244000Y-55754000D01*
X55936000Y-55754000D01*
X54565000Y-55754000D01*
X54490000Y-55829000D01*
X54488548Y-56900000D01*
X54170000Y-56900000D01*
X54170000Y-54939647D01*
X54171935Y-54920000D01*
X54164212Y-54841586D01*
X54141340Y-54766186D01*
X54104197Y-54696697D01*
X54082166Y-54669852D01*
X54054211Y-54635789D01*
X54038948Y-54623263D01*
X53715685Y-54300000D01*
X54488548Y-54300000D01*
X54490000Y-55371000D01*
X54565000Y-55446000D01*
X55936000Y-55446000D01*
X55936000Y-54075000D01*
X56244000Y-54075000D01*
X56244000Y-55446000D01*
X57615000Y-55446000D01*
X57690000Y-55371000D01*
X57691452Y-54300000D01*
X57685660Y-54241190D01*
X57668505Y-54184639D01*
X57640648Y-54132522D01*
X57603159Y-54086841D01*
X57557478Y-54049352D01*
X57505361Y-54021495D01*
X57448810Y-54004340D01*
X57390000Y-53998548D01*
X56319000Y-54000000D01*
X56244000Y-54075000D01*
X55936000Y-54075000D01*
X55861000Y-54000000D01*
X54790000Y-53998548D01*
X54731190Y-54004340D01*
X54674639Y-54021495D01*
X54622522Y-54049352D01*
X54576841Y-54086841D01*
X54539352Y-54132522D01*
X54511495Y-54184639D01*
X54494340Y-54241190D01*
X54488548Y-54300000D01*
X53715685Y-54300000D01*
X53496737Y-54081052D01*
X53484211Y-54065789D01*
X53423303Y-54015803D01*
X53381447Y-53993430D01*
X53384458Y-53983503D01*
X53391451Y-53912500D01*
X53391451Y-53787500D01*
X53384458Y-53716497D01*
X53363747Y-53648222D01*
X53337971Y-53600000D01*
X53363747Y-53551778D01*
X53384458Y-53483503D01*
X53391451Y-53412500D01*
X53391451Y-53287500D01*
X53384458Y-53216497D01*
X53363747Y-53148222D01*
X53337971Y-53100000D01*
X53363747Y-53051778D01*
X53384458Y-52983503D01*
X53391451Y-52912500D01*
X53391451Y-52901451D01*
X53402500Y-52901451D01*
X53473503Y-52894458D01*
X53541778Y-52873747D01*
X53590000Y-52847971D01*
X53638222Y-52873747D01*
X53706497Y-52894458D01*
X53777500Y-52901451D01*
X53902500Y-52901451D01*
X53973503Y-52894458D01*
X54041778Y-52873747D01*
X54090000Y-52847971D01*
X54138222Y-52873747D01*
X54206497Y-52894458D01*
X54277500Y-52901451D01*
X54402500Y-52901451D01*
X54473503Y-52894458D01*
X54541778Y-52873747D01*
X54590000Y-52847971D01*
X54638222Y-52873747D01*
X54706497Y-52894458D01*
X54777500Y-52901451D01*
X54902500Y-52901451D01*
X54973503Y-52894458D01*
X55041778Y-52873747D01*
X55090000Y-52847971D01*
X55138222Y-52873747D01*
X55206497Y-52894458D01*
X55277500Y-52901451D01*
X55402500Y-52901451D01*
X55473503Y-52894458D01*
X55541778Y-52873747D01*
X55590000Y-52847971D01*
X55638222Y-52873747D01*
X55706497Y-52894458D01*
X55777500Y-52901451D01*
X55902500Y-52901451D01*
X55973503Y-52894458D01*
X56041778Y-52873747D01*
X56090000Y-52847971D01*
X56138222Y-52873747D01*
X56206497Y-52894458D01*
X56277500Y-52901451D01*
X56402500Y-52901451D01*
X56473503Y-52894458D01*
X56541778Y-52873747D01*
X56590000Y-52847971D01*
X56638222Y-52873747D01*
X56706497Y-52894458D01*
X56777500Y-52901451D01*
X56902500Y-52901451D01*
X56973503Y-52894458D01*
X57041778Y-52873747D01*
X57090000Y-52847971D01*
X57138222Y-52873747D01*
X57206497Y-52894458D01*
X57277500Y-52901451D01*
X57402500Y-52901451D01*
X57473503Y-52894458D01*
X57541778Y-52873747D01*
X57590000Y-52847971D01*
X57638222Y-52873747D01*
G36*
X52806500Y-54825000D02*
G01*
X52826500Y-54825000D01*
X52826500Y-54875000D01*
X52806500Y-54875000D01*
X52806500Y-54923549D01*
X52498500Y-54923549D01*
X52498500Y-54875000D01*
X52478500Y-54875000D01*
X52478500Y-54825000D01*
X52498500Y-54825000D01*
X52498500Y-54776451D01*
X52806500Y-54776451D01*
X52806500Y-54825000D01*
X52806500Y-54825000D01*
G37*
X52806500Y-54825000D02*
X52826500Y-54825000D01*
X52826500Y-54875000D01*
X52806500Y-54875000D01*
X52806500Y-54923549D01*
X52498500Y-54923549D01*
X52498500Y-54875000D01*
X52478500Y-54875000D01*
X52478500Y-54825000D01*
X52498500Y-54825000D01*
X52498500Y-54776451D01*
X52806500Y-54776451D01*
X52806500Y-54825000D01*
G36*
X58365000Y-52008500D02*
G01*
X58413549Y-52008500D01*
X58413549Y-52316500D01*
X58365000Y-52316500D01*
X58365000Y-52336500D01*
X58315000Y-52336500D01*
X58315000Y-52316500D01*
X58266451Y-52316500D01*
X58266451Y-52008500D01*
X58315000Y-52008500D01*
X58315000Y-51988500D01*
X58365000Y-51988500D01*
X58365000Y-52008500D01*
X58365000Y-52008500D01*
G37*
X58365000Y-52008500D02*
X58413549Y-52008500D01*
X58413549Y-52316500D01*
X58365000Y-52316500D01*
X58365000Y-52336500D01*
X58315000Y-52336500D01*
X58315000Y-52316500D01*
X58266451Y-52316500D01*
X58266451Y-52008500D01*
X58315000Y-52008500D01*
X58315000Y-51988500D01*
X58365000Y-51988500D01*
X58365000Y-52008500D01*
M02*
